<!-- Generated by IcoMoon.io -->
<svg version="1.1" xmlns="http://www.w3.org/2000/svg" width="234" height="32" viewBox="0 0 234 32">
<title>bg-footer-squiggle</title>
<path fill="#093f68" opacity="0.25" d="M108.008 0.001c0.069-0.001 0.126-0.001 0.174 0.003 0.046 0.003 0.084 0.009 0.129 0.022 0.069 0.021 0.13 0.052 0.193 0.12 0.14 0.151 0.15 0.374 0.035 0.536-0.176 0.248-0.507 0.447-0.974 0.614l-0.107 0.037-0.144 0.049-0.167 0.057-0.262 0.088-0.377 0.124-0.506 0.163-0.57 0.18-1.035 0.322-2.059 0.635-0.657 0.205-0.569 0.181-0.458 0.149-0.384 0.127c-0.586 0.183-0.761 0.244-0.935 0.306l0.409-0.126-0.367 0.128-0.439 0.154-0.805 0.285-0.732 0.262-0.595 0.216-0.925 0.339-0.734 0.272-1.426 0.533-1.857 0.701-8.151 3.104-2.609 1.007-1.213 0.472-1.719 0.675-0.729 0.289-1.23 0.491-0.679 0.273-0.664 0.269-0.65 0.265-0.637 0.262-0.626 0.259-0.616 0.257-0.759 0.32-0.6 0.255-0.595 0.255-0.591 0.255-0.481 0.209-0.56 0.245-0.655 0.289-0.411 0.183-0.406 0.182-0.402 0.181-0.398 0.181-0.588 0.27-0.387 0.179-0.383 0.178c-0.063 0.030-0.127 0.059-0.19 0.089l-0.376 0.177-0.372 0.177-0.367 0.176-0.363 0.175-0.359 0.175-0.355 0.174-0.35 0.174-0.346 0.173-0.342 0.173-0.169 0.086-0.335 0.172-0.331 0.171-0.327 0.171-0.162 0.085-0.321 0.17-0.316 0.17-0.312 0.169-0.308 0.168-0.304 0.168-0.15 0.084-0.298 0.167-0.293 0.167-0.289 0.166c-0.433 0.241-0.572 0.324-0.711 0.407l0.285-0.158-0.279 0.166-0.138 0.083-0.273 0.165c-0.045 0.027-0.090 0.055-0.135 0.082l-0.267 0.164c-0.22 0.137-0.436 0.273-0.648 0.409l-0.252 0.163-0.124 0.081-0.246 0.162c-0.379 0.25-0.612 0.409-0.842 0.572l0.129-0.086-0.229 0.161c-0.038 0.027-0.076 0.054-0.113 0.080l-0.223 0.161c-0.338 0.244-0.582 0.428-0.824 0.615l0.074-0.055c-1.073 0.827-1.654 1.732-1.874 2.77-0.124 0.585-0.139 1.153-0.061 1.904l0.016 0.148c0.003 0.025 0.006 0.050 0.009 0.076l0.020 0.155 0.022 0.161 0.024 0.166 0.013 0.085 0.027 0.175c0.030 0.189 0.168 0.383 0.464 0.588l0.091 0.063 0.058 0.039 0.056 0.037 0.055 0.035 0.054 0.032c0.009 0.005 0.018 0.010 0.027 0.015l0.053 0.029 0.027 0.014 0.053 0.026 0.054 0.024c0.164 0.071 0.341 0.116 0.581 0.143l0.082 0.008 0.087 0.007 0.093 0.006 0.099 0.005c0.017 0.001 0.034 0.001 0.051 0.002l0.108 0.003 0.115 0.002 0.122 0.001 0.149-0 0.119-0.001 0.257-0.004 0.284-0.006 0.814-0.023 0.893-0.029 0.626-0.024 0.423-0.019 0.262-0.013 0.307-0.018 0.341-0.022 0.315-0.024 0.197-0.017 0.234-0.023 0.179-0.020 0.173-0.021 0.167-0.022 0.123-0.017 0.16-0.024 0.119-0.019 0.155-0.027 0.078-0.014 0.191-0.038 0.39-0.082 3.424-0.747 2.519-0.529 1.064-0.228 0.756-0.164 0.962-0.212 0.806-0.181 0.671-0.154 0.657-0.153 2.137-0.504 2.307-0.55 2.113-0.509 2.413-0.587 9.518-2.339 46.275-11.413 1.65-0.368 28.112-6.174 3.536-0.747c0.278-0.058 0.555-0.115 0.832-0.171l0.356-0.072 0.343-0.068 0.315-0.061 0.317-0.061 0.533-0.1 0.542-0.099 0.664-0.118 0.452-0.079 0.462-0.078 0.592-0.098 0.611-0.099 0.503-0.080 0.518-0.081 0.669-0.103 0.554-0.084 0.718-0.107 0.902-0.132 0.787-0.113 1.162-0.165 7.768-1.074 0.193-0.023 0.316-0.035 0.314-0.033 0.382-0.037 0.337-0.031 0.215-0.018 0.271-0.021 0.192-0.014 0.183-0.012 0.117-0.007 0.113-0.006 0.162-0.007 0.103-0.003 0.1-0.002 0.096-0.001h0.092l0.089 0.001 0.085 0.002 0.041 0.001 0.080 0.004 0.039 0.002 0.075 0.005 0.036 0.003 0.070 0.007 0.067 0.008 0.064 0.009c0.042 0.007 0.081 0.014 0.119 0.022l0.055 0.013c0.018 0.004 0.036 0.009 0.053 0.014l0.050 0.015c0.016 0.006 0.032 0.011 0.047 0.017l0.045 0.018 0.021 0.010 0.041 0.020c0.198 0.104 0.304 0.257 0.354 0.467l0.009 0.043 0.004 0.022 0.007 0.045 0.013 0.101 0.002 0.011 0.005 0.021 0.010 0.038 0.051 0.172 0.004 0.013c0.093 0.337 0.069 0.617-0.164 0.886-0.609 0.702-1.191 1.184-2.082 1.637l-0.125 0.062-0.121 0.059-0.080 0.039-0.163 0.077-0.166 0.076-0.127 0.057-0.131 0.058-0.135 0.058-0.188 0.079-0.147 0.061-0.26 0.106-0.281 0.112-0.305 0.119-0.547 0.21-2.349 0.888-0.32 0.125-0.21 0.084-0.159 0.065-0.077 0.032c-0.103 0.042-0.204 0.085-0.308 0.129l-0.737 0.313-0.74 0.317-0.559 0.241-0.751 0.326-0.761 0.332-0.773 0.34-1.386 0.614-0.816 0.365-1.048 0.471-0.914 0.413-0.155 0.069-0.163 0.070-0.173 0.073-0.246 0.101-0.198 0.080-0.284 0.113-0.49 0.19-2.311 0.882-0.369 0.145-0.264 0.105-0.253 0.102-0.322 0.132-0.23 0.096-0.148 0.063-0.144 0.062-0.139 0.061-0.136 0.060-0.132 0.060-0.19 0.088-0.182 0.087-0.117 0.057-0.114 0.056-0.11 0.056-0.107 0.056-0.104 0.055-0.101 0.055-0.049 0.027-0.096 0.054-0.094 0.054-0.095 0.057-0.094 0.058-0.090 0.057-0.085 0.056-0.041 0.028-0.078 0.055c-0.038 0.027-0.074 0.054-0.108 0.080l-0.066 0.052c-0.021 0.017-0.042 0.034-0.061 0.051l-0.057 0.050c-0.217 0.196-0.321 0.359-0.316 0.475 0.004 0.084 0.068 0.182 0.201 0.288l0.042 0.032c0.022 0.016 0.046 0.033 0.071 0.049l0.053 0.033 0.057 0.034 0.061 0.034c0.021 0.012 0.043 0.023 0.066 0.035l0.070 0.035c0.012 0.006 0.024 0.012 0.036 0.018l0.077 0.035c0.026 0.012 0.053 0.024 0.081 0.035l0.086 0.036c0.015 0.006 0.030 0.012 0.045 0.018l0.093 0.036 0.098 0.036c0.033 0.012 0.067 0.024 0.102 0.036l0.107 0.037 0.112 0.036 0.058 0.018 0.018 0.005 0.040 0.010c0.007 0.002 0.015 0.003 0.022 0.005l0.049 0.009 0.055 0.009 0.029 0.004 0.063 0.008 0.069 0.007 0.075 0.007 0.124 0.009 0.137 0.008 0.099 0.005 0.16 0.007 0.481 0.014 0.147 0.004 0.298 0.006c0.055 0.001 0.16 0.003 0.266 0.004l0.341 0.003c0.051 0 0.102 0.001 0.154 0.001l0.31 0.001 0.313-0.001 0.315-0.003 0.316-0.004 0.318-0.006 0.318-0.007 0.319-0.009 0.159-0.005 0.318-0.011c0.106-0.004 0.212-0.008 0.317-0.012l0.473-0.021 0.313-0.016 0.311-0.017 0.308-0.019 0.304-0.020 0.3-0.021 0.296-0.023c0.049-0.004 0.098-0.008 0.146-0.012l0.289-0.025c0.238-0.021 0.471-0.043 0.697-0.067l0.267-0.029 0.131-0.015 0.257-0.030c0.126-0.015 0.25-0.031 0.37-0.048l0.244-0.034 0.406-0.059 0.534-0.081 0.508-0.079 0.749-0.12 0.939-0.154 0.802-0.134 1.411-0.239 2.070-0.357 2.033-0.355 3.476-0.616 5.909-1.063 17.628-3.188 0.748-0.123 0.751-0.122 0.751-0.119 0.562-0.088 0.56-0.086 0.557-0.084 0.919-0.136 0.544-0.079 0.892-0.126 0.351-0.048 0.519-0.070 0.509-0.067 0.498-0.063 0.325-0.040 0.32-0.039 0.469-0.055 0.454-0.051 0.295-0.032 0.288-0.030 0.264-0.027 0.474-0.047 0.447-0.043 0.422-0.038 0.4-0.034 0.381-0.030 0.184-0.014 0.268-0.019 0.174-0.011 0.171-0.010 0.168-0.010 0.165-0.008 0.244-0.011 0.239-0.009 0.158-0.005 0.234-0.006 0.155-0.003 0.232-0.002 0.155-0 0.155 0 0.156 0.001 0.236 0.003 0.239 0.005 0.162 0.005c0.264 0.008 0.495 0.117 0.547 0.392l0.008 0.047 0.005 0.020 0.008 0.024 0.011 0.030 0.022 0.058 0.040 0.1c0.19 0.473 0.172 0.837-0.244 1.168l-0.036 0.028-0.072 0.056-0.073 0.055c-0.012 0.009-0.025 0.018-0.037 0.027l-0.076 0.054-0.039 0.027-0.079 0.054-0.082 0.054-0.085 0.055-0.043 0.027-0.090 0.055-0.093 0.056-0.097 0.057-0.101 0.058-0.105 0.060-0.11 0.061-0.174 0.095-0.186 0.1-0.199 0.105-0.899 0.463-0.184 0.096-0.166 0.088-0.162 0.087-0.112 0.062-0.054 0.031-0.105 0.060-0.1 0.059-0.095 0.058-0.046 0.028-0.088 0.056-0.084 0.054-0.079 0.053-0.038 0.026-0.072 0.051c-0.012 0.008-0.023 0.017-0.035 0.025l-0.066 0.050c-0.011 0.008-0.021 0.016-0.031 0.024l-0.059 0.048c-0.227 0.189-0.35 0.353-0.38 0.499l-0.002 0.011 0.509 0.007 0.753 0.013 0.374 0.005 0.204 0.001h0.251l0.232-0.002 0.165-0.003 0.159-0.005 0.154-0.006 0.152-0.007 0.145-0.009 0.135-0.010 0.088-0.008 0.087-0.009 0.088-0.010 0.090-0.012 0.093-0.013 0.097-0.015 0.157-0.026 0.114-0.020 0.558-0.101 0.163-0.028 0.183-0.028 0.122 0.833-0.14 0.021-0.17 0.029-0.513 0.093-0.185 0.032-0.114 0.019-0.107 0.017-0.102 0.015-0.099 0.013-0.097 0.012-0.048 0.005-0.095 0.010-0.097 0.009-0.049 0.004-0.1 0.007-0.104 0.006-0.106 0.006-0.16 0.007-0.162 0.006-0.167 0.004-0.114 0.002-0.24 0.002-0.192 0-0.276-0.001-0.303-0.004-1.391-0.022c-0.033-0-0.064-0.001-0.095-0.002l0.006 0-0.085-0.004c-0.020-0.001-0.033-0.002-0.047-0.003l0.007 0c-0.045-0.003-0.086-0.008-0.127-0.015l0.007 0.001c-0.036-0.006-0.067-0.015-0.097-0.026l0.004 0.001c-0.035-0.013-0.064-0.028-0.092-0.046l0.002 0.001c-0.066-0.042-0.119-0.101-0.152-0.17l-0.001-0.002c-0.26-0.53-0.114-1.051 0.335-1.516 0.211-0.218 0.485-0.428 0.847-0.654l0.117-0.072c0.031-0.021 0.114-0.070 0.197-0.118l0.056-0.030 0.136-0.076 0.143-0.078 0.107-0.058 0.112-0.060 0.247-0.129 0.822-0.423 0.255-0.134 0.119-0.063 0.169-0.091 0.106-0.059 0.15-0.085 0.095-0.055 0.091-0.053 0.087-0.052 0.083-0.051 0.080-0.051 0.077-0.050 0.074-0.049 0.036-0.025 0.070-0.049 0.034-0.024 0.067-0.049 0.033-0.025 0.064-0.049 0.058-0.046c0.016-0.015 0.018-0.027 0.004-0.067l-0.011-0.027-0.081-0.2-0.011-0.029-0.138-0.003-0.231-0.004-0.228-0.002-0.227-0-0.151 0.001-0.227 0.003-0.228 0.005-0.231 0.007-0.156 0.006-0.157 0.007-0.24 0.011-0.246 0.014-0.253 0.016-0.261 0.018-0.179 0.013-0.37 0.029-0.389 0.033-0.306 0.027-0.428 0.040-0.571 0.055-0.373 0.037-0.27 0.028-0.418 0.045-0.286 0.032-0.292 0.034-0.297 0.036-0.302 0.037-0.463 0.058-0.473 0.061-0.483 0.064-0.491 0.066-0.499 0.069-0.337 0.047-0.854 0.123-0.519 0.076-0.699 0.105-0.528 0.081-0.53 0.082-0.709 0.112-0.709 0.114-0.55 0.090c-0.822 0.135-1.638 0.272-2.434 0.411l-0.812 0.143-24.954 4.516-2.083 0.363-1.593 0.274-1.433 0.242-1.051 0.174-0.74 0.12-0.58 0.092-0.358 0.056-0.299 0.046-0.486 0.072-0.346 0.050c-0.121 0.017-0.244 0.033-0.371 0.049l-0.258 0.032-0.265 0.030-0.272 0.029c-0.138 0.014-0.278 0.028-0.421 0.042l-0.288 0.026-0.294 0.025-0.149 0.012-0.301 0.023-0.152 0.011-0.462 0.031-0.313 0.019c-0.105 0.006-0.21 0.012-0.315 0.018l-0.318 0.016-0.32 0.015-0.321 0.013-0.484 0.018-0.323 0.010-0.323 0.008-0.161 0.003-0.322 0.006c-0.107 0.002-0.214 0.003-0.321 0.004l-0.319 0.003-0.317 0.001-0.315-0.001-0.312-0.002-0.308-0.004-0.304-0.006c-0.051-0.001-0.101-0.002-0.15-0.003l-0.579-0.017-0.124-0.005-0.117-0.005-0.111-0.006-0.105-0.006-0.099-0.007-0.093-0.008-0.088-0.008-0.082-0.010-0.077-0.010c-0.042-0.006-0.066-0.010-0.091-0.014l0.018 0.003-0.068-0.013c-0.022-0.004-0.043-0.009-0.064-0.014l-0.060-0.015c-0.030-0.008-0.048-0.013-0.067-0.019l0.011 0.003-0.067-0.021-0.13-0.042c-0.233-0.077-0.41-0.144-0.583-0.218l0.050 0.019-0.107-0.046c-0.821-0.363-1.248-0.795-1.271-1.343-0.025-0.606 0.453-1.134 1.344-1.684l0.109-0.066 0.098-0.058 0.101-0.058 0.103-0.058 0.106-0.058 0.109-0.058 0.112-0.058 0.115-0.059 0.118-0.059 0.184-0.089 0.127-0.060 0.131-0.061 0.134-0.061 0.209-0.093 0.218-0.095 0.15-0.065 0.233-0.099 0.161-0.067 0.25-0.102 0.172-0.070 0.359-0.143 0.282-0.111 0.294-0.114 2.529-0.967 0.284-0.112 0.198-0.079 0.245-0.1 0.171-0.072 0.161-0.069 0.152-0.067 0.097-0.043 2.122-0.955 0.813-0.363 0.796-0.353 0.974-0.429 0.765-0.335 0.755-0.328 0.561-0.242 0.743-0.319 0.555-0.236 0.487-0.206 0.275-0.114 0.242-0.098 0.347-0.137 0.502-0.193 0.755-0.285 0.982-0.369 0.568-0.216 0.376-0.146 0.285-0.113 0.263-0.106 0.196-0.081 0.185-0.078 0.261-0.113 0.125-0.055 0.122-0.055 0.197-0.092 0.155-0.074 0.116-0.057c0.805-0.398 1.312-0.805 1.851-1.416l0.052-0.060c0.007-0.008 0.011-0.013 0.008-0.030l-0.003-0.018-0.011-0.043-0.025-0.087-0.031-0.103-0.013-0.045-0.010-0.041-0.009-0.042-0.007-0.037-0.005-0.036-0.008-0.063-0.019-0.005-0.029-0.007-0.020-0.004-0.043-0.008c0.001-0-0.007-0.001-0.014-0.002l-0.008-0.001-0.048-0.006-0.053-0.005-0.057-0.005-0.060-0.004-0.065-0.003-0.069-0.002-0.073-0.001-0.117-0.001-0.041 0-0.086 0.001-0.090 0.002-0.144 0.005-0.154 0.007-0.164 0.009-0.175 0.011-0.186 0.013-0.265 0.021-0.14 0.012-0.21 0.019-0.383 0.036-0.373 0.038-0.31 0.034-0.38 0.044-0.466 0.058-0.43 0.056-0.634 0.087-2.442 0.348-3.057 0.422-2.008 0.284-2.12 0.31-0.752 0.114-0.721 0.111-0.556 0.088-0.673 0.108-0.392 0.064-0.637 0.107-0.373 0.064-0.488 0.085-0.36 0.064-0.473 0.086-0.234 0.043-0.348 0.065-0.573 0.11-0.455 0.089-0.566 0.114-0.227 0.046-0.354 0.074-2.918 0.615-5.555 1.192-7.584 1.662-20.675 4.611-0.639 0.154-9.539 2.347-49.478 12.212-2.101 0.494-0.778 0.179-0.685 0.155-0.587 0.131-0.852 0.187-0.764 0.166-0.937 0.2-1.14 0.241-1.619 0.339-3.629 0.789-0.185 0.036-0.14 0.025-0.201 0.033-0.204 0.031-0.21 0.029-0.173 0.021-0.133 0.015-0.183 0.019-0.19 0.018-0.199 0.017-0.208 0.017-0.332 0.023-0.236 0.014-0.379 0.021-0.412 0.020-0.448 0.018-0.748 0.027-0.919 0.028-0.35 0.009-0.258 0.005-0.296 0.004-0.165 0.001-0.156-0-0.147-0.002-0.093-0.002-0.090-0.003-0.086-0.003-0.083-0.004-0.080-0.005-0.115-0.008-0.073-0.006-0.070-0.007-0.068-0.008-0.066-0.009-0.064-0.010-0.061-0.011-0.060-0.012-0.058-0.012-0.056-0.013-0.055-0.014-0.054-0.015-0.052-0.016-0.051-0.017-0.051-0.019-0.050-0.020-0.049-0.021-0.049-0.022-0.048-0.023-0.048-0.024-0.072-0.039-0.073-0.041-0.049-0.029-0.074-0.046-0.051-0.032-0.104-0.069-0.081-0.055-0.028-0.019c-0.472-0.328-0.747-0.713-0.816-1.148l-0.015-0.095-0.028-0.185-0.026-0.179-0.023-0.174c0.006 0.057 0.002 0.028-0.002-0.001l-0.009-0.084-0.020-0.166c-0.102-0.897-0.092-1.573 0.061-2.293 0.262-1.237 0.954-2.315 2.184-3.263 0.241-0.189 0.563-0.43 0.89-0.665l0.1-0.069 0.231-0.164c0.144-0.107 0.419-0.296 0.695-0.483l0.146-0.093 0.25-0.165c0.196-0.137 0.578-0.384 0.965-0.625l0.209-0.122 0.272-0.167c0.137-0.084 0.276-0.167 0.416-0.251l0.282-0.168 0.287-0.168 0.291-0.168 0.295-0.169 0.149-0.085 0.301-0.17 0.305-0.17 0.309-0.17 0.314-0.171 0.318-0.171 0.322-0.172c0.108-0.057 0.217-0.115 0.326-0.172l0.33-0.173 0.167-0.087 0.507-0.261 0.343-0.174 0.347-0.175 0.352-0.175 0.356-0.176 0.36-0.176 0.364-0.177 0.369-0.178 0.373-0.178 0.377-0.179 0.382-0.179 0.386-0.18 0.39-0.181 0.395-0.181 0.399-0.182 0.403-0.182 0.408-0.183 0.412-0.184 0.416-0.185 0.37-0.163 0.477-0.209 0.467-0.204 0.469-0.203 0.627-0.27 0.632-0.269 0.478-0.202 0.482-0.203 0.487-0.204 0.659-0.274 0.502-0.207 0.681-0.279 0.52-0.212 0.708-0.286 0.726-0.291 0.557-0.222 0.762-0.302 0.784-0.309 1.014-0.398 1.056-0.412 1.1-0.427 1.384-0.534 1.71-0.656 2.090-0.798 8.189-3.098 0.92-0.34 0.714-0.261 0.616-0.223 0.501-0.18 0.499-0.178 0.464-0.164 0.833-0.291 0.407-0.14 0.288-0.097 0.349-0.115 0.483-0.156 0.67-0.212 0.953-0.296 2.106-0.649 0.776-0.243-17.326 2.429-1.892 0.277-2.551 0.382-1.677 0.257-3.38 0.528-2.947 0.467-7.103 1.151-30.298 5.047-0.594 0.11-0.499 0.096-0.479 0.095-0.35 0.072-0.121 0.025c-0.201 0.042-0.4 0.085-0.599 0.129l-0.239 0.053-3.161 0.712-1.501 0.343-1.604 0.37-1.979 0.462-3.359 0.795-2.538 0.608-21.044 5.093-0.195-0.819 1.857-0.444 26.859-6.467 3.707-0.851 1.571-0.355 1.688-0.376 0.485-0.103 0.432-0.088 0.316-0.063 0.259-0.050 0.468-0.089 0.349-0.065 0.588-0.106 0.55-0.097 0.765-0.131 1.037-0.173 0.945-0.155 3.95-0.641 29.775-4.932 2.418-0.384 4.923-0.767 1.48-0.225 1.15-0.172 2.981-0.436 2.102-0.301 6.813-0.956 8.692-1.194 0.286-0.030 0.307-0.031 0.597-0.056 0.283-0.025 0.088-0.007 0.049-0.003 0.101-0.005c0.033-0.001 0.066-0.003 0.096-0.003z"></path>
</svg>
