<!-- Generated by IcoMoon.io -->
<svg version="1.1" xmlns="http://www.w3.org/2000/svg" width="25" height="32" viewBox="0 0 25 32">
<title>icon-paid</title>
<path fill="#093f68" d="M24.023 31.96h-23.343c-0.375 0-0.679-0.305-0.679-0.681v-30.597c0-0.376 0.304-0.681 0.679-0.681h23.343c0.376 0 0.679 0.305 0.679 0.682v30.596c0 0.001 0 0.002 0 0.003 0 0.375-0.304 0.678-0.678 0.678-0 0-0.001 0-0.001 0h0zM1.359 30.596h21.984v-29.232h-21.985v29.233z"></path>
<path fill="#093f68" d="M18.403 28.58h-14.237c-0.235-0.002-0.441-0.122-0.562-0.304l-0.002-0.003c-0.070-0.106-0.112-0.236-0.112-0.375 0-0.093 0.019-0.182 0.052-0.263l-0.002 0.005 7.115-17.459c0.104-0.249 0.346-0.421 0.628-0.421s0.524 0.172 0.627 0.417l0.002 0.004 7.122 17.459c0.083 0.21 0.058 0.447-0.068 0.634-0.123 0.185-0.329 0.305-0.564 0.307h-0zM5.179 27.216h12.232l-6.116-14.998-6.116 14.998z"></path>
<path fill="#093f68" d="M19.967 15.094h-12.354c-0.375 0-0.679-0.305-0.679-0.682v-10.171c0-0.377 0.304-0.682 0.679-0.682h12.354c0.376 0 0.679 0.305 0.679 0.681v10.172c0 0.377-0.304 0.682-0.679 0.682zM8.319 13.73h10.969v-8.807h-10.995l0.027 8.807z"></path>
</svg>
