<!-- Generated by IcoMoon.io -->
<svg version="1.1" xmlns="http://www.w3.org/2000/svg" width="32" height="32" viewBox="0 0 32 32">
<title>icon-free</title>
<path fill="#3ee9e5" d="M30.909 19.967h-18.226c-0.458 0-0.829-0.373-0.829-0.832v-18.303c0-0.459 0.371-0.832 0.828-0.832h18.226c0.458 0 0.829 0.372 0.829 0.832v18.303c0 0.46-0.371 0.833-0.829 0.833zM13.511 18.303h16.57v-16.641h-16.569v16.64z"></path>
<path fill="#3ee9e5" d="M10.886 31.619c-6.006 0.006-10.879-4.878-10.886-10.909s4.853-10.927 10.858-10.938c6.006-0.010 10.883 4.868 10.897 10.899 0 0.008 0 0.018 0 0.028 0 3.007-1.212 5.731-3.175 7.709l0.001-0.001c-1.965 1.98-4.686 3.207-7.694 3.211h-0.001zM10.886 11.444c-3.829 0-7.113 2.334-8.506 5.657l-0.023 0.061c-0.444 1.046-0.701 2.263-0.701 3.54 0 2.56 1.036 4.878 2.711 6.558l-0-0c1.665 1.67 3.967 2.703 6.51 2.703 1.282 0 2.502-0.262 3.61-0.736l-0.060 0.023c3.446-1.443 5.685-4.831 5.672-8.579-0.023-5.096-4.138-9.217-9.213-9.226z"></path>
</svg>
