<!-- Generated by IcoMoon.io -->
<svg version="1.1" xmlns="http://www.w3.org/2000/svg" width="28" height="32" viewBox="0 0 28 32">
<title>illustration-hero-left</title>
<path fill="#080c20" d="M19.305 13.207c-0.089-1.044-0.046-1.554-0.157-1.899-0.256-0.205-1.208-0.756-2.005-1.178-0.143-0.077-0.249-0.205-0.297-0.359l-0.001-0.004c-0.017-0.054-0.027-0.115-0.027-0.179 0-0.106 0.027-0.205 0.074-0.292l-0.002 0.003c0.157-0.299 0.359-0.030 0.659 0.129 0.949 0.506 2.314 0.789 2.576 1.123 0.296 0.376 0.214 2.865 0.214 2.865l-1.034-0.209z"></path>
<path fill="#093f68" d="M20.337 13.493c-0.002 0-0.005 0.001-0.008 0.001s-0.006-0-0.008-0.001l0 0-1.031-0.207c-0.034-0.007-0.060-0.036-0.063-0.070l-0-0c-0.037-0.422-0.051-0.758-0.064-1.028-0.016-0.381-0.027-0.637-0.085-0.83-0.285-0.218-1.235-0.764-1.975-1.158-0.337-0.18-0.465-0.599-0.286-0.937 0.035-0.081 0.102-0.143 0.185-0.169l0.002-0.001c0.124-0.031 0.243 0.050 0.381 0.143 0.065 0.044 0.132 0.085 0.201 0.122 0.427 0.227 0.941 0.411 1.4 0.573 0.584 0.207 1.044 0.371 1.202 0.57 0.304 0.388 0.235 2.659 0.231 2.917-0.001 0.023-0.012 0.045-0.030 0.059-0.013 0.010-0.030 0.017-0.048 0.017-0.001 0-0.003-0-0.004-0h0zM19.379 13.141l0.881 0.178c0.028-0.991 0-2.47-0.199-2.721-0.129-0.164-0.616-0.337-1.131-0.52-0.461-0.164-0.984-0.35-1.421-0.582-0.084-0.046-0.153-0.090-0.219-0.137l0.008 0.005c-0.102-0.070-0.199-0.135-0.256-0.121-0.028 0.007-0.057 0.038-0.086 0.091-0.138 0.261-0.039 0.585 0.221 0.725 0.78 0.415 1.747 0.972 2.017 1.188 0.012 0.009 0.021 0.022 0.026 0.037 0.071 0.217 0.083 0.486 0.1 0.895 0.012 0.256 0.025 0.572 0.058 0.963z"></path>
<path fill="#080c20" d="M19.305 13.207v1.235s1.874 0.36 1.726 0.079c-0.148-0.281-0.742-0.44-0.742-0.44l0.049-0.669-1.033-0.205z"></path>
<path fill="#093f68" d="M20.723 14.704c-0.263 0-0.701-0.045-1.43-0.185-0.036-0.007-0.064-0.039-0.064-0.077 0-0.001 0-0.001 0-0.002v0-1.234c-0-0.024 0.011-0.046 0.029-0.061s0.042-0.020 0.065-0.016l1.031 0.207c0.039 0.008 0.066 0.044 0.063 0.083l-0.045 0.606c0.163 0.051 0.594 0.208 0.729 0.459 0.011 0.018 0.018 0.040 0.018 0.064 0 0.027-0.009 0.052-0.024 0.073l0-0c-0.031 0.043-0.122 0.081-0.373 0.081zM19.39 14.378c0.657 0.123 1.394 0.212 1.562 0.157-0.129-0.193-0.53-0.337-0.679-0.378-0.034-0.009-0.058-0.040-0.058-0.076 0-0.001 0-0.002 0-0.003v0l0.044-0.6-0.869-0.175v1.074z"></path>
<path fill="#080c20" d="M18.313 5.798s0.956 1.223 1.187 1.178c0.231-0.045 0.896-0.488 1.245-0.635 0.559-0.236 1.441-0.123 1.201 0.079s-0.173 0.016-0.173 0.016c-1.3 0.857-2.196 1.414-2.309 1.404-0.562-0.029-1.614-1.079-1.614-1.079l0.463-0.963z"></path>
<path fill="#093f68" d="M19.468 7.918h-0.008c-0.585-0.031-1.622-1.059-1.666-1.1-0.014-0.014-0.023-0.034-0.023-0.056 0-0.013 0.003-0.025 0.008-0.035l-0 0 0.463-0.961c0.013-0.026 0.040-0.044 0.071-0.044 0.025 0 0.047 0.012 0.062 0.030l0 0c0.433 0.554 0.981 1.151 1.111 1.151 0.115-0.022 0.398-0.181 0.647-0.323 0.156-0.095 0.346-0.197 0.542-0.29l0.039-0.017c0.454-0.19 1.212-0.181 1.333 0.016 0.012 0.020 0.019 0.045 0.019 0.071 0 0.051-0.028 0.096-0.069 0.121l-0.001 0c-0.11 0.090-0.197 0.141-0.267 0.091l-0.009-0.007c-1.975 1.297-2.192 1.352-2.253 1.352zM17.945 6.74c0.195 0.189 1.057 0.994 1.524 1.021 0.041-0.006 0.341-0.125 2.26-1.392 0.028-0.020 0.065-0.020 0.093 0 0.008 0.008 0.015 0.016 0.021 0.026 0.014-0.010 0.031-0.024 0.053-0.041-0.11-0.069-0.682-0.125-1.123 0.060-0.147 0.062-0.358 0.182-0.563 0.298-0.285 0.161-0.555 0.314-0.698 0.341-0.078 0.015-0.356-0.066-1.184-1.11l-0.382 0.796z"></path>
<path fill="#080c20" d="M14.668 13.256h3.462v0.545h-3.462z"></path>
<path fill="#093f68" d="M18.13 13.881h-3.462c-0.043-0-0.078-0.035-0.078-0.079 0-0 0-0 0-0v0-0.55c0-0.043 0.035-0.079 0.078-0.079h3.462c0.043 0 0.078 0.035 0.078 0.079v0.55c0 0.043-0.035 0.079-0.078 0.079zM14.747 13.724h3.305v-0.393h-3.305v0.393z"></path>
<path fill="#080c20" d="M14.5 14.637h-0.176c-0.091-0-0.165-0.074-0.165-0.165 0-0.013 0.001-0.025 0.004-0.037l-0 0.001 0.863-3.932h0.514l-0.875 4.006c-0.018 0.074-0.084 0.128-0.162 0.128-0.001 0-0.002 0-0.003-0h0z"></path>
<path fill="#093f68" d="M14.5 14.715h-0.176c-0.074 0-0.144-0.033-0.19-0.091-0.034-0.041-0.054-0.094-0.054-0.152 0-0.019 0.002-0.037 0.006-0.055l-0 0.002 0.863-3.933c0.008-0.036 0.039-0.062 0.077-0.062 0.001 0 0.001 0 0.002 0h0.514c0.043 0 0.078 0.035 0.078 0.079 0 0.006-0.001 0.012-0.002 0.018l0-0.001-0.874 4.006c-0.026 0.109-0.122 0.189-0.238 0.189-0.002 0-0.004-0-0.006-0h0zM15.085 10.582l-0.846 3.871c-0.001 0.006-0.002 0.012-0.002 0.019 0 0.048 0.039 0.086 0.086 0.086 0 0 0 0 0 0h0.176c0 0 0 0 0 0 0.041 0 0.076-0.029 0.084-0.068l0-0.001 0.853-3.908h-0.353z"></path>
<path fill="#080c20" d="M18.341 14.637h0.175c0.091-0 0.165-0.074 0.165-0.166 0-0.012-0.001-0.025-0.004-0.036l0 0.001-0.856-3.932h-0.518l0.875 4.006c0.018 0.074 0.084 0.127 0.162 0.127 0 0 0 0 0.001 0h-0z"></path>
<path fill="#093f68" d="M18.515 14.715h-0.175c-0.115-0.002-0.21-0.082-0.235-0.19l-0-0.002-0.875-4.006c-0.001-0.005-0.002-0.011-0.002-0.017 0-0.043 0.035-0.078 0.078-0.079h0.515c0 0 0.001-0 0.002-0 0.038 0 0.069 0.026 0.077 0.062l0 0.001 0.859 3.933c0.004 0.016 0.006 0.034 0.006 0.053 0 0.058-0.020 0.11-0.053 0.152l0-0.001c-0.044 0.056-0.112 0.091-0.188 0.092h-0l-0.008 0.002zM17.402 10.582l0.853 3.908c0.009 0.039 0.044 0.068 0.085 0.068 0 0 0 0 0 0h0.175c0 0 0 0 0.001 0 0.048 0 0.086-0.039 0.086-0.086 0-0.007-0.001-0.013-0.002-0.020l0 0.001-0.845-3.871h-0.353z"></path>
<path fill="#080c20" d="M14.273 10.22h3.585c0.085 0 0.154 0.069 0.154 0.154v0.258c0 0.085-0.069 0.154-0.154 0.154h-3.585c-0.085 0-0.154-0.069-0.154-0.154v-0.258c0-0.085 0.069-0.154 0.154-0.154z"></path>
<path fill="#093f68" d="M17.839 10.865h-3.547c-0.139-0-0.252-0.113-0.252-0.252 0-0 0-0 0-0v0-0.219c0-0.139 0.113-0.252 0.252-0.253h3.547c0.139 0.001 0.252 0.114 0.252 0.253 0 0 0 0 0 0v0 0.219c0 0.067-0.026 0.131-0.074 0.178-0.046 0.046-0.108 0.074-0.178 0.074v0zM14.292 10.298c-0.053 0-0.095 0.043-0.095 0.096 0 0 0 0 0 0v0 0.219c0 0.053 0.043 0.095 0.095 0.095h3.547c0.052 0 0.095-0.043 0.095-0.095v-0.219c0-0.053-0.042-0.095-0.095-0.096h-3.547z"></path>
<path fill="#080c20" d="M18.989 13.207c-0.090-1.044-0.046-1.554-0.157-1.899-0.256-0.205-1.208-0.756-2.005-1.178-0.296-0.161-0.407-0.53-0.249-0.828s0.526-0.412 0.825-0.257c0.95 0.505 2.144 1.172 2.406 1.506 0.296 0.376 0.214 2.865 0.214 2.865l-1.034-0.209z"></path>
<path fill="#093f68" d="M20.017 13.493c-0.002 0-0.005 0.001-0.008 0.001s-0.006-0-0.008-0.001l0 0-1.031-0.207c-0.034-0.007-0.059-0.036-0.062-0.070l-0-0c-0.037-0.422-0.052-0.758-0.064-1.028-0.016-0.381-0.027-0.637-0.085-0.83-0.285-0.218-1.235-0.764-1.975-1.158-0.337-0.18-0.465-0.599-0.286-0.937 0.18-0.337 0.598-0.465 0.936-0.287 1.423 0.757 2.218 1.257 2.431 1.527 0.304 0.388 0.235 2.659 0.23 2.917 0 0.043-0.035 0.079-0.078 0.079l0.001-0.005zM19.059 13.141l0.882 0.178c0.028-0.991 0-2.47-0.199-2.721s-0.998-0.749-2.382-1.485c-0.073-0.039-0.159-0.063-0.251-0.063-0.105 0-0.203 0.030-0.286 0.083l0.002-0.001c-0.152 0.096-0.251 0.264-0.251 0.454 0 0.007 0 0.013 0 0.020l-0-0.001c0.007 0.196 0.119 0.365 0.281 0.453l0.003 0.001c0.78 0.415 1.747 0.972 2.017 1.188 0.012 0.009 0.021 0.022 0.026 0.037 0.071 0.217 0.082 0.486 0.1 0.895 0.014 0.256 0.028 0.572 0.060 0.963h-0.003z"></path>
<path fill="#080c20" d="M19.704 6.86c-0.353-0.137-1.515-1.292-1.631-1.348l-0.055-0.026c-0.345-0.158-0.748-0.288-1.168-0.369l-0.034-0.005c-0.487-0.079-0.995-0.056-1.278 0.277-0.658 0.775-0.689 3.036-0.689 3.036l3.003 0.55c0.177-0.491 0.34-1.090 0.458-1.704l0.013-0.079c0.352 0.295 0.824 0.635 1.14 0.651l0.24-0.982z"></path>
<path fill="#093f68" d="M17.85 9.050h-0.014l-3.003-0.55c-0.037-0.007-0.064-0.039-0.064-0.077 0-0 0-0.001 0-0.001v0c0-0.093 0.038-2.298 0.706-3.085 0.259-0.306 0.713-0.408 1.35-0.303 0.461 0.087 0.871 0.219 1.256 0.394l-0.034-0.014c0.038 0.016 0.058 0.027 0.058 0.027 0.044 0.021 0.146 0.112 0.424 0.366 0.392 0.356 0.98 0.894 1.199 0.979 0.037 0.014 0.057 0.054 0.048 0.092l-0.235 0.979c-0.009 0.035-0.040 0.060-0.076 0.060-0.001 0-0.002 0-0.002-0h0c-0.254-0.013-0.619-0.21-1.083-0.584-0.134 0.656-0.29 1.214-0.481 1.755l0.028-0.091c-0.011 0.031-0.040 0.053-0.074 0.053-0 0-0.001 0-0.001 0h0zM14.927 8.359l2.871 0.523c0.167-0.468 0.322-1.041 0.436-1.629l0.012-0.078c0.006-0.037 0.039-0.065 0.077-0.065 0.020 0 0.038 0.007 0.051 0.019l-0-0c0.433 0.361 0.794 0.58 1.031 0.624l0.206-0.849c-0.273-0.147-0.796-0.624-1.186-0.979-0.173-0.157-0.353-0.322-0.388-0.342l-0.052-0.024c-0.34-0.157-0.737-0.284-1.15-0.364l-0.033-0.005c-0.579-0.095-0.984-0.011-1.205 0.25-0.571 0.672-0.657 2.543-0.669 2.919z"></path>
<path fill="#093f68" d="M18.34 7.101h-0.016c-0.036-0.008-0.063-0.039-0.063-0.077 0-0.006 0.001-0.011 0.002-0.016l-0 0 0.157-0.748c0.008-0.037 0.040-0.064 0.078-0.064 0.044 0 0.080 0.036 0.080 0.080 0 0.006-0.001 0.011-0.002 0.016l0-0.001-0.157 0.749c-0.008 0.037-0.042 0.063-0.080 0.061zM16.765 6.566c-0.007 0.001-0.014 0.001-0.021 0-0.034-0.009-0.058-0.040-0.058-0.076 0-0.007 0.001-0.015 0.003-0.021l-0 0.001c0.116-0.422 0.047-1.335 0.046-1.348-0-0.003-0.001-0.007-0.001-0.010 0-0.043 0.035-0.079 0.079-0.079s0.078 0.034 0.079 0.077v0c0 0.039 0.072 0.954-0.052 1.401-0.010 0.032-0.040 0.055-0.075 0.055-0 0-0 0-0 0h0zM17.85 6.995c-0.010-0-0.020-0.002-0.029-0.006l0.001 0c-0.030-0.012-0.051-0.040-0.051-0.073 0-0.010 0.002-0.020 0.005-0.028l-0 0.001c0.114-0.313 0.18-0.675 0.18-1.052 0-0.119-0.007-0.237-0.019-0.353l0.001 0.014c-0-0.003-0.001-0.007-0.001-0.011 0-0.043 0.035-0.078 0.078-0.078 0.040 0 0.072 0.029 0.078 0.067l0 0c0.013 0.11 0.021 0.238 0.021 0.367 0 0.395-0.070 0.773-0.198 1.123l0.007-0.023c-0.011 0.031-0.040 0.051-0.073 0.051z"></path>
<path fill="#080c20" d="M16.235 0.136c-0.403-0.084-0.831 0.057-1.157 0.299-0.253 0.189-0.471 0.471-0.443 0.777 0.021 0.145 0.064 0.285 0.128 0.416 0.054 0.107 0.086 0.234 0.086 0.368 0 0.020-0.001 0.040-0.002 0.059l0-0.003c-0.017 0.153-0.131 0.275-0.278 0.304l-0.002 0c0.136 0.093 0.304 0.149 0.485 0.149 0.065 0 0.127-0.007 0.188-0.021l-0.006 0.001c0.232-0.054 0.423-0.201 0.536-0.397l0.002-0.004c0.026-0.071 0.073-0.13 0.133-0.17l0.001-0.001c0.032-0.013 0.066-0.021 0.101-0.023 0.258-0.021 0.491-0.114 0.683-0.258l-0.003 0.002c0.587-0.48 0.247-1.353-0.451-1.501z"></path>
<path fill="#093f68" d="M15.051 2.587c-0.196-0-0.377-0.061-0.527-0.164l0.003 0.002c-0.021-0.014-0.034-0.038-0.034-0.065 0-0.007 0.001-0.013 0.002-0.019l-0 0.001c0.008-0.032 0.034-0.055 0.067-0.059 0.113-0.026 0.198-0.119 0.212-0.234l0-0.001c0.007-0.133-0.020-0.265-0.078-0.384l-0.021-0.051c-0.056-0.114-0.096-0.247-0.114-0.386l-0.001-0.006c-0.023-0.295 0.15-0.603 0.475-0.845 0.373-0.278 0.829-0.393 1.22-0.314 0.385 0.082 0.685 0.371 0.783 0.743l0.002 0.007c0.017 0.064 0.027 0.137 0.027 0.213 0 0.272-0.126 0.514-0.323 0.672l-0.002 0.001c-0.2 0.153-0.448 0.253-0.718 0.274l-0.005 0c-0.029 0.001-0.055 0.007-0.080 0.016l0.002-0.001c-0.036 0.029-0.064 0.068-0.078 0.112l-0 0.002-0.015 0.028c-0.125 0.221-0.334 0.381-0.583 0.439l-0.006 0.001c-0.068 0.014-0.136 0.020-0.205 0.019zM14.748 2.37c0.089 0.038 0.192 0.059 0.301 0.059 0.060 0 0.119-0.007 0.175-0.019l-0.005 0.001c0.21-0.049 0.383-0.181 0.484-0.358l0.002-0.004 0.013-0.026c0.032-0.076 0.086-0.138 0.155-0.178l0.002-0.001c0.035-0.015 0.076-0.026 0.119-0.029l0.001-0c0.244-0.017 0.465-0.103 0.647-0.238l-0.003 0.002c0.164-0.129 0.268-0.327 0.268-0.55 0-0.063-0.008-0.124-0.024-0.182l0.001 0.005c-0.082-0.322-0.338-0.569-0.66-0.636l-0.006-0.001c-0.347-0.072-0.756 0.034-1.094 0.285-0.133 0.099-0.439 0.366-0.413 0.707 0.016 0.119 0.051 0.235 0.104 0.343l0.021 0.052c0.058 0.116 0.091 0.252 0.091 0.397 0 0.024-0.001 0.048-0.003 0.072l0-0.003c-0.019 0.124-0.084 0.229-0.176 0.302l-0.001 0.001z"></path>
<path fill="#080c20" d="M17.246 0.265c-0.075-0.016-0.16-0.025-0.248-0.025-0.243 0-0.47 0.071-0.661 0.192l0.005-0.003c-0.264 0.172-0.468 0.417-0.585 0.706l-0.004 0.010c-0.061 0.136-0.096 0.295-0.096 0.462 0 0.031 0.001 0.062 0.004 0.092l-0-0.004c0.016 0.188 0.107 0.362 0.252 0.483 0.042 0.038 0.096 0.062 0.156 0.065l0.001 0c0.042-0.003 0.080-0.014 0.115-0.031l-0.002 0.001c0.548-0.238 0.992-0.628 1.291-1.117l0.007-0.012c0.178-0.298 0.161-0.73-0.235-0.818z"></path>
<path fill="#093f68" d="M16.067 2.324c-0.078-0.002-0.148-0.032-0.203-0.079l0 0c-0.158-0.132-0.262-0.322-0.281-0.537l-0-0.003c-0.002-0.029-0.004-0.063-0.004-0.097 0-0.177 0.037-0.345 0.104-0.497l-0.003 0.008c0.127-0.315 0.342-0.573 0.614-0.749l0.006-0.004c0.197-0.126 0.437-0.201 0.695-0.201 0.094 0 0.186 0.010 0.275 0.029l-0.009-0.002c0.163 0.030 0.295 0.137 0.359 0.282l0.001 0.003c0.027 0.073 0.042 0.158 0.042 0.246 0 0.151-0.045 0.291-0.122 0.408l0.002-0.003c-0.314 0.516-0.77 0.917-1.315 1.154l-0.019 0.007c-0.041 0.020-0.090 0.034-0.141 0.037l-0.001 0-0.002-0.003zM17.001 0.317c-0.229 0.002-0.442 0.068-0.622 0.182l0.005-0.003c-0.25 0.162-0.443 0.395-0.553 0.669l-0.003 0.010c-0.057 0.126-0.090 0.274-0.090 0.429 0 0.029 0.001 0.058 0.003 0.086l-0-0.004c0.014 0.174 0.096 0.327 0.22 0.432l0.001 0.001c0.028 0.026 0.066 0.044 0.107 0.048l0.001 0c0.029-0.003 0.057-0.012 0.083-0.025 0.533-0.231 0.965-0.611 1.254-1.088l0.007-0.012c0.060-0.091 0.096-0.202 0.096-0.322 0-0.067-0.011-0.131-0.032-0.19l0.001 0.004c-0.045-0.101-0.137-0.175-0.247-0.194l-0.002-0c-0.066-0.015-0.141-0.023-0.219-0.023-0.003 0-0.007 0-0.010 0h0z"></path>
<path fill="#080c20" d="M17.843 0.343c0.362 0.012 0.692 0.141 0.894 0.451 0.235-0.112 0.5 0.064 0.667 0.26 0.305 0.36 0.495 0.827 0.506 1.338l0 0.002c0.011 0.642-0.274 1.265-0.696 1.748-0.223 0.262-0.495 0.475-0.803 0.627l-0.015 0.006c-0.205 0.1-0.446 0.159-0.701 0.159-0.113 0-0.223-0.011-0.329-0.033l0.011 0.002c-0.96-0.213-1.545-1.395-1.655-2.291-0.151-1.261 0.856-2.309 2.121-2.268z"></path>
<path fill="#093f68" d="M17.687 5.014c-0.001 0-0.002 0-0.003 0-0.113 0-0.224-0.013-0.33-0.037l0.010 0.002c-0.953-0.211-1.595-1.372-1.716-2.356-0.011-0.081-0.018-0.174-0.018-0.269 0-0.538 0.207-1.029 0.545-1.395l-0.001 0.001c0.396-0.429 0.962-0.697 1.59-0.697 0.029 0 0.058 0.001 0.087 0.002l-0.004-0c0.402 0.013 0.718 0.163 0.921 0.434 0.256-0.079 0.523 0.101 0.697 0.305 0.318 0.373 0.515 0.858 0.525 1.388l0 0.002c0.011 0.622-0.244 1.261-0.716 1.8-0.23 0.272-0.512 0.492-0.83 0.648l-0.015 0.007c-0.217 0.103-0.472 0.163-0.741 0.165h-0.001zM17.774 0.421c-0.004-0-0.009-0-0.013-0-0.581 0-1.105 0.248-1.47 0.644l-0.001 0.001c-0.311 0.337-0.501 0.789-0.501 1.285 0 0.088 0.006 0.175 0.018 0.261l-0.001-0.010c0.114 0.932 0.711 2.028 1.594 2.223 0.090 0.019 0.194 0.029 0.3 0.029 0.242 0 0.471-0.056 0.675-0.155l-0.009 0.004c0.312-0.153 0.576-0.359 0.788-0.61l0.003-0.003c0.446-0.51 0.687-1.111 0.677-1.694-0.012-0.494-0.194-0.944-0.49-1.294l0.003 0.003c-0.143-0.169-0.38-0.333-0.573-0.24-0.010 0.005-0.021 0.008-0.034 0.008-0.027 0-0.051-0.014-0.065-0.035l-0-0c-0.216-0.328-0.571-0.407-0.831-0.415l-0.067-0.001z"></path>
<path fill="#080c20" d="M17.271 5.059l0.439 0.087c0.022 0.004 0.036 0.025 0.032 0.047l-0.044 0.221c-0.025 0.123-0.132 0.214-0.26 0.214-0.018 0-0.036-0.002-0.053-0.005l0.002 0c-0.123-0.025-0.214-0.132-0.214-0.26 0-0.018 0.002-0.036 0.005-0.053l-0 0.002 0.044-0.221c0.004-0.019 0.020-0.032 0.039-0.032 0.003 0 0.005 0 0.008 0.001l-0-0 0.002 0z"></path>
<path fill="#093f68" d="M17.442 5.706c-0.001 0-0.003 0-0.004 0-0.022 0-0.044-0.002-0.065-0.007l0.002 0c-0.159-0.032-0.277-0.171-0.277-0.337 0-0.023 0.002-0.046 0.007-0.068l-0 0.002 0.044-0.221c0.005-0.032 0.023-0.061 0.050-0.079s0.058-0.024 0.089-0.018l0.442 0.088c0.032 0.005 0.061 0.023 0.078 0.050s0.024 0.058 0.018 0.089l-0.044 0.221c-0.032 0.159-0.17 0.276-0.336 0.277h-0l-0.003 0.003zM17.294 5.143l-0.036 0.183c-0.009 0.049 0.001 0.099 0.028 0.141 0.027 0.040 0.069 0.069 0.117 0.078l0.001 0c0.011 0.002 0.023 0.003 0.036 0.003 0.039 0 0.075-0.012 0.105-0.032l-0.001 0c0.040-0.027 0.069-0.069 0.078-0.117l0-0.001 0.036-0.184-0.365-0.071z"></path>
<path fill="#080c20" d="M19.097 3.726c0.215 0.042 0.351 0.272 0.303 0.513s-0.261 0.402-0.476 0.359c-0.215-0.043-0.351-0.272-0.303-0.513s0.261-0.402 0.476-0.359z"></path>
<path fill="#093f68" d="M18.998 4.683c-0.030-0-0.060-0.003-0.088-0.009l0.003 0c-0.132-0.026-0.241-0.106-0.306-0.216l-0.001-0.002c-0.046-0.080-0.073-0.175-0.073-0.277 0-0.179 0.083-0.338 0.213-0.44l0.001-0.001c0.076-0.060 0.173-0.096 0.278-0.096 0.030 0 0.060 0.003 0.088 0.009l-0.003-0c0.257 0.051 0.421 0.323 0.365 0.606-0.027 0.136-0.1 0.252-0.203 0.332l-0.001 0.001c-0.075 0.058-0.17 0.093-0.273 0.095h-0zM19.030 3.798c-0.066 0.001-0.131 0.023-0.183 0.064-0.093 0.075-0.153 0.189-0.153 0.316 0 0.072 0.019 0.141 0.053 0.199l-0.001-0.002c0.050 0.091 0.145 0.151 0.254 0.151 0.069 0 0.133-0.024 0.183-0.065l-0.001 0c0.074-0.057 0.126-0.139 0.145-0.233l0-0.003c0.039-0.198-0.070-0.386-0.241-0.42-0.017-0.005-0.037-0.007-0.058-0.008h0.003z"></path>
<path fill="#080c20" d="M17.368 5.313c-0.854-0.17-1.412-1.377-1.245-2.22l0.188 0.118 0.111-0.598s2.156-0.145 2.118-0.671l0.863 0.603-0.3 1.524c-0.173 0.842-0.879 1.412-1.734 1.243z"></path>
<path fill="#093f68" d="M17.669 5.421c-0.111-0-0.22-0.012-0.324-0.033l0.011 0.002c-0.898-0.178-1.478-1.441-1.307-2.312 0.005-0.025 0.022-0.047 0.045-0.057s0.051-0.008 0.073 0.006l0.090 0.057 0.089-0.484c0.006-0.036 0.036-0.062 0.072-0.064 0.471-0.031 1.738-0.179 2.001-0.485 0.025-0.025 0.040-0.058 0.040-0.096 0-0.002-0-0.004-0-0.006v0c-0-0.003-0.001-0.007-0.001-0.010 0-0.043 0.035-0.079 0.079-0.079 0.017 0 0.033 0.005 0.046 0.015l-0-0 0.863 0.603c0.025 0.018 0.038 0.048 0.032 0.079l-0.3 1.523c-0.165 0.82-0.773 1.342-1.508 1.342zM17.384 5.235c0.784 0.157 1.47-0.342 1.635-1.178l0.293-1.476-0.722-0.506c-0.015 0.030-0.032 0.056-0.051 0.079l0-0.001c-0.328 0.381-1.706 0.509-2.049 0.535l-0.1 0.538c-0.005 0.026-0.022 0.047-0.045 0.057l-0 0c-0.024 0.011-0.051 0.009-0.073-0.005l-0.088-0.055c-0.118 0.929 0.549 1.885 1.202 2.012l-0.002-0.002z"></path>
<path fill="#093f68" d="M17.35 3.379c0.078 0.015 0.128 0.091 0.113 0.169s-0.091 0.129-0.169 0.113c-0.078-0.015-0.128-0.091-0.113-0.169s0.091-0.129 0.169-0.113z"></path>
<path fill="#093f68" d="M18.823 3.789c0 0.079-0.064 0.144-0.144 0.144s-0.144-0.064-0.144-0.144c0-0.079 0.064-0.144 0.144-0.144s0.144 0.064 0.144 0.144z"></path>
<path fill="#093f68" d="M18.096 4.102c-0.090-0.004-0.174-0.023-0.252-0.054l0.005 0.002c-0.030-0.012-0.050-0.040-0.050-0.073 0-0.043 0.035-0.079 0.079-0.079 0.010 0 0.020 0.002 0.029 0.005l-0.001-0c0.049 0.019 0.106 0.033 0.165 0.040l0.003 0c-0.006-0.114-0.026-0.221-0.059-0.323l0.002 0.009c-0.002-0.007-0.003-0.014-0.003-0.022 0-0.043 0.035-0.079 0.079-0.079 0.006 0 0.013 0.001 0.019 0.002l-0.001-0c0.027 0.006 0.049 0.027 0.057 0.054 0.049 0.166 0.093 0.382 0.032 0.471-0.019 0.027-0.050 0.046-0.085 0.047h-0l-0.019-0.001zM17.655 3.263c-0.005 0.001-0.011 0.001-0.017 0.001s-0.012-0-0.018-0.001l0.001 0-0.67-0.145c-0.070-0.017-0.121-0.079-0.121-0.153 0-0.087 0.070-0.157 0.157-0.157 0.011 0 0.021 0.001 0.031 0.003l-0.001-0 0.671 0.145c0.080 0.009 0.141 0.076 0.141 0.157 0 0.006-0 0.012-0.001 0.017l0-0.001c-0.009 0.080-0.076 0.141-0.157 0.141-0.006 0-0.011-0-0.017-0.001l0.001 0v-0.007zM18.931 3.427h-0.016l-0.682-0.071c-0.080-0.008-0.142-0.075-0.142-0.157 0-0.006 0-0.011 0.001-0.016l-0 0.001c0.008-0.080 0.075-0.142 0.157-0.142 0.006 0 0.011 0 0.016 0.001l-0.001-0 0.682 0.069c0.079 0.009 0.14 0.075 0.14 0.156 0 0.006-0 0.012-0.001 0.017l0-0.001c-0.007 0.080-0.074 0.142-0.155 0.143h-0z"></path>
<path fill="#080c20" d="M16.41 3.262s-0.321-0.331-0.587-0.038c-0.266 0.293-0.184 0.896 0.464 0.853z"></path>
<path fill="#093f68" d="M16.223 4.157c-0.267 0-0.471-0.111-0.567-0.309-0.035-0.075-0.055-0.164-0.055-0.256 0-0.162 0.062-0.31 0.163-0.422l-0 0.001c0.073-0.087 0.18-0.143 0.3-0.146h0.001c0.214-0.005 0.392 0.176 0.401 0.184 0.016 0.014 0.026 0.035 0.026 0.059 0 0.037-0.026 0.068-0.061 0.077l-0.001 0c-0.005 0.001-0.011 0.002-0.017 0.002-0.024 0-0.046-0.011-0.060-0.028l-0-0c-0.074-0.075-0.174-0.124-0.284-0.136l-0.002-0c-0.076 0.004-0.143 0.041-0.186 0.097l-0 0.001c-0.075 0.083-0.121 0.194-0.121 0.316 0 0.068 0.014 0.132 0.040 0.191l-0.001-0.003c0.078 0.157 0.246 0.236 0.482 0.218 0.002-0 0.003-0 0.005-0 0.043 0 0.079 0.035 0.079 0.079 0 0.042-0.032 0.076-0.073 0.079h-0.067zM17.685 4.811c-0.023 0-0.046-0.002-0.068-0.005-0.245-0.036-0.44-0.26-0.58-0.665-0.003-0.008-0.004-0.017-0.004-0.026 0-0.043 0.035-0.079 0.079-0.079 0.005 0 0.010 0 0.015 0.001l-0-0c0.028 0.005 0.050 0.025 0.059 0.051 0.12 0.346 0.272 0.535 0.455 0.562 0.328 0.048 0.674-0.428 0.678-0.433 0.014-0.020 0.038-0.033 0.064-0.033 0.043 0 0.078 0.035 0.078 0.079 0 0.017-0.005 0.033-0.015 0.046l0-0c-0.016 0.022-0.365 0.502-0.76 0.502z"></path>
<path fill="#080c20" d="M17.85 8.972l0.335-1.132-0.196-1.441-1.306-0.456-1.734 1.221-0.102 1.261s-0.479 0.829-0.235 1.422c0.244 0.593 4.279 1.728 4.279 1.728l0.882-1.507-1.922-1.096z"></path>
<path fill="#093f68" d="M18.894 11.653c-0.003 0.001-0.007 0.001-0.011 0.001s-0.007-0-0.011-0.001l0 0c-0.416-0.117-4.078-1.162-4.331-1.772-0.242-0.584 0.157-1.353 0.228-1.477l0.101-1.244c0.002-0.023 0.014-0.045 0.033-0.058l1.734-1.221c0.013-0.009 0.028-0.014 0.045-0.014 0.009 0 0.018 0.002 0.026 0.004l-0.001-0 1.306 0.456c0.028 0.010 0.048 0.034 0.052 0.064l0.196 1.441c0.002 0.011 0.002 0.022 0 0.033l-0.314 1.071 1.871 1.066c0.024 0.014 0.040 0.039 0.040 0.068 0 0.015-0.004 0.028-0.011 0.040l0-0-0.881 1.507c-0.014 0.022-0.038 0.036-0.066 0.036-0.003 0-0.006-0-0.009-0.001l0 0zM15.024 7.205l-0.099 1.224c-0.001 0.012-0.005 0.024-0.010 0.033l0-0c-0.005 0.008-0.457 0.803-0.228 1.353 0.092 0.222 1.281 0.848 4.17 1.665l0.81-1.386-1.856-1.056c-0.024-0.014-0.039-0.039-0.039-0.068 0-0.008 0.001-0.016 0.003-0.023l-0 0.001 0.33-1.114-0.188-1.376-1.222-0.43-1.671 1.178zM21.154 7.526l1.954 1.235v0.562l-2.228-1.561z"></path>
<path fill="#093f68" d="M23.108 9.404c-0.016 0-0.032-0.005-0.045-0.014l-2.228-1.561c-0.020-0.014-0.034-0.038-0.034-0.064 0-0.024 0.011-0.045 0.027-0.060l0-0 0.274-0.236c0.014-0.012 0.031-0.019 0.051-0.019 0.016 0 0.030 0.005 0.043 0.013l-0-0 1.954 1.234c0.023 0.014 0.037 0.040 0.037 0.067v0.562c0 0.029-0.016 0.056-0.042 0.070-0.011 0.006-0.024 0.009-0.036 0.009zM21.008 7.755l2.022 1.414v-0.368l-1.869-1.178-0.153 0.133z"></path>
<path fill="#093f68" d="M23.855 14.025h-1.003v-7.588l1.003-0.327z"></path>
<path fill="#093f68" d="M23.855 14.103h-1.003c-0.043-0-0.078-0.035-0.078-0.079 0-0 0-0 0-0v0-7.588c-0.002-0.035 0.020-0.068 0.054-0.079l1.003-0.327c0.007-0.003 0.016-0.004 0.024-0.004 0.043 0 0.078 0.035 0.078 0.078 0 0.001-0 0.003-0 0.004v-0 7.915c0 0.043-0.035 0.079-0.078 0.079zM22.93 13.946h0.846v-7.728l-0.846 0.276v7.453z"></path>
<path fill="#093f68" d="M22.009 13.945h2.689c0.124 0 0.225 0.101 0.225 0.225v0.194c0 0.124-0.101 0.225-0.225 0.225h-2.689c-0.124 0-0.225-0.101-0.225-0.225v-0.194c0-0.124 0.101-0.225 0.225-0.225z"></path>
<path fill="#093f68" d="M24.669 14.667h-2.632c-0.183-0.001-0.332-0.149-0.332-0.333 0-0 0-0 0-0v0-0.138c0-0.183 0.149-0.332 0.332-0.332h2.632c0.183 0 0.332 0.149 0.333 0.332v0.137c0 0 0 0.001 0 0.002 0 0.092-0.037 0.175-0.097 0.235v-0c-0.060 0.061-0.144 0.098-0.236 0.098v0zM22.037 14.022c-0.097 0-0.175 0.078-0.175 0.175 0 0 0 0 0 0v0 0.137c0 0 0 0 0 0 0 0.097 0.078 0.175 0.175 0.176h2.632c0 0 0 0 0 0 0.097 0 0.176-0.079 0.176-0.176 0-0 0-0 0-0v0-0.138c-0-0.097-0.079-0.175-0.175-0.175-0 0-0 0-0 0l-2.632 0.002z"></path>
<path fill="#080c20" d="M23.617 6.988c0 0.146-0.118 0.265-0.264 0.265s-0.264-0.119-0.264-0.265c0-0.146 0.118-0.265 0.264-0.265s0.264 0.119 0.264 0.265z"></path>
<path fill="#093f68" d="M23.353 7.332c-0.19-0-0.343-0.154-0.343-0.344 0-0 0-0 0-0v0c0-0 0-0 0-0 0-0.19 0.154-0.344 0.343-0.344v0c0.19 0 0.344 0.154 0.344 0.344 0 0 0 0 0 0v0c0 0 0 0 0 0 0 0.19-0.154 0.344-0.344 0.344v0zM23.353 6.802c-0.077 0-0.144 0.047-0.172 0.114l-0 0.001c-0.009 0.021-0.014 0.046-0.014 0.071 0 0.052 0.021 0.099 0.055 0.132v0c0.034 0.034 0.080 0.054 0.132 0.054 0.026 0 0.051-0.005 0.073-0.015l-0.001 0c0.068-0.029 0.115-0.095 0.115-0.173 0-0.103-0.084-0.187-0.187-0.187-0 0-0 0-0 0v0z"></path>
<path fill="#080c20" d="M23.617 13.863c0 0.146-0.118 0.265-0.264 0.265s-0.264-0.119-0.264-0.265c0-0.146 0.118-0.265 0.264-0.265s0.264 0.119 0.264 0.265z"></path>
<path fill="#093f68" d="M23.353 14.206c-0.189-0.001-0.342-0.154-0.342-0.343 0-0 0-0.001 0-0.001v0c0-0.189 0.154-0.343 0.343-0.343v0c0.189 0 0.343 0.154 0.343 0.343 0 0 0 0 0 0v0c0 0.091-0.036 0.179-0.101 0.243-0.062 0.062-0.148 0.1-0.242 0.1-0 0-0.001 0-0.001 0h0zM23.353 13.677c-0.102 0.001-0.185 0.084-0.185 0.186 0 0 0 0 0 0.001v-0c0 0.103 0.083 0.186 0.186 0.186 0 0 0 0 0 0v0c0.103-0 0.186-0.083 0.186-0.186 0-0 0-0 0-0v0c-0-0.103-0.084-0.186-0.187-0.186v0z"></path>
<path fill="#080c20" d="M18.589 8.294l7.893-4.083 0.271 0.526-7.893 4.083z"></path>
<path fill="#093f68" d="M18.861 8.898c-0.029 0-0.056-0.016-0.070-0.042l-0.271-0.526c-0.006-0.011-0.009-0.023-0.009-0.037 0-0.008 0.001-0.017 0.004-0.024l-0 0.001c0.006-0.020 0.021-0.036 0.039-0.046l7.895-4.081c0.010-0.005 0.023-0.008 0.035-0.008 0.030 0 0.056 0.017 0.069 0.042l0 0 0.272 0.526c0.010 0.019 0.011 0.040 0.005 0.060s-0.020 0.036-0.038 0.046l-7.892 4.084c-0.009 0.004-0.020 0.006-0.031 0.006-0.003 0-0.005-0-0.008-0l0 0zM18.695 8.327l0.2 0.386 7.753-4.012-0.199-0.386-7.754 4.012z"></path>
<path fill="#080c20" d="M18.989 13.207v1.235s1.874 0.36 1.726 0.079c-0.148-0.281-0.742-0.44-0.742-0.44l0.049-0.669-1.033-0.205z"></path>
<path fill="#093f68" d="M20.404 14.704c-0.263 0-0.701-0.045-1.43-0.185-0.036-0.007-0.063-0.039-0.063-0.077 0-0.001 0-0.001 0-0.002v0-1.234c-0-0.024 0.011-0.046 0.029-0.061s0.042-0.020 0.065-0.016l1.031 0.207c0.039 0.008 0.066 0.044 0.063 0.083l-0.045 0.606c0.163 0.051 0.594 0.208 0.729 0.459 0.025 0.043 0.023 0.096-0.006 0.137-0.028 0.043-0.118 0.081-0.373 0.081zM19.071 14.378c0.657 0.123 1.394 0.212 1.562 0.157-0.129-0.193-0.53-0.337-0.68-0.378-0.035-0.010-0.059-0.042-0.057-0.079l0.044-0.6-0.869-0.175v1.074z"></path>
<path fill="#080c20" d="M19.654 7.742l-0.154-0.373 6.024-3.079 0.19 0.317z"></path>
<path fill="#093f68" d="M19.654 7.82c-0 0-0 0-0.001 0-0.032 0-0.060-0.019-0.072-0.047l-0-0-0.157-0.374c-0.016-0.038 0-0.081 0.036-0.1l6.027-3.078c0.010-0.005 0.023-0.008 0.035-0.008 0.029 0 0.053 0.015 0.067 0.038l0 0 0.19 0.314c0.011 0.018 0.014 0.041 0.008 0.061s-0.020 0.039-0.039 0.049l-6.059 3.135c-0.010 0.006-0.023 0.010-0.036 0.011h-0zM19.6 7.405l0.094 0.228 5.908-3.058-0.109-0.182-5.893 3.012z"></path>
<path fill="#080c20" d="M20.134 4.424l-0.224 0.155 1.123 1.625 0.227-0.157z"></path>
<path fill="#093f68" d="M21.037 6.282c-0.026 0-0.050-0.013-0.064-0.034l-1.123-1.625c-0.009-0.013-0.014-0.028-0.014-0.045 0-0.027 0.013-0.050 0.033-0.064l0-0 0.224-0.157c0.012-0.009 0.028-0.014 0.045-0.014 0.027 0 0.050 0.013 0.064 0.033l0 0 1.126 1.623c0.012 0.017 0.016 0.038 0.013 0.059s-0.016 0.039-0.032 0.051l-0 0-0.227 0.157c-0.013 0.010-0.029 0.015-0.045 0.016zM20.017 4.598l1.035 1.496 0.096-0.068-1.036-1.492-0.095 0.064z"></path>
<path fill="#080c20" d="M17.85 6.787l1.9-1.021s0.172-0.334 0.284-0.423c0.129-0.104 0.223-0.217 0.264-0.167 0.033 0.039 0.060 0.084 0.078 0.134l0.001 0.003c0.009 0.028 0.004 0.074 0.033 0.089 0.065 0.035 0.26-0.119 0.314-0.152 0.021-0.013 0.045-0.032 0.043-0.057s-0.056-0.053-0.062-0.090c0.031-0.019 0.069-0.030 0.109-0.030 0.024 0 0.047 0.004 0.069 0.011l-0.002-0c0.061 0.026 0.104 0.085 0.104 0.154 0 0.026-0.006 0.050-0.016 0.072l0-0.001c-0.035 0.079-0.124 0.137-0.147 0.212-0.007 0.030-0.011 0.060-0.010 0.090 0 0.001 0 0.003 0 0.005 0 0.113-0.021 0.221-0.060 0.32l0.002-0.006c-0.111 0.259-0.461 0.323-0.706 0.407 0 0-2.055 1.614-2.319 1.614z"></path>
<path fill="#093f68" d="M17.73 8.027c-0.043 0-0.079-0.035-0.079-0.079s0.035-0.079 0.079-0.079v0c0.157-0.009 1.279-0.818 2.274-1.598 0.007-0.006 0.014-0.010 0.023-0.013 0.041-0.014 0.085-0.027 0.13-0.042 0.21-0.065 0.448-0.138 0.526-0.321 0.036-0.092 0.053-0.191 0.052-0.29 0-0.001-0-0.003-0-0.004 0-0.038 0.005-0.076 0.015-0.111l-0.001 0.003c0.021-0.055 0.052-0.102 0.091-0.141l-0 0c0.023-0.024 0.043-0.050 0.059-0.079 0.005-0.012 0.008-0.025 0.008-0.039s-0.003-0.028-0.009-0.040l0 0.001c-0.008-0.019-0.023-0.034-0.042-0.041l-0-0c-0.006-0.002-0.013-0.004-0.021-0.005l-0-0c0.005 0.012 0.008 0.025 0.009 0.038 0 0 0 0.001 0 0.002 0 0.055-0.032 0.103-0.078 0.127l-0.001 0-0.033 0.023c-0.143 0.101-0.269 0.18-0.358 0.132-0.040-0.025-0.066-0.069-0.068-0.118v-0c0-0.002 0-0.005 0-0.008s-0-0.006-0-0.009l0 0c-0.011-0.030-0.025-0.056-0.043-0.079l0 0.001c-0.029 0.023-0.054 0.045-0.079 0.068l0-0c-0.029 0.027-0.061 0.053-0.094 0.077l-0.003 0.002c-0.072 0.057-0.199 0.275-0.263 0.398-0.007 0.014-0.019 0.026-0.033 0.033l-1.9 1.021c-0.011 0.005-0.023 0.009-0.036 0.009-0.044 0-0.080-0.036-0.080-0.080 0-0.028 0.015-0.053 0.037-0.067l0-0 1.882-1.008c0.044-0.079 0.186-0.34 0.293-0.427 0.033-0.026 0.063-0.053 0.090-0.079 0.078-0.072 0.14-0.124 0.207-0.119 0.031 0.002 0.059 0.016 0.078 0.040 0.040 0.046 0.071 0.1 0.091 0.16l0.001 0.003c0.003 0.010 0.006 0.021 0.007 0.032 0.070-0.034 0.13-0.071 0.185-0.114l-0.003 0.002 0.027-0.018c-0.022-0.020-0.037-0.047-0.042-0.078l-0-0.001c-0.004-0.031 0.010-0.062 0.038-0.079 0.044-0.028 0.097-0.044 0.154-0.044 0.032 0 0.063 0.005 0.093 0.015l-0.002-0.001c0.061 0.022 0.11 0.068 0.134 0.128 0.028 0.065 0.028 0.138 0 0.203-0.023 0.045-0.051 0.084-0.084 0.119l0-0c-0.024 0.025-0.045 0.053-0.060 0.085-0.004 0.017-0.007 0.037-0.007 0.058 0 0.002 0 0.003 0 0.005v-0c0 0.002 0 0.004 0 0.006 0 0.125-0.024 0.244-0.067 0.354l0.002-0.007c-0.107 0.25-0.392 0.338-0.627 0.41l-0.113 0.036c-0.507 0.393-2.097 1.623-2.366 1.623z"></path>
<path fill="#080c20" d="M15.39 6.487c1.656 2.389 2.798 1.353 2.798 1.353-0.020-0.126-0.071-0.393-0.096-0.518-0.040-0.209-0.085-0.418-0.116-0.628l-0.123 0.067s-0.812-0.605-1.424-1.157z"></path>
<path fill="#093f68" d="M17.508 8.142c-0.001 0-0.003 0-0.004 0-0.054 0-0.107-0.003-0.159-0.009l0.006 0.001c-0.663-0.079-1.348-0.615-2.031-1.601-0.009-0.013-0.014-0.028-0.014-0.045 0-0.041 0.032-0.075 0.072-0.079l0-0c0.028-0.002 0.055 0.011 0.071 0.034 0.645 0.931 1.308 1.462 1.915 1.534 0.257 0.037 0.518-0.023 0.733-0.169-0.048-0.291-0.079-0.451-0.111-0.61l0.024 0.138-0.026-0.132c-0.025-0.127-0.052-0.258-0.073-0.393l-0.027 0.014c-0.011 0.006-0.023 0.009-0.037 0.009-0.018 0-0.034-0.006-0.047-0.016l0 0c-0.008-0.006-0.822-0.613-1.43-1.162-0.016-0.014-0.026-0.035-0.026-0.059 0-0.043 0.035-0.078 0.078-0.078 0.021 0 0.039 0.008 0.053 0.021l-0-0c0.526 0.471 1.208 0.994 1.379 1.122l0.078-0.043c0.011-0.006 0.023-0.009 0.037-0.009 0.039 0 0.072 0.029 0.078 0.067l0 0c0.024 0.163 0.057 0.33 0.089 0.491l0.027 0.132c0.027 0.138 0.078 0.399 0.096 0.521 0.004 0.026-0.005 0.053-0.024 0.071-0.192 0.155-0.439 0.248-0.707 0.248-0.007 0-0.013-0-0.020-0h0.001zM21.356 6.498c-0.016 0-0.031-0.005-0.044-0.013l-0.322-0.216c-0.022-0.014-0.035-0.038-0.035-0.064 0-0 0-0 0-0.001 0-0.027 0.013-0.050 0.033-0.064l0-0 0.227-0.157c0.012-0.009 0.028-0.014 0.044-0.014 0.036 0 0.067 0.025 0.076 0.058l0 0.001 0.097 0.372c0.008 0.032-0.004 0.065-0.031 0.084-0.013 0.010-0.029 0.015-0.045 0.015zM21.173 6.202l0.056 0.038-0.016-0.064-0.039 0.027z"></path>
<path fill="#080c20" d="M26.006 13.637s-0.511-1.043-0.439-1.748c0.286 0.16 0.502 0.417 0.606 0.726l0.003 0.009c0.302 0.84 0.235 1.013 0.235 1.013l-0.405-0.001z"></path>
<path fill="#093f68" d="M26.407 13.716h-0.402c-0.030-0-0.057-0.018-0.070-0.044l-0-0c-0.022-0.043-0.52-1.071-0.448-1.79 0.003-0.025 0.017-0.047 0.039-0.060 0.011-0.007 0.025-0.011 0.040-0.011 0.012 0 0.023 0.002 0.032 0.007l-0-0c0.018 0.008 0.443 0.207 0.65 0.78 0.297 0.826 0.245 1.035 0.231 1.069-0.012 0.030-0.041 0.049-0.073 0.049zM26.056 13.559h0.281c0-0.095-0.033-0.346-0.235-0.908-0.091-0.258-0.252-0.472-0.46-0.626l-0.004-0.003c-0.002 0.585 0.331 1.346 0.419 1.535l-0.001 0.001z"></path>
<path fill="#080c20" d="M26.249 13.587s-0.384-1.487 0.168-2.483c0 0 0.318 0.364 0.392 1.244 0.007 0.065 0.010 0.14 0.010 0.216 0 0.366-0.088 0.711-0.245 1.016l0.006-0.013-0.332 0.020z"></path>
<path fill="#093f68" d="M26.249 13.665c-0.001 0-0.002 0-0.002 0-0.036 0-0.067-0.025-0.076-0.058l-0-0.001c-0.016-0.062-0.385-1.529 0.175-2.54 0.014-0.024 0.039-0.040 0.069-0.040 0.024 0 0.045 0.010 0.059 0.027l0 0c0.014 0.016 0.336 0.393 0.413 1.289 0.007 0.067 0.011 0.144 0.011 0.222 0 0.38-0.093 0.738-0.257 1.052l0.006-0.013c-0.013 0.022-0.036 0.037-0.062 0.038l-0.335 0.023zM26.426 11.259c-0.387 0.835-0.176 1.964-0.116 2.245l0.222-0.014c0.132-0.275 0.209-0.598 0.209-0.939 0-0.069-0.003-0.137-0.009-0.204l0.001 0.009c-0.048-0.587-0.212-0.937-0.306-1.096z"></path>
<path fill="#080c20" d="M26.414 13.54s0.119-0.992 0.92-1.64c0 0 0.235 0.739-0.426 1.728l-0.494-0.088z"></path>
<path fill="#093f68" d="M26.908 13.706c-0.002 0-0.004 0.001-0.007 0.001s-0.005-0-0.007-0.001l0 0-0.494-0.087c-0.037-0.007-0.065-0.039-0.065-0.077 0-0.003 0-0.006 0.001-0.009l-0 0c0.005-0.042 0.132-1.032 0.948-1.693 0.013-0.011 0.030-0.017 0.049-0.017 0.035 0 0.064 0.023 0.075 0.054l0 0.001c0.010 0.031 0.24 0.785-0.435 1.796-0.014 0.020-0.038 0.033-0.064 0.033-0 0-0.001 0-0.001 0h0zM26.505 13.476l0.367 0.065c0.451-0.696 0.444-1.257 0.413-1.492-0.564 0.512-0.736 1.204-0.78 1.427z"></path>
<path fill="#080c20" d="M26.963 14.655h-1.009l-0.149-1.229h1.307z"></path>
<path fill="#093f68" d="M26.963 14.733h-1.009c-0 0-0 0-0 0-0.040 0-0.073-0.030-0.078-0.069l-0-0-0.149-1.229c-0-0.003-0.001-0.006-0.001-0.010 0-0.043 0.035-0.078 0.078-0.078v0h1.307c0.043 0 0.078 0.035 0.078 0.078 0 0.003-0 0.007-0.001 0.010l0-0-0.148 1.231c-0.006 0.038-0.038 0.067-0.078 0.067 0 0-0 0-0 0v0zM26.022 14.576h0.869l0.13-1.072h-1.129l0.13 1.072z"></path>
<path fill="#093f68" d="M27.651 14.733h-14.169c-0.043 0-0.079-0.035-0.079-0.079s0.035-0.079 0.079-0.079v0h14.169c0.043 0 0.079 0.035 0.079 0.079s-0.035 0.079-0.079 0.079v0z"></path>
<path fill="#093f68" d="M5.056 7.711h2.147v0.238c0 0.405-0.331 0.733-0.739 0.733h-0.668c-0.408 0-0.739-0.328-0.739-0.733v-0.238z"></path>
<path fill="#093f68" d="M6.464 8.754h-0.668c-0.448-0.001-0.811-0.36-0.811-0.804v-0.238c0-0.040 0.032-0.072 0.072-0.072h2.148c0.040 0 0.072 0.032 0.072 0.072v0.238c-0.001 0.444-0.364 0.804-0.812 0.804zM5.128 7.783v0.167c0 0.365 0.299 0.661 0.667 0.661h0.668c0.369 0 0.667-0.296 0.668-0.661v-0.167h-2.003z"></path>
<path fill="#080c20" d="M8.414 3.608c0.001-0.974-0.635-1.836-1.571-2.131s-1.958 0.045-2.524 0.84c-0.258 0.358-0.413 0.806-0.413 1.29 0 0.51 0.172 0.98 0.461 1.355l-0.004-0.005c0.419 0.542 0.673 1.23 0.674 1.978v0h2.246c-0-0.009-0-0.019-0-0.029 0-0.729 0.247-1.401 0.662-1.936l-0.005 0.007c0.296-0.372 0.475-0.849 0.475-1.368v-0z"></path>
<path fill="#093f68" d="M7.283 7.006h-2.246c-0.040 0-0.072-0.032-0.072-0.072-0.003-0.731-0.251-1.403-0.665-1.94l0.006 0.007c-0.294-0.381-0.471-0.866-0.471-1.391 0-0.499 0.16-0.961 0.431-1.338l-0.005 0.007c0.585-0.82 1.638-1.171 2.604-0.867s1.622 1.193 1.622 2.197c0 0.002 0 0.004 0 0.006 0 0.534-0.185 1.026-0.494 1.414l0.004-0.005c-0.4 0.517-0.641 1.174-0.641 1.887 0 0.008 0 0.015 0 0.023v-0.001c0 0.019-0.008 0.037-0.021 0.051s-0.031 0.021-0.051 0.021c-0 0-0 0-0 0v0zM5.109 6.863h2.103c0.009-0.732 0.26-1.403 0.676-1.94l-0.006 0.007c0.287-0.359 0.46-0.82 0.46-1.321 0-0.002 0-0.005 0-0.007v0c-0.001-0.6-0.252-1.172-0.694-1.582s-1.039-0.618-1.643-0.573c-0.799 0.055-1.503 0.54-1.835 1.262-0.123 0.263-0.196 0.571-0.196 0.895 0 0.493 0.166 0.948 0.446 1.31l-0.004-0.005c0.414 0.535 0.671 1.211 0.692 1.946l0 0.005z"></path>
<path fill="#080c20" d="M5.018 7.557h2.225c0.139 0 0.252 0.113 0.252 0.252v0.114c0 0.139-0.113 0.252-0.252 0.252h-2.225c-0.139 0-0.252-0.113-0.252-0.252v-0.114c0-0.139 0.113-0.252 0.252-0.252z"></path>
<path fill="#093f68" d="M7.231 8.247h-2.205c-0.184 0-0.333-0.148-0.333-0.331v-0.1c0-0.183 0.149-0.331 0.333-0.331h2.205c0.184 0 0.334 0.148 0.334 0.331v0.1c0 0.183-0.149 0.331-0.334 0.331zM5.024 7.629c-0.104 0-0.189 0.084-0.189 0.188v0.1c0 0.104 0.085 0.187 0.189 0.187h2.207c0.104-0 0.189-0.084 0.189-0.188v-0.1c0-0.104-0.085-0.188-0.189-0.188h-2.207z"></path>
<path fill="#080c20" d="M5.018 6.939h2.225c0.139 0 0.252 0.113 0.252 0.252v0.114c0 0.139-0.113 0.252-0.252 0.252h-2.225c-0.139 0-0.252-0.113-0.252-0.252v-0.114c0-0.139 0.113-0.252 0.252-0.252z"></path>
<path fill="#093f68" d="M7.231 7.629h-2.205c-0.184 0-0.333-0.148-0.333-0.331v-0.1c0-0.183 0.149-0.331 0.333-0.331h2.205c0.184 0 0.334 0.148 0.334 0.331v0.1c0 0.183-0.149 0.331-0.334 0.331zM5.024 7.011c-0.104 0-0.189 0.084-0.189 0.188v0.1c0 0.050 0.020 0.097 0.055 0.133 0.034 0.034 0.081 0.055 0.134 0.055 0 0 0 0 0 0h2.207c0.050 0 0.098-0.020 0.134-0.055 0.034-0.034 0.055-0.081 0.055-0.133v0-0.1c-0-0.103-0.085-0.187-0.189-0.188h-2.207z"></path>
<path fill="#080c20" d="M5.018 6.321h2.225c0.139 0 0.252 0.113 0.252 0.252v0.114c0 0.139-0.113 0.252-0.252 0.252h-2.225c-0.139 0-0.252-0.113-0.252-0.252v-0.114c0-0.139 0.113-0.252 0.252-0.252z"></path>
<path fill="#093f68" d="M7.231 7.011h-2.205c-0.184 0-0.333-0.148-0.333-0.331v-0.1c0-0.183 0.149-0.331 0.333-0.331h2.205c0.184 0 0.334 0.148 0.334 0.331v0.1c0 0.183-0.149 0.331-0.334 0.331zM5.024 6.392c-0.104 0-0.189 0.084-0.189 0.188v0.1c0 0.104 0.085 0.188 0.189 0.188h2.207c0.104 0 0.189-0.084 0.189-0.188v-0.1c-0-0.103-0.085-0.187-0.189-0.188h-2.207zM6.322 2.328l0.37 0.741 0.827 0.122c0.069 0.010 0.124 0.057 0.146 0.121l0 0.001c0.006 0.017 0.009 0.036 0.009 0.055 0 0.050-0.021 0.096-0.055 0.128l-0 0-0.598 0.579 0.144 0.817c0.012 0.067-0.016 0.135-0.072 0.175-0.029 0.021-0.066 0.034-0.106 0.034-0.031 0-0.060-0.008-0.085-0.021l0.001 0-0.74-0.386-0.741 0.386c-0.024 0.013-0.053 0.021-0.084 0.021-0.040 0-0.077-0.013-0.107-0.035l0.001 0c-0.045-0.033-0.074-0.085-0.074-0.145 0-0.011 0.001-0.021 0.003-0.032l-0 0.001 0.144-0.817-0.599-0.579c-0.034-0.032-0.055-0.078-0.055-0.128 0-0.020 0.003-0.039 0.009-0.057l-0 0.001c0.022-0.065 0.078-0.112 0.145-0.122l0.001-0 0.821-0.122 0.37-0.744c0.030-0.059 0.091-0.099 0.161-0.099 0.001 0 0.001 0 0.002 0h-0c0.071 0 0.131 0.041 0.161 0.1l0 0.001z"></path>
<path fill="#093f68" d="M5.335 5.174c-0.056-0-0.107-0.018-0.149-0.048l0.001 0.001c-0.063-0.046-0.104-0.12-0.104-0.203 0-0.015 0.001-0.030 0.004-0.044l-0 0.002 0.135-0.78-0.572-0.552c-0.048-0.046-0.078-0.11-0.078-0.181 0-0.028 0.004-0.054 0.013-0.079l-0 0.002c0.031-0.091 0.109-0.158 0.205-0.171l0.001-0 0.791-0.114 0.351-0.708c0.042-0.085 0.128-0.143 0.227-0.143h0c0.099 0 0.185 0.058 0.226 0.142l0.001 0.002 0.353 0.71 0.794 0.114c0.097 0.013 0.176 0.080 0.206 0.169l0.001 0.002c0.008 0.023 0.012 0.050 0.012 0.077 0 0.071-0.030 0.136-0.078 0.181l-0 0-0.572 0.552 0.135 0.78c0.002 0.012 0.003 0.026 0.003 0.040 0 0.083-0.041 0.157-0.104 0.202l-0.001 0c-0.041 0.030-0.093 0.048-0.148 0.048-0.043 0-0.083-0.010-0.118-0.029l0.001 0.001-0.707-0.369-0.707 0.369c-0.034 0.019-0.075 0.029-0.119 0.029-0.001 0-0.002 0-0.002 0h0zM6.161 2.3c-0.001 0-0.001 0-0.002 0-0.042 0-0.078 0.024-0.095 0.060l-0 0.001-0.37 0.744c-0.011 0.021-0.031 0.035-0.054 0.039l-0.828 0.119c-0.041 0.006-0.074 0.035-0.087 0.072l-0 0.001c-0.003 0.010-0.005 0.021-0.005 0.033 0 0.030 0.013 0.058 0.033 0.077l0 0 0.598 0.579c0.017 0.017 0.025 0.040 0.021 0.064l-0.144 0.817c-0.007 0.040 0.010 0.081 0.043 0.105s0.078 0.027 0.114 0.008l0.741-0.386c0.021-0.011 0.046-0.011 0.067 0l0.741 0.386c0.036 0.020 0.081 0.017 0.114-0.008s0.050-0.065 0.043-0.105l-0.144-0.817c-0.001-0.004-0.001-0.008-0.001-0.012 0-0.020 0.008-0.038 0.022-0.051l0-0 0.598-0.579c0.021-0.019 0.034-0.046 0.034-0.077 0-0.012-0.002-0.023-0.006-0.034l0 0.001c-0.013-0.038-0.047-0.066-0.088-0.072l-0.001-0-0.822-0.122c-0.024-0.003-0.043-0.018-0.054-0.038l-0-0-0.37-0.744c-0.018-0.035-0.054-0.059-0.095-0.059-0 0-0.001 0-0.001 0h0v0.001z"></path>
<path fill="#080c20" d="M5.82 3.356c-0 0-0 0-0.001 0-0.031 0-0.058-0.020-0.068-0.048l-0-0.001c-0.006-0.018-0.005-0.038 0.003-0.055l0.31-0.625c0.013-0.021 0.036-0.035 0.062-0.035 0.012 0 0.023 0.003 0.032 0.008l-0-0c0.034 0.017 0.049 0.056 0.035 0.091l-0.31 0.625c-0.012 0.024-0.037 0.040-0.065 0.040-0 0-0 0-0 0h0z"></path>
<path fill="#093f68" d="M2.832 6.101c-0.027 0-0.052-0.015-0.064-0.039-0.005-0.010-0.008-0.021-0.008-0.033 0-0.028 0.016-0.052 0.039-0.063l0-0 0.77-0.391c0.010-0.005 0.021-0.008 0.033-0.008 0.028 0 0.052 0.016 0.064 0.038l0 0c0.005 0.010 0.008 0.021 0.008 0.033 0 0.028-0.016 0.052-0.039 0.063l-0 0-0.77 0.391c-0.010 0.005-0.022 0.008-0.033 0.008zM3.44 2.905c-0.003 0.001-0.007 0.001-0.011 0.001s-0.008-0-0.012-0.001l0 0-0.873-0.286c-0.029-0.010-0.049-0.036-0.049-0.068 0-0.008 0.001-0.016 0.004-0.023l-0 0.001c0.010-0.029 0.037-0.049 0.069-0.049 0.008 0 0.016 0.001 0.024 0.004l-0.001-0 0.872 0.286c0.018 0.006 0.033 0.019 0.042 0.036s0.010 0.037 0.004 0.055c-0.011 0.028-0.038 0.046-0.069 0.045zM9.469 6.101c-0 0-0.001 0-0.001 0-0.012 0-0.023-0.003-0.032-0.008l0 0-0.77-0.391c-0.024-0.012-0.040-0.036-0.040-0.064 0-0.012 0.003-0.023 0.008-0.033l-0 0c0.012-0.023 0.037-0.039 0.064-0.039 0.012 0 0.024 0.003 0.034 0.008l-0-0 0.77 0.391c0.024 0.012 0.040 0.036 0.040 0.064 0 0.012-0.003 0.023-0.008 0.033l0-0c-0.013 0.024-0.038 0.039-0.065 0.039zM8.858 2.905c-0.003 0.001-0.007 0.001-0.011 0.001-0.023 0-0.043-0.010-0.057-0.027l-0-0c-0.010-0.012-0.016-0.028-0.016-0.045 0-0.009 0.002-0.018 0.005-0.027l-0 0.001c0.009-0.024 0.031-0.041 0.057-0.045l0.872-0.286c0.007-0.002 0.015-0.004 0.023-0.004 0.018 0 0.035 0.007 0.048 0.018l-0-0c0.015 0.013 0.024 0.032 0.024 0.054 0 0.032-0.021 0.058-0.049 0.068l-0.001 0-0.872 0.286c-0.007 0.003-0.014 0.006-0.023 0.007l-0.001 0zM6.161 1.051c-0.040 0-0.072-0.032-0.072-0.072v-0.852c0-0.040 0.032-0.072 0.072-0.072s0.072 0.032 0.072 0.072v0.852c0 0.040-0.032 0.072-0.072 0.072z"></path>
<path fill="#080c20" d="M2.945 8.923h1.688c0.522 0 0.671 0.644 1.346 0.706s1.655-0.124 1.859 0.133c0.204 0.257 0.172 0.555-0.032 0.731 0 0 0.979-0.829 1.191-1.018 0.361-0.316 0.926-0.036 0.519 0.771s-1.92 1.891-2.607 2.042c-0.687 0.151-4.183-0.072-4.183-0.072l0.218-3.294z"></path>
<path fill="#093f68" d="M5.932 12.413c-1.246 0-3.104-0.116-3.21-0.123-0.038-0.002-0.068-0.033-0.068-0.071 0-0.002 0-0.003 0-0.005v0l0.222-3.296c0.003-0.038 0.034-0.067 0.072-0.067h1.685c0.279 0 0.456 0.16 0.643 0.329s0.383 0.346 0.71 0.377c0.266 0.016 0.532 0.016 0.798 0 0.514-0.019 0.958-0.034 1.11 0.158 0.095 0.112 0.152 0.259 0.152 0.419 0 0.021-0.001 0.042-0.003 0.063l0-0.003c0.306-0.26 0.768-0.653 0.905-0.774 0.188-0.167 0.439-0.193 0.609-0.064 0.082 0.062 0.328 0.314 0.022 0.92-0.401 0.796-1.926 1.919-2.656 2.080-0.185 0.042-0.551 0.057-0.993 0.057zM2.803 12.152c0.505 0.031 3.474 0.203 4.090 0.067 0.64-0.143 2.145-1.184 2.558-2.004 0.204-0.404 0.144-0.648 0.019-0.743s-0.289-0.063-0.425 0.057c-0.21 0.186-1.183 1.010-1.193 1.018-0.013 0.012-0.030 0.019-0.049 0.019-0.008 0-0.016-0.001-0.023-0.004l0 0c-0.029-0.010-0.049-0.036-0.049-0.068 0-0.022 0.010-0.042 0.027-0.055l0-0c0.185-0.161 0.195-0.415 0.022-0.633-0.106-0.135-0.556-0.119-0.99-0.103-0.122 0.008-0.265 0.013-0.409 0.013s-0.287-0.005-0.428-0.014l0.019 0.001c-0.375-0.035-0.597-0.236-0.794-0.414-0.173-0.156-0.323-0.291-0.546-0.291h-1.617l-0.212 3.154z"></path>
<path fill="#093f68" d="M6.462 10.87c-0.479 0-0.956-0.032-0.985-0.034-0.038-0.002-0.067-0.034-0.067-0.072 0-0.001 0-0.003 0-0.004v0c0.001-0.019 0.010-0.037 0.025-0.049s0.033-0.019 0.053-0.017c0.011 0 1.105 0.072 1.645 0 0.498-0.072 0.608-0.234 0.609-0.235 0.013-0.021 0.036-0.035 0.062-0.035 0.013 0 0.026 0.004 0.037 0.010l-0-0c0.034 0.019 0.046 0.062 0.027 0.096-0.013 0.023-0.144 0.228-0.715 0.306-0.187 0.023-0.404 0.035-0.624 0.035-0.023 0-0.046-0-0.069-0l0.003 0z"></path>
<path fill="#080c20" d="M0.582 8.711h2.363v3.638h-2.363z"></path>
<path fill="#093f68" d="M2.945 12.42h-2.363c-0.040 0-0.072-0.032-0.072-0.072v-3.638c0-0.040 0.032-0.072 0.072-0.072h2.363c0.040 0 0.072 0.032 0.072 0.072v3.638c0 0.039-0.032 0.072-0.072 0.072zM0.654 12.277h2.218v-3.494h-2.218v3.494z"></path>
<path fill="#080c20" d="M8.329 31.529v-2.448c0-1.093-0.887-1.979-1.98-1.98h-1.892c-1.094 0-1.98 0.887-1.98 1.98v2.448h5.853z"></path>
<path fill="#093f68" d="M8.329 31.607h-5.853c-0.043 0-0.078-0.035-0.078-0.078v-2.448c0.001-1.136 0.922-2.057 2.059-2.058h1.892c1.137 0.001 2.058 0.922 2.059 2.058v2.448c0 0.043-0.035 0.078-0.078 0.078zM2.555 31.45h5.696v-2.37c-0.001-1.049-0.852-1.9-1.902-1.901h-1.892c-1.050 0.001-1.901 0.852-1.902 1.901v2.37z"></path>
<path fill="#093f68" d="M5.534 31.607c-0.043 0-0.078-0.035-0.078-0.078v-4.303c0-0.043 0.035-0.078 0.078-0.078s0.078 0.035 0.078 0.078v0 4.303c0 0.043-0.035 0.078-0.078 0.078zM7.613 31.199c-0.001 0-0.002 0-0.003 0-0.036 0-0.067-0.025-0.076-0.058l-0-0.001-0.817-3.161c-0.003-0.008-0.004-0.016-0.004-0.026 0-0.043 0.035-0.078 0.078-0.078 0.008 0 0.016 0.001 0.024 0.004l-0.001-0c0.028 0.009 0.049 0.032 0.054 0.061l0.82 3.164c0.001 0.006 0.002 0.012 0.002 0.019 0 0.036-0.025 0.067-0.058 0.076l-0.001 0c-0.003 0.001-0.006 0.001-0.010 0.001s-0.007-0-0.010-0.001l0 0z"></path>
<path fill="#080c20" d="M7.702 31.627c0.098 0.102 0.228 0.173 0.374 0.195l0.004 0c0.313 0.038 0.611-0.224 0.705-0.529s0.042-0.635-0.038-0.944c-0.097-0.376-0.164-0.75-0.492-0.978-0.308-0.214-0.705-0.419-0.98-0.034s-0.009 1.192 0.101 1.617c0.045 0.207 0.122 0.39 0.225 0.555l-0.004-0.007c0.031 0.045 0.067 0.086 0.106 0.124z"></path>
<path fill="#093f68" d="M8.144 31.905c-0.024 0-0.049-0.002-0.073-0.005-0.168-0.024-0.314-0.103-0.423-0.217l-0-0c-0.040-0.040-0.077-0.085-0.109-0.132l-0.002-0.003c-0.106-0.164-0.187-0.356-0.233-0.561l-0.002-0.012c-0.012-0.043-0.024-0.091-0.038-0.142-0.126-0.465-0.313-1.167-0.052-1.54 0.352-0.498 0.888-0.125 1.089 0.015 0.322 0.224 0.411 0.579 0.497 0.922l0.026 0.101c0.078 0.301 0.143 0.654 0.036 0.987-0.090 0.295-0.372 0.587-0.716 0.587zM7.661 29.201c-0.135 0.002-0.253 0.074-0.319 0.181l-0.001 0.002c-0.222 0.313-0.036 0.998 0.078 1.408 0.013 0.052 0.027 0.099 0.038 0.143 0.043 0.198 0.116 0.373 0.215 0.53l-0.004-0.007c0.028 0.042 0.059 0.079 0.093 0.113l0 0c0.085 0.090 0.199 0.153 0.327 0.173l0.003 0c0.285 0.034 0.542-0.215 0.626-0.475 0.095-0.295 0.034-0.621-0.039-0.901l-0.026-0.102c-0.082-0.33-0.161-0.641-0.435-0.832-0.232-0.157-0.412-0.235-0.558-0.235h0.001zM9.62 23.859c0 2.44-1.888 3.496-4.217 3.496s-4.216-1.056-4.216-3.496c0-2.44 1.887-4.946 4.216-4.946s4.217 2.507 4.217 4.946z"></path>
<path fill="#093f68" d="M5.403 27.433c-2.689 0-4.294-1.336-4.294-3.574 0-2.372 1.836-5.024 4.294-5.024s4.295 2.652 4.295 5.024c0 2.238-1.606 3.574-4.295 3.574zM5.403 18.991c-1.953 0-4.138 2.082-4.138 4.868 0 2.14 1.547 3.418 4.138 3.418s4.138-1.278 4.138-3.418c0-2.786-2.181-4.868-4.138-4.868z"></path>
<path fill="#080c20" d="M8.787 22.358c-0.004 0.186-0.019 0.365-0.047 0.54l0.003-0.022c-0.127 0.819-0.331 1.552-0.609 2.248l0.024-0.069c-0.127 0.322-0.276 0.649-0.532 0.883-0.198 0.164-0.428 0.3-0.677 0.396l-0.017 0.006c-0.758 0.331-1.598 0.635-2.395 0.413s-1.37-0.927-1.755-1.661c-0.418-0.782-0.697-1.698-0.781-2.671l-0.002-0.026c-0.047-0.562 0.031-1.252 0.313-1.75 0.129-0.235 0.301-0.431 0.507-0.583l0.005-0.003c0.121-0.085 0.691-0.221 0.734-0.296 0.445-0.782 1.59-0.969 2.334-0.782 1.702 0.437 2.922 1.652 2.894 3.379z"></path>
<path fill="#093f68" d="M5.107 26.906c-0.001 0-0.003 0-0.005 0-0.208 0-0.41-0.029-0.601-0.082l0.016 0.004c-0.699-0.194-1.322-0.782-1.801-1.7-0.421-0.791-0.704-1.718-0.79-2.7l-0.002-0.027c-0.056-0.666 0.064-1.337 0.321-1.795 0.134-0.245 0.313-0.449 0.527-0.608l0.005-0.004c0.11-0.062 0.238-0.115 0.372-0.153l0.013-0.003c0.129-0.037 0.238-0.080 0.343-0.131l-0.013 0.006c0.272-0.469 0.746-0.685 1.096-0.782 0.213-0.062 0.458-0.098 0.711-0.098 0.216 0 0.425 0.026 0.626 0.075l-0.018-0.004c1.85 0.47 2.983 1.794 2.957 3.453-0.004 0.19-0.020 0.372-0.048 0.551l0.003-0.023c-0.127 0.825-0.332 1.564-0.612 2.265l0.024-0.069c-0.129 0.329-0.286 0.668-0.553 0.912-0.202 0.184-0.443 0.297-0.715 0.416-0.604 0.266-1.237 0.498-1.857 0.498zM5.314 18.99c-0.663 0-1.377 0.261-1.69 0.81-0.034 0.059-0.135 0.097-0.413 0.189-0.133 0.038-0.247 0.083-0.355 0.137l0.012-0.005c-0.202 0.149-0.366 0.336-0.485 0.551l-0.004 0.009c-0.241 0.432-0.354 1.070-0.301 1.707 0.087 0.988 0.364 1.894 0.795 2.706l-0.019-0.038c0.321 0.613 0.878 1.392 1.706 1.622 0.754 0.209 1.572-0.074 2.342-0.41 0.258-0.113 0.488-0.22 0.672-0.391 0.244-0.222 0.391-0.541 0.512-0.854 0.252-0.622 0.455-1.35 0.574-2.105l0.007-0.057c0.026-0.168 0.040-0.337 0.043-0.507 0.025-1.577-1.063-2.844-2.836-3.299-0.162-0.041-0.348-0.064-0.539-0.064-0.007 0-0.014 0-0.021 0h0.001z"></path>
<path fill="#080c20" d="M3.527 24.691c0 0.46-0.433 0.833-0.967 0.833s-0.967-0.373-0.967-0.833c0-0.46 0.433-0.833 0.967-0.833s0.967 0.373 0.967 0.833z"></path>
<path fill="#093f68" d="M2.56 25.602c-0.576 0-1.045-0.408-1.045-0.911s0.47-0.911 1.045-0.911 1.042 0.408 1.042 0.908c0 0.499-0.47 0.914-1.042 0.914zM2.56 23.937c-0.49 0-0.889 0.339-0.889 0.754s0.399 0.754 0.889 0.754 0.886-0.338 0.886-0.757c0-0.419-0.396-0.751-0.886-0.751z"></path>
<path fill="#080c20" d="M9.162 24.691c0 0.46-0.433 0.833-0.967 0.833s-0.967-0.373-0.967-0.833c0-0.46 0.433-0.833 0.967-0.833s0.967 0.373 0.967 0.833z"></path>
<path fill="#093f68" d="M8.195 25.602c-0.576 0-1.045-0.408-1.045-0.911s0.47-0.911 1.045-0.911 1.045 0.408 1.045 0.908c0 0.499-0.47 0.914-1.045 0.914zM8.195 23.937c-0.49 0-0.889 0.339-0.889 0.754s0.399 0.754 0.889 0.754 0.888-0.338 0.888-0.757c0-0.419-0.399-0.751-0.888-0.751z"></path>
<path fill="#080c20" d="M8.049 22.907c0.352 0.44 0.258 0.957 0.258 1.506 0 1.609-1.305 2.913-2.915 2.913s-2.915-1.304-2.915-2.913c0-1.475 1-2.437 2.354-2.895-0.086 0.366-0.295 0.674-0.579 0.886l-0.004 0.003c0.164 0.025 0.354 0.039 0.546 0.039 0.793 0 1.529-0.241 2.14-0.653l-0.014 0.009c-0.107 0.073 0.98 0.939 1.054 1.017 0.027 0.031 0.052 0.059 0.075 0.088z"></path>
<path fill="#093f68" d="M5.391 27.405c-1.652-0.003-2.991-1.341-2.993-2.992 0-1.369 0.877-2.452 2.407-2.973 0.027-0.009 0.057-0.003 0.078 0.016 0.022 0.020 0.032 0.050 0.024 0.078-0.077 0.324-0.242 0.602-0.469 0.815l-0.001 0.001c0.106 0.011 0.23 0.017 0.355 0.017 0.777 0 1.498-0.235 2.098-0.639l-0.013 0.009c0.012-0.008 0.027-0.013 0.043-0.013 0.027 0 0.051 0.014 0.065 0.035l0 0c0.013 0.018 0.017 0.041 0.011 0.062 0.078 0.132 0.626 0.599 0.842 0.782 0.117 0.099 0.174 0.148 0.193 0.167s0.055 0.060 0.078 0.092c0.308 0.385 0.294 0.815 0.28 1.27 0 0.094-0.005 0.189-0.005 0.285-0.004 1.65-1.343 2.986-2.994 2.988zM4.715 21.641c-1.879 0.693-2.16 2.027-2.16 2.772 0 1.566 1.27 2.835 2.837 2.835s2.837-1.269 2.837-2.835c0-0.098 0-0.194 0.005-0.29 0.014-0.444 0.026-0.827-0.247-1.167-0.023-0.029-0.046-0.054-0.070-0.078l-0-0c-0.014-0.016-0.096-0.084-0.182-0.156-0.548-0.464-0.774-0.678-0.861-0.797-0.591 0.377-1.312 0.601-2.085 0.601-0.197 0-0.39-0.014-0.579-0.042l0.021 0.003c-0.038-0.006-0.066-0.038-0.066-0.077 0-0.026 0.012-0.048 0.031-0.063l0-0c0.236-0.176 0.416-0.416 0.514-0.694l0.003-0.010z"></path>
<path fill="#093f68" d="M4.485 25.127c0 0.145-0.117 0.262-0.262 0.262s-0.262-0.117-0.262-0.262c0-0.145 0.117-0.262 0.262-0.262s0.262 0.117 0.262 0.262z"></path>
<path fill="#093f68" d="M6.846 25.127c0 0.145-0.117 0.262-0.262 0.262s-0.262-0.117-0.262-0.262c0-0.145 0.117-0.262 0.262-0.262s0.262 0.117 0.262 0.262z"></path>
<path fill="#093f68" d="M5.39 25.646c-0.088-0.001-0.175-0.008-0.262-0.021-0.038-0.006-0.066-0.038-0.066-0.077 0-0.043 0.035-0.078 0.078-0.078 0.005 0 0.011 0.001 0.016 0.002l-0-0c0.134 0.021 0.271 0.021 0.405 0 0.021-0.072-0.078-0.365-0.226-0.643-0.005-0.010-0.009-0.023-0.009-0.036 0-0.030 0.017-0.056 0.041-0.069l0-0c0.011-0.006 0.023-0.009 0.036-0.009 0.030 0 0.056 0.017 0.069 0.041l0 0c0.074 0.14 0.306 0.611 0.228 0.782-0.017 0.039-0.051 0.068-0.093 0.078l-0.001 0c-0.071 0.019-0.144 0.029-0.217 0.030zM4.796 23.793h-0.020l-1.272-0.157c-0.079-0.009-0.141-0.076-0.141-0.157 0-0.087 0.071-0.158 0.158-0.158 0.008 0 0.015 0.001 0.022 0.002l-0.001-0 1.273 0.157c0.084 0.003 0.151 0.072 0.151 0.157 0 0.087-0.070 0.157-0.157 0.157-0.005 0-0.009-0-0.014-0.001l0.001 0zM6.010 23.793c-0.004 0-0.009 0.001-0.013 0.001-0.087 0-0.157-0.070-0.157-0.157 0-0.084 0.067-0.153 0.15-0.157h0l1.273-0.156c0.006-0.001 0.014-0.001 0.021-0.001 0.087 0 0.158 0.071 0.158 0.158 0 0.081-0.061 0.148-0.14 0.157l-0.001 0-1.272 0.156h-0.020z"></path>
<path fill="#080c20" d="M9.62 23.859c0 0.012 0 0.025 0 0.039 0 0.399-0.061 0.783-0.174 1.145l0.007-0.027c-0.509-2.137-2.129-4.328-4.050-4.328s-3.541 2.191-4.050 4.328c-0.106-0.334-0.167-0.719-0.167-1.118 0-0.014 0-0.027 0-0.041l-0 0.002c0-2.439 1.889-4.945 4.217-4.945s4.217 2.506 4.217 4.945z"></path>
<path fill="#093f68" d="M9.453 25.094c-0.036-0.001-0.065-0.026-0.073-0.059l-0-0.001c-0.275-1.132-0.789-2.118-1.487-2.943l0.009 0.010c-0.53-0.609-1.393-1.336-2.496-1.336s-1.965 0.727-2.495 1.336c-0.69 0.814-1.204 1.8-1.469 2.884l-0.010 0.049c-0.009 0.034-0.040 0.059-0.076 0.059-0.035 0-0.064-0.023-0.074-0.054l-0-0.001c-0.108-0.341-0.171-0.734-0.171-1.142 0-0.014 0-0.027 0-0.040l-0 0.002c0-2.371 1.837-5.023 4.295-5.023s4.295 2.653 4.295 5.023c0 0.011 0 0.025 0 0.038 0 0.407-0.063 0.8-0.178 1.169l0.007-0.028c-0.010 0.033-0.042 0.056-0.077 0.055zM5.403 18.992c-1.953 0-4.138 2.081-4.138 4.867-0 0.005-0 0.011-0 0.018 0 0.295 0.032 0.582 0.093 0.859l-0.005-0.026c0.3-1.045 0.794-1.952 1.446-2.72l-0.009 0.010c0.791-0.91 1.694-1.39 2.613-1.39s1.823 0.481 2.614 1.39c0.643 0.758 1.137 1.664 1.424 2.659l0.013 0.051c0.056-0.25 0.088-0.538 0.088-0.833 0-0.006 0-0.012-0-0.018v0.001c0-2.786-2.181-4.867-4.139-4.867z"></path>
<path fill="#080c20" d="M4.35 19.681s-1.288-2.895-2.322-2.216c-1.034 0.679-2.598 3.019-1.611 3.253s1.869-1.721 1.869-1.721l1.516 1.102z"></path>
<path fill="#093f68" d="M0.584 20.816c-0.063 0-0.125-0.007-0.186-0.022-0.19-0.036-0.336-0.188-0.364-0.378l-0-0.002c-0.138-0.783 1.133-2.477 1.95-3.014 0.107-0.074 0.239-0.118 0.381-0.118 0.073 0 0.143 0.012 0.209 0.033l-0.005-0.001c0.925 0.271 1.814 2.247 1.851 2.331 0.004 0.009 0.007 0.020 0.007 0.032 0 0.043-0.035 0.078-0.079 0.078-0.032 0-0.059-0.019-0.071-0.046l-0-0c-0.009-0.020-0.897-1.994-1.752-2.245-0.048-0.016-0.103-0.026-0.161-0.026-0.11 0-0.213 0.034-0.297 0.093l0.002-0.001c-0.844 0.555-2 2.184-1.879 2.856 0.017 0.13 0.117 0.233 0.244 0.256l0.002 0c0.913 0.217 1.771-1.656 1.78-1.675 0.010-0.021 0.028-0.038 0.051-0.044s0.047-0.002 0.067 0.013l1.516 1.102c0.019 0.014 0.031 0.037 0.031 0.062 0 0.043-0.035 0.078-0.078 0.078-0.016 0-0.032-0.005-0.044-0.014l0 0-1.442-1.047c-0.177 0.361-0.886 1.698-1.732 1.698z"></path>
<path fill="#080c20" d="M6.456 19.681s1.288-2.895 2.322-2.212c1.034 0.683 2.598 3.019 1.611 3.253s-1.869-1.721-1.869-1.721l-1.516 1.101z"></path>
<path fill="#093f68" d="M10.222 20.816c-0.846 0-1.555-1.336-1.732-1.698l-1.442 1.047c-0.013 0.009-0.029 0.015-0.046 0.015-0.040 0-0.074-0.030-0.078-0.070l-0-0c-0.003-0.028 0.009-0.055 0.032-0.072l1.516-1.102c0.019-0.014 0.044-0.019 0.066-0.013s0.041 0.022 0.051 0.044c0.009 0.019 0.867 1.892 1.78 1.675 0.131-0.021 0.232-0.125 0.249-0.256l0-0.002c0.118-0.672-1.038-2.3-1.879-2.856-0.082-0.058-0.185-0.092-0.295-0.092-0.057 0-0.113 0.009-0.164 0.027l0.004-0.001c-0.855 0.25-1.743 2.225-1.752 2.245-0.013 0.026-0.040 0.044-0.070 0.044-0.043 0-0.079-0.035-0.079-0.079 0-0.011 0.002-0.021 0.006-0.030l-0 0.001c0.038-0.084 0.926-2.060 1.851-2.331 0.061-0.020 0.131-0.032 0.204-0.032 0.142 0 0.275 0.044 0.384 0.119l-0.002-0.001c0.817 0.538 2.088 2.229 1.95 3.014-0.028 0.193-0.174 0.344-0.361 0.38l-0.003 0c-0.062 0.015-0.125 0.023-0.188 0.023zM3.784 31.607c-0.043 0-0.078-0.035-0.078-0.078v-3.155c0-0.043 0.035-0.078 0.078-0.078s0.078 0.035 0.078 0.078v0 3.155c0 0.043-0.035 0.078-0.078 0.078z"></path>
<path fill="#080c20" d="M4.002 31.717c-0.096 0.020-0.206 0.032-0.319 0.032-0.334 0-0.645-0.101-0.903-0.275l0.006 0.004c-0.351-0.236-0.602-0.597-0.689-1.018l-0.002-0.010c-0.028-0.158-0.044-0.339-0.044-0.524 0-0.15 0.010-0.298 0.031-0.442l-0.002 0.017c0.019-0.163 0.047-0.324 0.084-0.484 0.162-0.704 0.5-1.349 1.005-1.45 0.631-0.127 1.352 0.637 1.773 1.403 0.054 0.095 0.112 0.212 0.164 0.332l0.009 0.024c0.063 0.139 0.116 0.301 0.154 0.471l0.003 0.017c0.176 0.876-0.392 1.729-1.269 1.905z"></path>
<path fill="#093f68" d="M3.68 31.827c-0.808-0.002-1.504-0.571-1.664-1.363-0.029-0.162-0.045-0.349-0.045-0.539 0-0.154 0.011-0.305 0.031-0.453l-0.002 0.017c0.022-0.19 0.052-0.358 0.091-0.521l-0.006 0.029c0.094-0.408 0.392-1.373 1.065-1.509 0.662-0.132 1.409 0.626 1.857 1.442 0.055 0.097 0.114 0.217 0.167 0.34l0.009 0.024c0.066 0.143 0.122 0.31 0.16 0.485l0.003 0.017c0.184 0.919-0.412 1.813-1.331 1.998-0.111 0.022-0.223 0.034-0.336 0.034zM3.306 27.629c-0.044 0-0.087 0.005-0.128 0.013l0.004-0.001c-0.409 0.078-0.761 0.602-0.944 1.39-0.032 0.129-0.061 0.29-0.080 0.455l-0.002 0.021c-0.042 0.307-0.037 0.619 0.014 0.925 0.084 0.411 0.323 0.755 0.651 0.976l0.006 0.003c0.24 0.162 0.536 0.258 0.854 0.258 0.108 0 0.213-0.011 0.314-0.032l-0.010 0.002c0.411-0.084 0.756-0.322 0.977-0.651l0.003-0.005c0.162-0.24 0.259-0.536 0.259-0.855 0-0.107-0.011-0.211-0.032-0.312l0.002 0.010c-0.041-0.18-0.095-0.336-0.163-0.485l0.006 0.015c-0.060-0.142-0.117-0.257-0.18-0.368l0.010 0.019c-0.372-0.689-1.005-1.38-1.559-1.38h-0.002z"></path>
<path fill="#080c20" d="M1.847 30.82c0.039-0.132 0.114-0.243 0.214-0.325l0.001-0.001c0.063-0.062 0.142-0.125 0.228-0.11 0.082 0.026 0.14 0.101 0.14 0.189 0 0.011-0.001 0.022-0.003 0.033l0-0.001c-0.020 0.099-0.062 0.185-0.122 0.257l0.001-0.001c0.041-0.055 0.091-0.102 0.147-0.138l0.002-0.001c0.028-0.017 0.062-0.027 0.098-0.027s0.070 0.010 0.098 0.027l-0.001-0c0.042 0.036 0.069 0.089 0.069 0.148 0 0.029-0.006 0.057-0.018 0.081l0.001-0.001c-0.039 0.077-0.091 0.142-0.155 0.194l-0.001 0.001c0.105-0.021 0.177-0.151 0.283-0.136 0.065 0.020 0.112 0.079 0.112 0.15 0 0.020-0.004 0.040-0.011 0.057l0-0.001c-0.037 0.082-0.094 0.149-0.166 0.196l-0.002 0.001c0.042-0.035 0.092-0.064 0.145-0.083l0.003-0.001c0.014-0.005 0.031-0.007 0.048-0.007 0.042 0 0.081 0.017 0.109 0.044l-0-0c0.060 0.068 0.022 0.175-0.025 0.253-0.048 0.087-0.116 0.158-0.199 0.207l-0.002 0.001c-0.049 0.021-0.107 0.033-0.167 0.033-0.096 0-0.185-0.031-0.257-0.084l0.001 0.001c-0.246-0.164-0.635-0.645-0.572-0.958z"></path>
<path fill="#093f68" d="M2.687 31.938c-0.117-0.002-0.225-0.038-0.315-0.098l0.002 0.001c-0.245-0.156-0.681-0.671-0.607-1.036 0.042-0.148 0.124-0.273 0.234-0.366l0.001-0.001c0.074-0.072 0.175-0.153 0.297-0.131 0.119 0.033 0.204 0.14 0.204 0.267 0 0.014-0.001 0.028-0.003 0.042l0-0.002v0.007c0.017-0.004 0.036-0.006 0.055-0.006 0.050 0 0.097 0.015 0.136 0.040l-0.001-0.001c0.063 0.047 0.104 0.122 0.104 0.206 0 0.024-0.003 0.047-0.009 0.069l0-0.002c0.016-0.002 0.033-0.002 0.049 0 0.059 0.009 0.109 0.044 0.138 0.092l0.001 0.001c0.024 0.039 0.038 0.086 0.038 0.137 0 0.028-0.004 0.055-0.012 0.080l0.001-0.002v0.007c0.051 0.007 0.095 0.031 0.127 0.066l0 0c0.074 0.083 0.067 0.209-0.016 0.347-0.055 0.099-0.135 0.179-0.232 0.233l-0.003 0.002c-0.055 0.029-0.119 0.046-0.188 0.047h-0zM2.263 30.46c-0.059 0.013-0.11 0.045-0.146 0.089l-0 0c-0.089 0.074-0.156 0.171-0.191 0.282l-0.001 0.004c-0.052 0.254 0.289 0.71 0.54 0.873 0.059 0.044 0.132 0.070 0.212 0.070 0.048 0 0.093-0.009 0.134-0.026l-0.002 0.001c0.072-0.043 0.129-0.105 0.166-0.178l0.001-0.002c0.034-0.055 0.062-0.129 0.034-0.161-0.014-0.011-0.032-0.018-0.051-0.018-0.010 0-0.019 0.002-0.027 0.005l0.001-0c-0.047 0.018-0.088 0.042-0.123 0.072l0.001-0c-0.013 0.009-0.028 0.014-0.045 0.014-0.043 0-0.079-0.035-0.079-0.079 0-0.024 0.010-0.045 0.027-0.059l0-0c0.061-0.039 0.11-0.094 0.141-0.158l0.001-0.002c0.003-0.009 0.004-0.020 0.004-0.030 0-0.020-0.005-0.038-0.015-0.054l0 0c-0.006-0.011-0.015-0.018-0.027-0.021l-0-0c-0.025 0-0.055 0.017-0.099 0.052-0.043 0.038-0.096 0.067-0.154 0.083l-0.003 0.001c-0.005 0.001-0.010 0.002-0.015 0.002-0.043 0-0.078-0.035-0.078-0.078 0-0.023 0.010-0.043 0.025-0.058l0-0c0.057-0.045 0.103-0.1 0.137-0.163l0.001-0.003c0.007-0.015 0.012-0.032 0.012-0.051 0-0.033-0.013-0.062-0.034-0.084v0c-0.015-0.007-0.032-0.011-0.050-0.011-0.023 0-0.045 0.007-0.064 0.019l0-0c-0.050 0.033-0.092 0.073-0.126 0.119l-0.001 0.001c-0.014 0.017-0.036 0.027-0.059 0.027-0.043 0-0.078-0.035-0.078-0.078 0-0.016 0.005-0.031 0.013-0.044l-0 0c0.051-0.061 0.089-0.135 0.107-0.216l0.001-0.004c0.006-0.056-0.023-0.126-0.074-0.135l-0.014 0.001z"></path>
<path fill="#080c20" d="M4.855 29.227c-0.086 0.228-0.149 0.493-0.178 0.768l-0.001 0.014c-0.027 0.245-0.043 0.491-0.049 0.739 0.001 0.013 0.001 0.027 0.001 0.042 0 0.1-0.018 0.196-0.051 0.284l0.002-0.006c-0.040 0.099-0.134 0.167-0.245 0.167-0.004 0-0.007-0-0.011-0l0.001 0c-0.149-0.021-0.215-0.197-0.243-0.345-0.031-0.156-0.056-0.344-0.068-0.535l-0.001-0.013c-0.001-0.068-0.013-0.132-0.035-0.192l0.001 0.004c-0.023-0.060-0.077-0.104-0.143-0.111l-0.001-0c-0.103 0-0.166 0.113-0.256 0.163-0.141 0.078-0.326-0.025-0.399-0.167s-0.073-0.313-0.085-0.469c0-0.057-0.014-0.112-0.041-0.162-0.022-0.038-0.063-0.062-0.109-0.062-0.013 0-0.025 0.002-0.037 0.005l0.001-0c-0.040 0.024-0.069 0.060-0.084 0.104l-0 0.001c-0.048 0.104-0.103 0.217-0.208 0.263-0.036 0.014-0.077 0.022-0.12 0.022-0.034 0-0.067-0.005-0.099-0.015l0.002 0.001c-0.133-0.036-0.243-0.116-0.317-0.224l-0.001-0.002c0.019-0.163 0.047-0.324 0.084-0.484 0.162-0.704 0.5-1.349 1.005-1.45 0.543-0.11 1.045 0.391 1.352 0.773 0.095 0.118 0.19 0.25 0.278 0.388l0.010 0.018c0.102 0.162 0.157 0.214 0.078 0.391-0.013 0.026-0.025 0.055-0.034 0.087l-0.001 0.003z"></path>
<path fill="#093f68" d="M4.348 31.313c-0.006 0-0.012 0.001-0.019 0.001s-0.013-0-0.020-0.001l0.001 0c-0.108-0.016-0.25-0.099-0.309-0.408-0.032-0.158-0.056-0.348-0.069-0.542l-0.001-0.014v-0.012c-0.001-0.053-0.010-0.104-0.028-0.152l0.001 0.003c-0.012-0.033-0.039-0.057-0.073-0.064l-0.001-0c-0.031 0-0.062 0.026-0.109 0.070-0.032 0.032-0.068 0.060-0.107 0.083-0.042 0.024-0.093 0.038-0.147 0.038-0.035 0-0.068-0.006-0.099-0.016l0.002 0.001c-0.115-0.038-0.207-0.117-0.263-0.219l-0.001-0.002c-0.056-0.124-0.089-0.269-0.089-0.421 0-0.003 0-0.007 0-0.010v0l-0.005-0.072c0-0 0-0.001 0-0.002 0-0.045-0.011-0.088-0.030-0.125l0.001 0.002c-0.013-0.020-0.038-0.031-0.050-0.027s-0.032 0.043-0.043 0.066c-0.043 0.096-0.11 0.24-0.246 0.3-0.045 0.018-0.098 0.029-0.153 0.029-0.041 0-0.081-0.006-0.118-0.017l0.003 0.001c-0.152-0.041-0.278-0.133-0.362-0.255l-0.001-0.002c-0.009-0.012-0.014-0.028-0.014-0.044 0-0.003 0-0.006 0.001-0.009l-0 0c0.022-0.19 0.052-0.358 0.091-0.521l-0.006 0.029c0.094-0.408 0.392-1.373 1.065-1.509 0.446-0.090 0.927 0.18 1.428 0.8 0.098 0.121 0.195 0.255 0.284 0.396l0.010 0.018 0.027 0.042c0.085 0.133 0.143 0.221 0.058 0.419-0.012 0.029-0.024 0.059-0.034 0.088-0.084 0.223-0.146 0.482-0.174 0.75l-0.001 0.014c-0.025 0.213-0.043 0.467-0.048 0.724l-0 0.008v0.012c0 0.011 0.001 0.024 0.001 0.037 0 0.109-0.020 0.213-0.058 0.309l0.002-0.006c-0.052 0.12-0.166 0.204-0.3 0.212l-0.001 0zM3.831 29.966h0.006c0.097 0.007 0.179 0.069 0.213 0.155l0.001 0.002c0.024 0.064 0.037 0.131 0.038 0.2v0.013c0.011 0.18 0.033 0.359 0.067 0.537 0.019 0.098 0.067 0.266 0.177 0.282 0.079-0.002 0.146-0.051 0.173-0.121l0-0.001c0.031-0.089 0.045-0.183 0.041-0.278v-0.012c0.005-0.246 0.021-0.497 0.049-0.746 0.030-0.295 0.094-0.566 0.188-0.823l-0.007 0.023c0.012-0.031 0.024-0.063 0.037-0.093 0.052-0.123 0.035-0.149-0.045-0.275l-0.027-0.043c-0.096-0.152-0.19-0.282-0.29-0.406l0.006 0.008c-0.462-0.572-0.891-0.823-1.276-0.746-0.409 0.078-0.761 0.602-0.944 1.39-0.029 0.119-0.057 0.271-0.076 0.424l-0.002 0.021c0.064 0.082 0.152 0.142 0.253 0.17l0.003 0.001c0.025 0.009 0.053 0.013 0.083 0.013s0.058-0.005 0.084-0.014l-0.002 0.001c0.078-0.033 0.122-0.124 0.168-0.224 0.023-0.063 0.067-0.113 0.124-0.143l0.001-0.001c0.020-0.007 0.043-0.011 0.067-0.011 0.074 0 0.138 0.039 0.174 0.097l0.001 0.001c0.035 0.061 0.053 0.129 0.054 0.199l0.005 0.074c-0 0.005-0 0.010-0 0.015 0 0.127 0.026 0.248 0.074 0.358l-0.002-0.006c0.036 0.067 0.096 0.118 0.167 0.143l0.002 0.001c0.040 0.014 0.084 0.011 0.122-0.009 0.029-0.019 0.055-0.039 0.078-0.062l-0 0c0.053-0.064 0.129-0.106 0.215-0.115l0.001-0z"></path>
<path fill="#080c20" d="M6.451 28.939c-0.014 0.022-0.022 0.049-0.022 0.078 0 0.024 0.006 0.047 0.016 0.067l-0-0.001c0.039 0.049 0.097 0.082 0.163 0.088l0.001 0c0.146 0.038 0.299 0.044 0.447 0.018 0.106-0.016 0.193-0.084 0.234-0.177l0.001-0.002c0.063-0.195-0.169-0.354-0.34-0.365s-0.422 0.15-0.5 0.294z"></path>
<path fill="#093f68" d="M6.896 29.285c-0.109-0.002-0.213-0.016-0.314-0.040l0.010 0.002c-0.090-0.010-0.167-0.057-0.215-0.126l-0.001-0.001c-0.016-0.030-0.025-0.067-0.025-0.105 0-0.042 0.011-0.082 0.032-0.116l-0.001 0.001c0.088-0.162 0.368-0.349 0.572-0.335 0.152 0.014 0.283 0.092 0.368 0.207l0.001 0.001c0.034 0.047 0.054 0.106 0.054 0.169 0 0.032-0.005 0.064-0.015 0.093l0.001-0.002c-0.049 0.122-0.157 0.212-0.287 0.234l-0.002 0c-0.058 0.012-0.118 0.018-0.177 0.016zM6.52 28.972c-0.013 0.021-0.016 0.046-0.007 0.069 0.015 0.027 0.065 0.041 0.111 0.050 0.135 0.036 0.276 0.042 0.414 0.019 0.034-0.008 0.148-0.041 0.176-0.128 0.004-0.012 0.007-0.027 0.007-0.042 0-0.031-0.010-0.059-0.028-0.082l0 0c-0.059-0.077-0.147-0.129-0.248-0.139l-0.001-0c-0.128-0.009-0.356 0.128-0.424 0.253z"></path>
<path fill="#080c20" d="M5.945 29.607l0.449-0.284 0.259 0.41-0.45 0.284z"></path>
<path fill="#093f68" d="M6.203 30.096h-0.017c-0.020-0.005-0.038-0.017-0.049-0.035l-0.259-0.409c-0.008-0.012-0.012-0.026-0.012-0.042 0-0.028 0.014-0.052 0.036-0.066l0-0 0.449-0.284c0.017-0.011 0.039-0.015 0.059-0.010s0.038 0.017 0.049 0.034l0.259 0.41c0.008 0.012 0.012 0.026 0.012 0.042 0 0.028-0.014 0.052-0.036 0.066l-0 0-0.449 0.286c-0.013 0.007-0.028 0.010-0.042 0.009zM6.052 29.632l0.175 0.278 0.317-0.2-0.175-0.278-0.317 0.2z"></path>
<path fill="#080c20" d="M6.656 29.733l2.026-1.211c0.090-0.053 0.15-0.151 0.15-0.262 0-0.060-0.017-0.116-0.048-0.163l0.001 0.001c-0.055-0.086-0.149-0.142-0.257-0.142-0.064 0-0.123 0.020-0.172 0.053l0.001-0.001-1.964 1.311 0.262 0.412z"></path>
<path fill="#093f68" d="M6.656 29.812c-0.027 0-0.051-0.014-0.066-0.036l-0.259-0.41c-0.008-0.012-0.012-0.026-0.012-0.042 0-0.027 0.014-0.051 0.035-0.065l0-0 1.964-1.311c0.059-0.039 0.131-0.063 0.209-0.063 0.064 0 0.125 0.016 0.178 0.044l-0.002-0.001c0.123 0.065 0.206 0.192 0.206 0.338 0 0.138-0.073 0.258-0.182 0.325l-0.002 0.001-2.028 1.209c-0.012 0.007-0.026 0.011-0.040 0.011zM6.499 29.346l0.178 0.281 1.962-1.174c0.068-0.040 0.112-0.112 0.112-0.194 0-0.044-0.013-0.085-0.034-0.119l0.001 0.001c-0.040-0.064-0.111-0.105-0.19-0.105-0.047 0-0.091 0.015-0.128 0.040l0.001-0-1.901 1.271z"></path>
<path fill="#080c20" d="M5.706 29.687l0.133-0.084c0.015-0.009 0.033-0.015 0.052-0.015 0.035 0 0.065 0.018 0.083 0.045l0 0 0.217 0.343c0.029 0.046 0.015 0.107-0.030 0.136h-0l-0.133 0.084c-0.015 0.009-0.033 0.015-0.052 0.015-0.035 0-0.065-0.018-0.083-0.045l-0-0-0.217-0.343c-0.010-0.015-0.015-0.033-0.015-0.053 0-0.035 0.018-0.065 0.045-0.083l0-0h0z"></path>
<path fill="#093f68" d="M5.979 30.287c-0.066-0.001-0.123-0.035-0.156-0.087l-0-0.001-0.204-0.323c-0.018-0.029-0.029-0.063-0.029-0.101 0-0.067 0.035-0.125 0.087-0.159l0.001-0 0.112-0.071c0.029-0.018 0.063-0.029 0.101-0.029 0.015 0 0.029 0.002 0.043 0.005l-0.001-0c0.050 0.011 0.092 0.041 0.118 0.082l0 0.001 0.204 0.323c0.018 0.029 0.029 0.063 0.029 0.101 0 0.067-0.035 0.126-0.087 0.159l-0.001 0-0.112 0.070c-0.031 0.020-0.067 0.030-0.104 0.029zM5.887 29.673c-0 0-0 0-0.001 0-0.006 0-0.012 0.002-0.017 0.005l0-0-0.112 0.071c-0.007 0.005-0.012 0.011-0.014 0.019l-0 0c-0 0.002-0.001 0.004-0.001 0.007 0 0.006 0.002 0.013 0.005 0.018l-0-0 0.204 0.323c0.006 0.009 0.016 0.015 0.028 0.015 0.006 0 0.012-0.002 0.017-0.005l-0 0 0.112-0.071c0.009-0.006 0.015-0.016 0.015-0.027 0-0.006-0.002-0.012-0.005-0.017l0 0-0.204-0.323c-0.005-0.007-0.012-0.012-0.020-0.014l-0-0-0.007-0.001z"></path>
<path fill="#080c20" d="M5.678 29.706l0.322 0.509s-0.049 0.184-0.402 0.333c-0.073 0.031-0.162 0.061-0.253 0.083l-0.012 0.003c-0.596 0.153-0.877-0.292-0.877-0.292 0.313 0.178 0.463-0.113 0.616-0.428l0.019-0.039c0.16-0.326 0.587-0.17 0.587-0.17z"></path>
<path fill="#093f68" d="M5.090 30.747c-0.001 0-0.001 0-0.002 0-0.288 0-0.543-0.14-0.701-0.357l-0.002-0.002c-0.008-0.012-0.012-0.027-0.012-0.042 0-0.043 0.035-0.078 0.078-0.078 0.014 0 0.028 0.004 0.039 0.011l-0-0c0.054 0.038 0.121 0.052 0.186 0.038 0.129-0.040 0.231-0.248 0.321-0.432l0.020-0.039c0.151-0.309 0.513-0.273 0.684-0.211 0.016 0.006 0.030 0.017 0.039 0.032l0.323 0.509c0.012 0.018 0.015 0.041 0.009 0.062-0.006 0.023-0.070 0.225-0.447 0.385-0.076 0.033-0.168 0.065-0.263 0.089l-0.014 0.003c-0.077 0.021-0.166 0.033-0.257 0.034h-0zM4.698 30.472c0.114 0.076 0.254 0.121 0.404 0.121 0.076 0 0.15-0.012 0.219-0.033l-0.005 0.001c0.098-0.025 0.182-0.053 0.263-0.087l-0.012 0.004c0.227-0.096 0.313-0.205 0.344-0.255l-0.284-0.449c-0.084-0.023-0.357-0.083-0.47 0.141l-0.020 0.040c-0.103 0.211-0.221 0.452-0.416 0.512l-0.024 0.006z"></path>
<path fill="#080c20" d="M4.542 29.975c0.015 0.057 0.036 0.112 0.063 0.165 0.048 0.048 0.12 0.062 0.183 0.034 0.059-0.023 0.108-0.059 0.147-0.104l0-0c0.041-0.045 0.078-0.096 0.116-0.141 0.006-0.007 0.013-0.013 0.022-0.017l0-0c0.031-0.010 0.050 0.040 0.055 0.061 0.006 0.037 0.009 0.074 0.008 0.112v0.12c-0.004 0.021-0.004 0.043 0 0.063 0.003 0.009 0.010 0.016 0.018 0.020l0 0c0.007 0.002 0.015 0.002 0.022 0 0.037-0.009 0.070-0.027 0.108-0.032 0.005-0.001 0.011-0.002 0.017-0.002 0.033 0 0.061 0.019 0.075 0.047l0 0c0.009 0.031-0.009 0.062-0.009 0.094 0 0.034 0.020 0.064 0.051 0.078 0.022 0.007 0.045 0.012 0.068 0.014 0.044 0.008 0.085 0.028 0.117 0.059-0.088 0.036-0.178 0.066-0.27 0.088-0.067 0.018-0.145 0.028-0.225 0.028-0.281 0-0.532-0.129-0.697-0.33l-0.001-0.002c-0.045-0.054-0.072-0.124-0.072-0.2 0-0.010 0-0.019 0.001-0.029l-0 0.001z"></path>
<path fill="#093f68" d="M5.109 30.744c-0.002 0-0.005 0-0.007 0-0.304 0-0.576-0.141-0.753-0.36l-0.001-0.002c-0.055-0.066-0.089-0.152-0.089-0.246 0-0.014 0.001-0.028 0.002-0.041l-0 0.002c0.005-0.039 0.038-0.069 0.078-0.069 0.044 0 0.079 0.035 0.079 0.079 0 0.004-0 0.007-0.001 0.011l0-0c-0 0.005-0.001 0.011-0.001 0.017 0 0.058 0.021 0.112 0.056 0.153l-0-0c0.151 0.185 0.379 0.303 0.635 0.303 0.074 0 0.145-0.010 0.213-0.028l-0.006 0.001 0.063-0.017c-0.055-0.027-0.092-0.083-0.092-0.147 0-0.001 0-0.003 0-0.004v0c0.001-0.018 0.003-0.036 0.008-0.053v-0.006h-0.005c-0.015 0.004-0.030 0.008-0.045 0.013-0.016 0.006-0.034 0.012-0.054 0.017l-0.003 0c-0.010 0.003-0.021 0.005-0.033 0.005s-0.023-0.002-0.034-0.005l0.001 0c-0.029-0.011-0.052-0.033-0.063-0.062-0.007-0.018-0.011-0.039-0.011-0.060 0-0.010 0.001-0.020 0.003-0.029l-0 0.001v-0.167c-0.021 0.027-0.042 0.052-0.065 0.078-0.047 0.056-0.107 0.099-0.175 0.126l-0.003 0.001c-0.027 0.012-0.059 0.019-0.093 0.019-0.072 0-0.137-0.033-0.18-0.084l-0-0c-0.023-0.038-0.042-0.082-0.054-0.128l-0.001-0.003c-0.005-0.016-0.010-0.034-0.016-0.049-0.004-0.009-0.007-0.020-0.007-0.032 0-0.043 0.035-0.078 0.078-0.078 0.005 0 0.010 0 0.015 0.001l-0-0c0.029 0.005 0.052 0.026 0.060 0.054 0.007 0.020 0.013 0.040 0.019 0.059 0.008 0.032 0.020 0.062 0.036 0.090 0.007 0.012 0.051 0.017 0.091 0.004 0.046-0.019 0.085-0.048 0.115-0.084l0-0c0.020-0.023 0.040-0.047 0.059-0.070s0.037-0.047 0.056-0.069c0.015-0.018 0.034-0.032 0.056-0.040 0.028-0.009 0.058-0.006 0.084 0.009 0.037 0.026 0.063 0.066 0.072 0.11 0.008 0.043 0.011 0.086 0.009 0.129v0.108c0.017-0.006 0.037-0.011 0.057-0.015l0.002-0c0.009-0.002 0.020-0.003 0.032-0.003 0.067 0 0.124 0.042 0.147 0.101l0 0.001c0.009 0.032 0.009 0.065 0 0.097-0.002 0.007-0.003 0.014-0.004 0.021 0 0.003 0.002 0.006 0.005 0.008l0 0c0.008 0.003 0.017 0.004 0.026 0.005h0.024c0.061 0.011 0.115 0.039 0.157 0.078l-0-0c0.015 0.014 0.024 0.034 0.024 0.056 0 0.032-0.019 0.060-0.047 0.072l-0 0c-0.076 0.033-0.168 0.065-0.263 0.089l-0.014 0.003c-0.079 0.021-0.16 0.032-0.242 0.033z"></path>
<path fill="#080c20" d="M8.065 28.679c-0.119-0.094-0.271-0.15-0.436-0.15-0.035 0-0.069 0.003-0.102 0.007l0.004-0c-0.198 0.029-0.372 0.111-0.514 0.231l0.001-0.001c-0.105 0.075-0.183 0.183-0.217 0.309l-0.001 0.004c-0.004 0.026-0.007 0.055-0.007 0.085 0 0.055 0.008 0.109 0.023 0.16l-0.001-0.004c0.080 0.317 0.293 0.573 0.575 0.709l0.006 0.003c0.392 0.175 0.973 0.047 1.125-0.399 0.106-0.307-0.229-0.77-0.456-0.954z"></path>
<path fill="#093f68" d="M7.77 30.183c-0.001 0-0.003 0-0.004 0-0.144 0-0.281-0.031-0.404-0.085l0.006 0.003c-0.311-0.148-0.541-0.423-0.625-0.757l-0.002-0.008c-0.016-0.052-0.025-0.111-0.025-0.173 0-0.036 0.003-0.071 0.009-0.105l-0.001 0.004c0.039-0.148 0.126-0.272 0.244-0.355l0.002-0.001c0.151-0.128 0.339-0.216 0.546-0.247l0.006-0.001c0.032-0.005 0.069-0.007 0.107-0.007 0.185 0 0.355 0.063 0.489 0.17l-0.002-0.001c0.227 0.186 0.601 0.681 0.48 1.037-0.074 0.204-0.226 0.363-0.42 0.444l-0.005 0.002c-0.117 0.052-0.254 0.082-0.399 0.082-0.001 0-0.003 0-0.004 0h0zM7.627 28.608c-0.028 0-0.056 0.002-0.084 0.005-0.181 0.028-0.341 0.104-0.471 0.214l0.001-0.001c-0.091 0.063-0.158 0.155-0.189 0.263l-0.001 0.003c-0.003 0.021-0.005 0.045-0.005 0.070 0 0.049 0.007 0.095 0.021 0.139l-0.001-0.003c0.074 0.293 0.271 0.53 0.531 0.657l0.006 0.003c0.1 0.044 0.217 0.069 0.339 0.069s0.239-0.025 0.345-0.071l-0.006 0.002c0.158-0.065 0.28-0.191 0.338-0.349l0.001-0.004c0.084-0.245-0.2-0.676-0.431-0.866-0.105-0.081-0.238-0.13-0.382-0.13-0.005 0-0.009 0-0.014 0h0.001z"></path>
<path fill="#093f68" d="M3.579 28.205c0 0.093-0.076 0.169-0.169 0.169s-0.169-0.076-0.169-0.169c0-0.093 0.076-0.169 0.169-0.169s0.169 0.076 0.169 0.169z"></path>
<path fill="#093f68" d="M4.391 29.392c0 0.093-0.076 0.169-0.169 0.169s-0.169-0.076-0.169-0.169c0-0.093 0.076-0.169 0.169-0.169s0.169 0.076 0.169 0.169z"></path>
<path fill="#093f68" d="M2.953 28.678c0 0.093-0.076 0.169-0.169 0.169s-0.169-0.076-0.169-0.169c0-0.093 0.076-0.169 0.169-0.169s0.169 0.076 0.169 0.169z"></path>
<path fill="#093f68" d="M4.218 28.483c0 0.093-0.076 0.169-0.169 0.169s-0.169-0.076-0.169-0.169c0-0.093 0.076-0.169 0.169-0.169s0.169 0.076 0.169 0.169z"></path>
<path fill="#093f68" d="M3.615 29.122c0 0.093-0.076 0.169-0.169 0.169s-0.169-0.076-0.169-0.169c0-0.093 0.076-0.169 0.169-0.169s0.169 0.076 0.169 0.169z"></path>
<path fill="#093f68" d="M4.083 25.714c-0 0-0.001 0-0.001 0-0.381 0-0.707-0.231-0.847-0.561l-0.002-0.006c-0.044-0.104-0.070-0.225-0.070-0.352 0-0.254 0.103-0.483 0.269-0.65v0c0.167-0.167 0.397-0.27 0.651-0.27 0.127 0 0.248 0.026 0.358 0.072l-0.006-0.002c0.336 0.142 0.568 0.468 0.568 0.849v0c-0 0.507-0.412 0.919-0.919 0.919zM4.083 24.032c-0 0-0.001 0-0.001 0-0.316 0-0.587 0.192-0.703 0.465l-0.002 0.005c-0.037 0.086-0.058 0.187-0.058 0.293 0 0.211 0.085 0.401 0.223 0.539v0c0.138 0.138 0.329 0.224 0.54 0.224 0.105 0 0.206-0.021 0.297-0.060l-0.005 0.002c0.279-0.118 0.471-0.389 0.471-0.705v0c-0-0.421-0.342-0.762-0.763-0.763zM6.647 25.714c-0.508 0-0.92-0.412-0.92-0.919s0.412-0.919 0.92-0.919 0.92 0.412 0.92 0.919c-0 0.508-0.412 0.919-0.92 0.919zM6.647 24.032c-0.422 0-0.763 0.342-0.763 0.763s0.342 0.763 0.763 0.763c0.422 0 0.763-0.342 0.763-0.763s-0.342-0.762-0.763-0.763z"></path>
<path fill="#093f68" d="M5.812 24.767c-0.017 0-0.033-0.005-0.046-0.015-0.118-0.093-0.27-0.149-0.434-0.149-0.134 0-0.26 0.038-0.367 0.103l0.003-0.002c-0.011 0.006-0.024 0.010-0.038 0.010-0.043 0-0.078-0.035-0.078-0.078 0-0.024 0.011-0.046 0.029-0.060l0-0c0.129-0.079 0.285-0.126 0.451-0.126 0.199 0 0.382 0.066 0.529 0.178l-0.002-0.002c0.020 0.014 0.032 0.037 0.032 0.063 0 0.043-0.035 0.078-0.078 0.078-0 0-0 0-0 0v0zM3.261 24.688c-0 0-0 0-0 0-0.022 0-0.042-0.009-0.057-0.024l-0-0-0.705-0.75c-0.013-0.014-0.021-0.033-0.021-0.054 0-0.043 0.035-0.078 0.078-0.078 0.023 0 0.043 0.009 0.057 0.025l0 0 0.705 0.75c0.014 0.014 0.023 0.034 0.023 0.055s-0.009 0.041-0.023 0.055v0c-0.014 0.013-0.033 0.021-0.054 0.021-0.001 0-0.002-0-0.004-0h0zM7.467 24.688c-0.043-0-0.078-0.035-0.078-0.078 0-0.022 0.009-0.043 0.024-0.057l0-0 0.851-0.792c0.013-0.010 0.030-0.017 0.048-0.017 0.043 0 0.078 0.035 0.078 0.078 0 0.020-0.008 0.039-0.020 0.052l0-0-0.854 0.791c-0.014 0.013-0.031 0.021-0.050 0.022z"></path>
<path fill="#080c20" d="M4.698 26.054l1.41-0.156s-0.030 0.91-0.632 0.928c-0.602 0.018-0.778-0.771-0.778-0.771z"></path>
<path fill="#093f68" d="M5.455 26.907c-0.64 0-0.825-0.801-0.833-0.836-0.001-0.005-0.002-0.011-0.002-0.017 0-0.017 0.005-0.033 0.015-0.046l-0 0c0.013-0.018 0.033-0.030 0.056-0.032l1.409-0.157c0.003-0 0.006-0 0.009-0 0.043 0 0.078 0.035 0.078 0.078 0 0.001-0 0.002-0 0.003v-0c0 0.040-0.040 0.984-0.705 1.004l-0.027 0.003zM4.799 26.124c0.063 0.192 0.254 0.643 0.676 0.626s0.522-0.548 0.548-0.763l-1.224 0.137z"></path>
<path fill="#093f68" d="M21.751 21.063c-0.041 0-0.075-0.033-0.075-0.075v-0.478c-0.026-1.704-1.417-3.071-3.124-3.071s-3.097 1.367-3.123 3.071v0.478c0 0.041-0.033 0.075-0.075 0.075s-0.075-0.033-0.075-0.075v0-0.478c0.027-1.786 1.484-3.22 3.273-3.22s3.246 1.434 3.273 3.22v0.478c0 0 0 0 0 0 0 0.041-0.033 0.075-0.075 0.075-0 0-0 0-0 0v0z"></path>
<path fill="#080c20" d="M21.529 30.957c0 0.285 0.506 0.283 1.13 0.283s1.13 0 1.13-0.283c0-0.283-0.506-0.672-1.13-0.672s-1.131 0.388-1.131 0.672z"></path>
<path fill="#093f68" d="M22.682 31.315h-0.035c-0.268 0.008-0.537-0.004-0.804-0.037-0.096-0.016-0.39-0.068-0.39-0.321 0-0.336 0.556-0.747 1.205-0.747s1.204 0.411 1.204 0.747c0 0.253-0.293 0.305-0.39 0.321-0.263 0.033-0.527 0.045-0.792 0.037zM22.647 31.165h0.034c0.048 0.002 0.104 0.003 0.16 0.003 0.214 0 0.425-0.013 0.632-0.039l-0.025 0.003c0.265-0.046 0.265-0.136 0.265-0.174 0-0.236-0.473-0.597-1.055-0.597s-1.056 0.362-1.056 0.597c0 0.038 0 0.128 0.265 0.174 0.258 0.031 0.518 0.042 0.778 0.034z"></path>
<path fill="#080c20" d="M21.466 30.002s0.379 0.126 0.463 0.28c0.084 0.154 0.155 0.799 0.365 0.743s0.028-0.7 0.197-0.687c0.168 0.013 1.326 0.575 1.298 0.281s-0.554-0.757-1.003-0.981c-0.449-0.224-1.215-0.323-1.215-0.323l-0.104 0.687z"></path>
<path fill="#093f68" d="M22.268 31.103c-0.032-0-0.061-0.009-0.087-0.024l0.001 0c-0.118-0.069-0.177-0.264-0.248-0.533-0.019-0.088-0.044-0.164-0.074-0.237l0.003 0.009c-0.051-0.093-0.285-0.199-0.421-0.245-0.030-0.010-0.051-0.038-0.051-0.071 0-0.004 0-0.008 0.001-0.012l-0 0 0.105-0.687c0.006-0.040 0.043-0.068 0.083-0.063 0.032 0 0.784 0.102 1.239 0.329 0.416 0.208 1.010 0.685 1.047 1.041 0.007 0.050-0.013 0.099-0.053 0.13-0.134 0.102-0.496-0.024-0.992-0.214-0.125-0.047-0.265-0.101-0.319-0.113-0.010 0.053-0.016 0.114-0.016 0.177 0 0.013 0 0.026 0.001 0.038l-0-0.002c0 0.199 0 0.425-0.17 0.469-0.014 0.004-0.030 0.006-0.047 0.006-0 0-0.001 0-0.001 0h0zM21.549 29.953c0.119 0.045 0.369 0.154 0.449 0.294 0.034 0.074 0.063 0.162 0.083 0.252l0.002 0.009c0.039 0.149 0.105 0.399 0.179 0.442 0.005 0.003 0.011 0.003 0.016 0 0.056-0.015 0.058-0.217 0.059-0.326 0-0.149 0-0.273 0.068-0.332 0.021-0.020 0.050-0.032 0.081-0.032 0.005 0 0.010 0 0.014 0.001l-0.001-0c0.143 0.032 0.268 0.075 0.386 0.13l-0.012-0.005c0.224 0.085 0.742 0.282 0.843 0.237-0.028-0.243-0.493-0.687-0.961-0.921-0.354-0.176-0.92-0.274-1.122-0.305l-0.084 0.556z"></path>
<path fill="#080c20" d="M19.039 20.887c-1.070-0.131-2.44 0.144-3.223 0.917-0.123 0.106-0.217 0.242-0.27 0.398l-0.002 0.006c-0.134 0.515-0.012 1.019-0.467 1.406-0.116 0.099-0.249 0.179-0.355 0.29-0.344 0.358-0.273 1.024 0.14 1.302-0.233 0.224-0.268 0.591-0.197 0.906 0.128 0.57 0.553 1.045 1.060 1.334s1.091 0.424 1.671 0.502c0.844 0.113 1.713 0.118 2.536-0.099s1.602-0.668 2.112-1.349c0.167-0.203 0.286-0.453 0.334-0.727l0.001-0.009c0.052-0.419-0.15-0.821-0.343-1.195 0.284-0.334 0.354-0.815 0.253-1.24s-0.356-0.803-0.655-1.12c-0.666-0.707-1.564-1.187-2.572-1.319l-0.022-0.002z"></path>
<path fill="#093f68" d="M18.488 28.1c-0.39-0.001-0.773-0.028-1.148-0.080l0.044 0.005c-0.731-0.098-1.255-0.255-1.698-0.511-0.573-0.331-0.972-0.835-1.096-1.383-0.080-0.357-0.020-0.691 0.16-0.912-0.177-0.155-0.295-0.374-0.318-0.62l-0-0.004c-0.035-0.269 0.051-0.54 0.235-0.741 0.068-0.068 0.141-0.13 0.219-0.186l0.005-0.004c0.047-0.035 0.092-0.069 0.135-0.105 0.299-0.252 0.328-0.551 0.367-0.896 0.014-0.158 0.039-0.315 0.075-0.47 0.059-0.175 0.159-0.323 0.29-0.437l0.001-0.001c0.834-0.821 2.251-1.065 3.285-0.939 1.047 0.139 1.961 0.627 2.637 1.342l0.002 0.002c0.354 0.378 0.58 0.767 0.673 1.156 0.111 0.467 0.022 0.936-0.236 1.269 0.177 0.342 0.383 0.76 0.329 1.198-0.031 0.246-0.145 0.5-0.35 0.772-0.488 0.651-1.253 1.14-2.153 1.377-0.412 0.106-0.884 0.167-1.371 0.167-0.031 0-0.062-0-0.094-0.001l0.005 0zM18.479 20.927c-1.148 0-2.113 0.438-2.611 0.93-0.114 0.098-0.2 0.224-0.25 0.367l-0.002 0.006c-0.032 0.127-0.059 0.279-0.074 0.435l-0.001 0.013c-0.039 0.347-0.075 0.706-0.419 0.995-0.046 0.040-0.095 0.075-0.143 0.112-0.077 0.055-0.145 0.111-0.207 0.173l0-0c-0.123 0.143-0.198 0.33-0.198 0.534 0 0.266 0.127 0.503 0.324 0.653l0.002 0.001c0.018 0.013 0.030 0.033 0.032 0.055 0 0.002 0 0.004 0 0.007 0 0.021-0.009 0.040-0.023 0.054l-0 0c-0.187 0.182-0.253 0.494-0.176 0.836 0.114 0.508 0.488 0.977 1.025 1.287 0.425 0.245 0.932 0.396 1.645 0.492 0.955 0.128 1.775 0.096 2.508-0.097 0.867-0.224 1.602-0.697 2.071-1.322 0.188-0.252 0.294-0.481 0.321-0.701 0.047-0.38-0.124-0.747-0.336-1.154-0.005-0.010-0.008-0.022-0.008-0.034 0-0.019 0.007-0.036 0.018-0.049l-0 0c0.249-0.292 0.339-0.742 0.237-1.175-0.087-0.364-0.299-0.73-0.637-1.089-0.656-0.691-1.538-1.161-2.527-1.291l-0.022-0.002c-0.164-0.022-0.355-0.036-0.548-0.037h-0.001z"></path>
<path fill="#080c20" d="M18.519 17.946h0.117c1.508 0 2.73 1.221 2.73 2.726v0.806h-5.576v-0.806c0-1.506 1.222-2.726 2.73-2.726h-0.001z"></path>
<path fill="#093f68" d="M21.371 21.553h-5.581c-0.041 0-0.075-0.033-0.075-0.075v-0.807c0.002-1.546 1.256-2.799 2.804-2.801h0.118c1.55 0 2.806 1.253 2.808 2.801v0.806c0 0.041-0.033 0.075-0.075 0.075zM15.868 21.404h5.427v-0.732c-0.002-1.464-1.189-2.65-2.655-2.652h-0.118c-1.466 0.002-2.653 1.188-2.654 2.652v0.732zM19.073 25.661c-0.041 0-0.075-0.033-0.075-0.075v-0.523h-0.885v0.523c0 0.041-0.033 0.075-0.075 0.075s-0.075-0.033-0.075-0.075v0-0.597c0-0.041 0.033-0.075 0.075-0.075h1.035c0.041 0 0.075 0.033 0.075 0.075v0.597c0 0.041-0.033 0.075-0.075 0.075z"></path>
<path fill="#080c20" d="M18.553 25.127c-1.527 0-2.766-0.907-2.766-2.58v-1.171c1.629 0.305 1.877-1.384 1.877-1.384 1.478 2.567 3.649 0.869 3.649 0.869v1.685c0.003 1.673-1.234 2.58-2.76 2.58z"></path>
<path fill="#093f68" d="M18.553 25.201c-1.698 0-2.841-1.066-2.841-2.655v-1.171c0-0 0-0.001 0-0.001 0-0.041 0.033-0.075 0.075-0.075 0.005 0 0.009 0 0.014 0.001l-0-0c0.449 0.084 0.834 0.018 1.136-0.199 0.539-0.384 0.653-1.116 0.653-1.12 0.005-0.031 0.029-0.056 0.060-0.062s0.063 0.008 0.079 0.036c0.443 0.77 0.991 1.223 1.631 1.344 1.003 0.195 1.898-0.493 1.907-0.5 0.013-0.010 0.029-0.016 0.046-0.016 0.041 0 0.075 0.034 0.075 0.075 0 0 0 0 0 0v0 1.685c0.003 1.59-1.14 2.656-2.835 2.656zM15.862 21.468v1.082c0 1.731 1.35 2.505 2.692 2.505s2.692-0.774 2.692-2.505v-1.545c-0.288 0.19-1.047 0.611-1.907 0.448-0.638-0.124-1.187-0.547-1.636-1.258-0.075 0.261-0.253 0.736-0.673 1.035-0.32 0.223-0.711 0.302-1.165 0.235l-0.003 0.003z"></path>
<path fill="#093f68" d="M17.45 22.456c0 0.146-0.119 0.265-0.265 0.265s-0.265-0.119-0.265-0.265c0-0.146 0.119-0.265 0.265-0.265s0.265 0.119 0.265 0.265z"></path>
<path fill="#093f68" d="M20.187 22.456c0 0.146-0.119 0.265-0.265 0.265s-0.265-0.119-0.265-0.265c0-0.146 0.119-0.265 0.265-0.265s0.265 0.119 0.265 0.265z"></path>
<path fill="#093f68" d="M18.582 23.326c-0.091-0.001-0.18-0.008-0.267-0.022l0.010 0.001c-0.037-0.005-0.066-0.036-0.066-0.074 0-0.041 0.034-0.075 0.075-0.075 0.006 0 0.012 0.001 0.017 0.002l-0-0c0.133 0.021 0.269 0.021 0.402 0 0.023-0.069-0.075-0.36-0.224-0.636-0.006-0.010-0.009-0.023-0.009-0.036 0-0.041 0.033-0.075 0.075-0.075 0.001 0 0.003 0 0.004 0h-0c0.027 0.001 0.051 0.017 0.063 0.041 0.075 0.138 0.299 0.602 0.224 0.772-0.017 0.038-0.050 0.066-0.090 0.075-0.069 0.018-0.141 0.027-0.212 0.027zM15.372 20.515h0.418v2.728h-0.418c-0.306 0-0.554-0.248-0.554-0.553v-1.622c0-0.306 0.248-0.553 0.554-0.553z"></path>
<path fill="#093f68" d="M15.79 23.317h-0.418c-0.347 0-0.628-0.281-0.629-0.627v-1.622c0-0.347 0.282-0.628 0.629-0.628h0.418c0.041 0 0.075 0.033 0.075 0.075v2.728c0 0.041-0.033 0.075-0.075 0.075zM15.372 20.59c-0.265 0-0.479 0.214-0.479 0.479v1.622c0 0.264 0.215 0.478 0.479 0.478h0.343v-2.578h-0.343zM21.735 23.243h-0.418v-2.729h0.418c0.306 0 0.554 0.248 0.554 0.553v1.622c0 0.306-0.248 0.553-0.554 0.553z"></path>
<path fill="#093f68" d="M21.734 23.317h-0.417c-0.041 0-0.075-0.033-0.075-0.075v-2.728c0-0.041 0.033-0.075 0.075-0.075h0.417c0.347 0 0.628 0.281 0.629 0.628v1.622c-0 0.346-0.282 0.627-0.629 0.627zM21.392 23.168h0.342c0.264 0 0.479-0.214 0.479-0.478v-1.622c0-0.264-0.215-0.479-0.479-0.479h-0.342v2.578zM18.579 24.349c-0.007 0-0.015 0-0.024 0-0.199 0-0.386-0.051-0.55-0.14l0.006 0.003c-0.159-0.085-0.284-0.216-0.36-0.374l-0.002-0.005c-0.003-0.008-0.004-0.016-0.004-0.025 0-0.041 0.034-0.075 0.075-0.075 0.031 0 0.057 0.018 0.068 0.044l0 0c0.012 0.031 0.317 0.736 1.57 0.252 0.008-0.003 0.017-0.005 0.027-0.005 0.041 0 0.075 0.034 0.075 0.075 0 0.032-0.020 0.059-0.047 0.070l-0 0c-0.245 0.105-0.53 0.17-0.829 0.179l-0.004 0zM16.74 24.659c-0.362 0-0.851-0.042-1.098-0.241-0.417-0.337-0.402-1.134-0.401-1.168 0-0.041 0.033-0.075 0.075-0.075s0.075 0.033 0.075 0.075v0c0 0.007-0.014 0.757 0.345 1.045s1.421 0.19 1.433 0.189c0.001-0 0.003-0 0.004-0 0.041 0 0.075 0.033 0.075 0.075 0 0.037-0.028 0.068-0.063 0.074l-0 0c-0.018 0.007-0.203 0.026-0.443 0.026z"></path>
<path fill="#093f68" d="M17.353 24.864h-0.716c-0 0-0 0-0 0-0.183 0-0.332-0.148-0.332-0.332v0c0-0.183 0.149-0.331 0.332-0.331 0 0 0 0 0 0h0.716c0.183 0 0.332 0.148 0.332 0.331s-0.149 0.332-0.332 0.332c-0 0-0 0-0 0v0zM16.637 24.349c-0 0-0 0-0 0-0.101 0-0.182 0.082-0.182 0.182v0c0 0.101 0.082 0.182 0.182 0.182 0 0 0 0 0 0h0.716c0 0 0 0 0 0 0.101 0 0.182-0.082 0.182-0.182v0c-0-0.101-0.082-0.182-0.182-0.182-0 0-0 0-0 0h-0.716z"></path>
<path fill="#080c20" d="M17.299 25.586h2.513c0.897 0 1.623 0.726 1.623 1.621v3.535h-5.757v-3.534c-0-0.895 0.725-1.621 1.621-1.622z"></path>
<path fill="#093f68" d="M21.436 30.817h-5.757c-0.041 0-0.075-0.033-0.075-0.075v-3.535c0.001-0.936 0.76-1.695 1.698-1.697h2.513c0.938 0.001 1.698 0.76 1.699 1.697v3.535c0 0.041-0.033 0.075-0.075 0.075-0.001 0-0.002-0-0.003-0h0zM15.753 30.668h5.608v-3.46c-0.001-0.854-0.694-1.546-1.549-1.547h-2.513c-0.855 0.001-1.548 0.693-1.548 1.547l0.003 3.46zM16.547 21.919c-0.064-0.002-0.115-0.055-0.115-0.119 0-0.059 0.043-0.108 0.099-0.117l0.001-0 1.235-0.155c0.002-0 0.005-0 0.007-0 0.066 0 0.119 0.053 0.119 0.119 0 0.058-0.041 0.106-0.096 0.117l-0.001 0-1.249 0.155zM20.56 21.919h-0.012l-1.235-0.155c-0.056-0.011-0.097-0.059-0.097-0.117 0-0.066 0.053-0.119 0.119-0.119 0.003 0 0.005 0 0.008 0l-0-0 1.235 0.155c0.057 0.010 0.1 0.058 0.1 0.117 0 0.064-0.050 0.116-0.113 0.119h-0l-0.003-0.001z"></path>
<path fill="#080c20" d="M18.556 26.93c-0.627 0-1.531-1.344-1.531-1.344h3.062s-0.904 1.344-1.53 1.344z"></path>
<path fill="#093f68" d="M18.556 27.005c-0.66 0-1.555-1.321-1.593-1.377-0.006-0.011-0.010-0.024-0.010-0.037s0.004-0.027 0.010-0.038l-0 0c0.013-0.024 0.038-0.040 0.066-0.040h3.062c0.028-0 0.053 0.015 0.067 0.040 0.005 0.010 0.008 0.021 0.008 0.033 0 0.015-0.005 0.030-0.013 0.041l0-0c-0.041 0.056-0.938 1.377-1.596 1.377zM17.168 25.661c0.299 0.417 0.951 1.195 1.388 1.195s1.086-0.777 1.388-1.195h-2.775z"></path>
<path fill="#093f68" d="M18.053 26.056c-0.238 0-0.591-0.343-0.663-0.417-0.014-0.014-0.022-0.032-0.022-0.053 0-0.041 0.033-0.075 0.075-0.075 0 0 0 0 0.001 0h1.104c0.029-0 0.055 0.016 0.067 0.042s0.010 0.056-0.007 0.078c-0.028 0.037-0.277 0.357-0.499 0.417-0.018 0.005-0.037 0.008-0.055 0.008zM17.632 25.661c0.173 0.149 0.358 0.266 0.437 0.245 0.099-0.028 0.224-0.145 0.318-0.245h-0.754z"></path>
<path fill="#093f68" d="M19.057 26.056c-0.001 0-0.001 0-0.002 0-0.019 0-0.037-0.003-0.054-0.008l0.001 0c-0.224-0.060-0.471-0.381-0.499-0.417-0.010-0.012-0.016-0.028-0.016-0.046 0-0.041 0.033-0.075 0.075-0.075 0 0 0 0 0 0h1.105c0.030 0 0.057 0.018 0.069 0.046s0.006 0.060-0.016 0.081c-0.070 0.073-0.426 0.417-0.664 0.417zM18.725 25.661c0.092 0.1 0.218 0.217 0.318 0.245 0.075 0.021 0.264-0.096 0.436-0.245h-0.754z"></path>
<path fill="#093f68" d="M18.563 27.005c-0.041 0-0.075-0.033-0.075-0.075v-1.344c0-0.041 0.033-0.075 0.075-0.075s0.075 0.033 0.075 0.075v0 1.344c0 0.041-0.033 0.075-0.075 0.075z"></path>
<path fill="#080c20" d="M15.065 25.287s-1.888 3.57-1.196 4.323c0.692 0.753 1.557 0.249 1.81-0.299s0.369-3.619 0.369-3.619l-0.983-0.405z"></path>
<path fill="#093f68" d="M14.658 30.067c-0.241 0-0.546-0.085-0.841-0.405-0.722-0.784 1.104-4.262 1.182-4.409 0.013-0.024 0.038-0.039 0.066-0.039 0.010 0 0.020 0.002 0.030 0.006l-0.001-0 0.982 0.406c0.030 0.012 0.049 0.042 0.046 0.075-0.005 0.126-0.117 3.094-0.374 3.648-0.18 0.367-0.518 0.632-0.924 0.709l-0.008 0.001c-0.053 0.007-0.106 0.010-0.159 0.010zM15.1 25.382c-0.535 1.025-1.702 3.604-1.173 4.178 0.254 0.276 0.555 0.396 0.869 0.346 0.362-0.071 0.659-0.304 0.815-0.618l0.003-0.007c0.224-0.488 0.34-3.136 0.357-3.539l-0.87-0.361z"></path>
<path fill="#080c20" d="M15.655 23.913s1.249-0.125 1.362 0.155c0.112 0.28-0.281 0.35-0.744 0.294 0 0 0.379 0.211 0.379 0.575s-0.603 0.756-0.603 0.756l-0.983-0.406s0.013-1.051 0.589-1.373z"></path>
<path fill="#093f68" d="M16.048 25.767c-0 0-0 0-0.001 0-0.010 0-0.020-0.002-0.029-0.005l0.001 0-0.982-0.407c-0.028-0.012-0.046-0.039-0.046-0.069 0-0.045 0.022-1.098 0.627-1.438 0.008-0.005 0.018-0.008 0.029-0.009h0c0.307-0.031 1.315-0.108 1.439 0.201 0.016 0.032 0.026 0.070 0.026 0.11 0 0.056-0.018 0.107-0.049 0.148l0-0.001c-0.101 0.132-0.339 0.161-0.553 0.157 0.129 0.122 0.211 0.292 0.217 0.481l0 0.001c0 0.4-0.612 0.802-0.638 0.821-0.012 0.007-0.026 0.010-0.040 0.010zM15.142 25.237l0.897 0.373c0.176-0.122 0.538-0.423 0.538-0.672 0-0.317-0.337-0.508-0.341-0.509-0.024-0.013-0.039-0.037-0.039-0.066 0-0.041 0.033-0.075 0.075-0.075 0.004 0 0.007 0 0.011 0.001l-0-0c0.405 0.049 0.611-0.013 0.663-0.081 0.013-0.017 0.028-0.047 0-0.111-0.056-0.14-0.698-0.165-1.271-0.109-0.446 0.265-0.52 1.045-0.532 1.25v-0.001z"></path>
<path fill="#080c20" d="M21.371 31.831h-5.853c-0 0-0.001 0-0.001 0-0.283 0-0.516-0.218-0.538-0.496l-0-0.002-0.261-3.36c-0.001-0.012-0.002-0.027-0.002-0.042 0-0.142 0.055-0.271 0.144-0.367l-0 0c0.099-0.107 0.24-0.173 0.397-0.173 0 0 0 0 0 0h6.374c0.151 0 0.295 0.063 0.397 0.173 0.089 0.096 0.144 0.225 0.144 0.367 0 0.015-0.001 0.029-0.002 0.044l0-0.002-0.261 3.36c-0.022 0.28-0.255 0.498-0.538 0.498-0 0-0 0-0 0h0z"></path>
<path fill="#093f68" d="M21.371 31.906h-5.853c-0.322-0.001-0.587-0.249-0.614-0.564l-0-0.002-0.261-3.36c-0.001-0.014-0.002-0.030-0.002-0.047 0-0.162 0.062-0.309 0.164-0.418l-0 0c0.113-0.121 0.273-0.197 0.452-0.197h6.374c0.178 0 0.339 0.076 0.451 0.197l0 0c0.102 0.109 0.164 0.256 0.164 0.418 0 0.017-0.001 0.033-0.002 0.049l0-0.002-0.261 3.36c-0.027 0.318-0.291 0.565-0.613 0.567h-0zM15.258 27.464c-0 0-0 0-0 0-0.135 0-0.257 0.057-0.342 0.149l-0 0c-0.077 0.083-0.124 0.194-0.124 0.316 0 0.013 0.001 0.026 0.002 0.038l-0-0.002 0.26 3.36c0.020 0.241 0.221 0.429 0.465 0.429h5.852c0.244-0.001 0.445-0.188 0.465-0.428l0-0.002 0.26-3.36c0.001-0.011 0.001-0.024 0.001-0.037 0-0.122-0.047-0.233-0.124-0.316l0 0c-0.085-0.092-0.207-0.149-0.342-0.149 0 0 0 0 0 0h-6.374z"></path>
<path fill="#093f68" d="M18.444 30.222c-0.338 0-0.612-0.273-0.612-0.611s0.274-0.611 0.612-0.611 0.612 0.273 0.612 0.611c-0 0.337-0.274 0.61-0.612 0.611zM18.444 29.149c-0 0-0 0-0 0-0.255 0-0.462 0.207-0.462 0.462v0c0 0.255 0.207 0.461 0.462 0.461 0 0 0 0 0 0v0c0 0 0 0 0 0 0.255 0 0.462-0.207 0.462-0.461v-0c-0.001-0.255-0.207-0.461-0.462-0.461h-0z"></path>
<path fill="#093f68" d="M28.294 19.27h-1.827c-0.046 0-0.083-0.037-0.083-0.083v-1.834c0-0.046 0.037-0.083 0.083-0.083h1.827c0.046 0 0.083 0.037 0.083 0.083v1.834c0 0.046-0.037 0.083-0.083 0.083zM26.55 19.103h1.661v-1.668h-1.66v1.668z"></path>
<path fill="#093f68" d="M26.287 20.438c-0.602 0-1.090-0.489-1.091-1.093s0.486-1.095 1.088-1.096 1.091 0.488 1.092 1.092c0 0.001 0 0.002 0 0.003 0 0.301-0.122 0.574-0.318 0.773l0-0c-0.197 0.198-0.47 0.321-0.771 0.322h-0zM26.287 18.416c-0.384 0-0.713 0.234-0.852 0.567l-0.002 0.006c-0.044 0.105-0.070 0.227-0.070 0.355 0 0.257 0.104 0.489 0.272 0.657l-0-0c0.167 0.167 0.398 0.271 0.652 0.271 0.128 0 0.251-0.026 0.362-0.074l-0.006 0.002c0.345-0.145 0.57-0.484 0.568-0.86-0.002-0.511-0.415-0.924-0.923-0.925z"></path>
</svg>
