<!-- Generated by IcoMoon.io -->
<svg version="1.1" xmlns="http://www.w3.org/2000/svg" width="27" height="32" viewBox="0 0 27 32">
<title>illustration-passions</title>
<path fill="#080c20" d="M21.148 19.74c0 0.014 0 0.030 0 0.047 0 0.769-0.067 1.522-0.195 2.253l0.011-0.078c-0.225 1.367-0.702 2.589-1.385 3.669l0.024-0.040c-1.874 2.945-5.243 4.354-8.931 4.354s-7.061-1.409-8.935-4.354c-0.258-0.399-0.5-0.858-0.7-1.339l-0.021-0.058c-0.165-0.378-0.323-0.836-0.446-1.309l-0.015-0.068c-0.066-0.273-0.129-0.555-0.175-0.846-0.111-0.639-0.175-1.374-0.175-2.124 0-0.035 0-0.069 0-0.104l-0 0.005c0.005-1.204 0.145-2.403 0.418-3.577 0.137-0.624 0.27-1.117 0.424-1.602l-0.036 0.131c0.31-1.029 0.624-1.871 0.984-2.688l-0.059 0.151c2.054-4.783 5.581-8.895 8.735-8.895 2.555 0 5.369 2.71 7.433 6.293 0.279 0.467 0.593 1.060 0.881 1.667l0.061 0.141c0.124 0.26 0.243 0.524 0.359 0.789 0.297 0.661 0.611 1.502 0.878 2.363l0.046 0.172c0.492 1.503 0.79 3.234 0.82 5.031l0 0.015z"></path>
<path fill="#093f68" d="M10.661 30.118c-3.978 0-7.287-1.617-9.080-4.435-0.264-0.407-0.511-0.875-0.716-1.366l-0.022-0.059c-0.168-0.387-0.328-0.855-0.452-1.338l-0.015-0.068c-0.063-0.228-0.125-0.519-0.17-0.816l-0.006-0.045c-0.119-0.664-0.187-1.428-0.187-2.208 0-0.015 0-0.030 0-0.045v0.002c0.012-1.284 0.17-2.524 0.458-3.714l-0.023 0.112c0.143-0.641 0.278-1.138 0.43-1.627l-0.039 0.144c0.313-1.037 0.63-1.885 0.991-2.708l-0.060 0.153c1.86-4.332 5.436-9.003 8.888-9.003 2.447 0 5.285 2.385 7.589 6.381 0.281 0.471 0.597 1.068 0.887 1.68l0.060 0.141c0.117 0.245 0.238 0.516 0.349 0.788v0.010c0.3 0.668 0.616 1.515 0.884 2.383l0.045 0.171c0.505 1.515 0.812 3.261 0.846 5.074l0 0.017c0.002 0.755-0.060 1.508-0.187 2.252-0.229 1.39-0.715 2.634-1.41 3.731l0.024-0.041c-1.793 2.818-5.102 4.435-9.089 4.435zM10.661 3.451c-2.826 0-6.352 3.613-8.564 8.786-0.298 0.66-0.611 1.496-0.876 2.352l-0.045 0.167c-0.109 0.331-0.241 0.819-0.356 1.315l-0.028 0.144c-0.26 1.056-0.415 2.271-0.426 3.521l-0 0.008c-0 0.024-0 0.053-0 0.082 0 0.746 0.064 1.477 0.186 2.187l-0.011-0.076c0.045 0.267 0.103 0.54 0.175 0.834 0.136 0.535 0.29 0.988 0.475 1.425l-0.024-0.064c0.22 0.532 0.458 0.984 0.731 1.412l-0.021-0.036c1.737 2.706 4.941 4.265 8.786 4.265s7.058-1.557 8.786-4.274c0.652-1.021 1.125-2.222 1.343-3.509l0.008-0.057c0.121-0.725 0.179-1.459 0.175-2.194-0.029-1.791-0.324-3.503-0.846-5.112l0.035 0.123c-0.309-1.021-0.621-1.853-0.975-2.661l0.060 0.153v-0.010c-0.169-0.406-0.286-0.664-0.408-0.919l0.059 0.136c-0.349-0.746-0.661-1.335-0.997-1.909l0.060 0.111c-2.215-3.826-5.006-6.211-7.299-6.211v0.010z"></path>
<path fill="#3ee9e5" d="M18.119 9.6c0.201 0.465-0.297 2.14-0.318 2.699-0.077 1.207-0.211 2.309-0.404 3.391l0.026-0.179c-0.026 0.318-0.113 0.61-0.251 0.872l0.006-0.012c-0.139 0.249-0.401 0.414-0.701 0.414-0.015 0-0.030-0-0.045-0.001l0.002 0c-0.383-0.050-0.613-0.449-0.687-0.821s-0.044-0.767-0.187-1.118c-0.143-0.351-0.565-0.642-0.911-0.471-0.142 0.085-0.255 0.209-0.325 0.358-0.278 0.504-0.371 1.084-0.46 1.65-0.303 1.937-0.942 4.101-0.816 6.058 0.040 0.635 0.159 1.333-0.535 1.731s-1.444-0.148-1.73-0.774c-0.266-0.578-0.273-1.233-0.411-1.853-0.191-0.86-1.098-3.15-2.145-1.672-0.269 0.38-0.35 0.86-0.414 1.316-0.363 2.409-0.597 5.232-0.648 8.099l-0.001 0.059c-0.011 0.633-0.024 1.307-0.385 1.832s-1.209 0.769-1.651 0.31c-0.259-0.269-0.296-0.673-0.317-1.043-0.175-3.066-0.101-6.214-0.458-9.263-0.208-1.767-1.922-4.576-3.724-5.006 0.137-0.624 0.27-1.117 0.424-1.602l-0.036 0.131c0.31-1.029 0.624-1.871 0.984-2.688l-0.059 0.151c2.045-4.786 5.572-8.898 8.727-8.898 2.555 0 5.369 2.71 7.433 6.293 0.279 0.467 0.593 1.060 0.881 1.667l0.061 0.141c-0.358-0.542-0.596-1.198-0.926-1.771z"></path>
<path fill="#093f68" d="M5.727 31.902c-0.007 0-0.015 0-0.024 0-0.277 0-0.528-0.113-0.708-0.296l-0-0c-0.318-0.329-0.35-0.824-0.363-1.153-0.063-1.113-0.095-2.256-0.124-3.36-0.053-1.944-0.109-3.957-0.334-5.891-0.19-1.621-1.819-4.437-3.593-4.86-0.077-0.018-0.133-0.086-0.133-0.168 0-0.012 0.001-0.025 0.004-0.036l-0 0.001c0.142-0.64 0.277-1.138 0.43-1.628l-0.038 0.143c0.313-1.037 0.63-1.885 0.991-2.708l-0.060 0.153c1.86-4.332 5.436-9.003 8.888-9.003 2.447 0 5.285 2.385 7.589 6.381 0.281 0.471 0.597 1.068 0.887 1.68l0.060 0.141c0.010 0.021 0.016 0.046 0.016 0.073 0 0.065-0.036 0.121-0.089 0.15l-0.001 0c-0.024 0.014-0.054 0.022-0.085 0.022-0.062 0-0.116-0.032-0.147-0.079l-0-0.001c-0.18-0.287-0.362-0.625-0.522-0.976l-0.023-0.056c-0.020-0.044-0.034-0.073-0.049-0.103l0.006 0.012c-0.037 0.299-0.105 0.654-0.185 1.056-0.067 0.296-0.117 0.595-0.149 0.896-0.054 1.008-0.162 1.941-0.323 2.856l0.021-0.141c-0.026 0.172-0.051 0.344-0.075 0.516-0.030 0.339-0.127 0.65-0.277 0.928l0.006-0.013c-0.171 0.299-0.488 0.498-0.851 0.498-0.023 0-0.046-0.001-0.069-0.002l0.003 0c-0.491-0.064-0.755-0.558-0.834-0.959-0.021-0.115-0.040-0.26-0.052-0.407l-0.001-0.016c-0.010-0.24-0.055-0.466-0.131-0.678l0.005 0.016c-0.075-0.176-0.213-0.313-0.385-0.385l-0.005-0.002c-0.041-0.019-0.089-0.030-0.14-0.030s-0.099 0.011-0.142 0.031l0.002-0.001c-0.109 0.070-0.195 0.168-0.248 0.283l-0.002 0.004c-0.264 0.482-0.35 1.046-0.441 1.593s-0.199 1.125-0.318 1.72c-0.287 1.44-0.584 2.925-0.496 4.301l0.012 0.16c0.042 0.585 0.095 1.313-0.632 1.729-0.166 0.099-0.367 0.157-0.581 0.157-0.131 0-0.256-0.022-0.373-0.062l0.008 0.002c-0.464-0.166-0.831-0.505-1.028-0.938l-0.005-0.011c-0.15-0.365-0.258-0.788-0.304-1.229l-0.002-0.020c-0.034-0.256-0.072-0.467-0.117-0.674l0.010 0.055c-0.175-0.761-0.699-1.915-1.201-2.015-0.201-0.038-0.412 0.097-0.631 0.405-0.238 0.335-0.315 0.762-0.384 1.242-0.362 2.404-0.596 5.221-0.648 8.082l-0.001 0.060c-0.011 0.635-0.023 1.354-0.416 1.925-0.251 0.346-0.638 0.581-1.081 0.624l-0.006 0-0.11 0.004zM0.834 16.053c1.872 0.584 3.496 3.405 3.691 5.11 0.229 1.951 0.283 3.969 0.337 5.922 0.030 1.101 0.061 2.237 0.123 3.35 0.021 0.368 0.057 0.715 0.269 0.934 0.145 0.143 0.349 0.212 0.552 0.186 0.341-0.035 0.634-0.212 0.824-0.47l0.002-0.003c0.334-0.487 0.35-1.124 0.35-1.739 0.050-2.738 0.27-5.47 0.659-8.181 0.075-0.525 0.161-0.993 0.444-1.392 0.304-0.429 0.636-0.611 0.986-0.544 0.825 0.162 1.353 1.739 1.473 2.28 0.047 0.213 0.081 0.432 0.112 0.642 0.040 0.404 0.137 0.8 0.289 1.177 0.162 0.354 0.452 0.627 0.81 0.761l0.010 0.003c0.077 0.027 0.165 0.042 0.258 0.042 0.149 0 0.289-0.041 0.408-0.111l-0.004 0.002c0.54-0.311 0.502-0.845 0.46-1.409l-0.011-0.163c-0.091-1.416 0.21-2.925 0.5-4.386 0.119-0.593 0.231-1.156 0.318-1.708s0.183-1.172 0.479-1.707c0.089-0.181 0.226-0.328 0.394-0.426l0.005-0.003c0.089-0.043 0.193-0.068 0.303-0.068 0.092 0 0.18 0.018 0.26 0.049l-0.005-0.002c0.268 0.108 0.478 0.314 0.588 0.573l0.003 0.007c0.089 0.245 0.139 0.501 0.15 0.761 0.010 0.131 0.026 0.262 0.049 0.392 0.059 0.312 0.248 0.643 0.537 0.688 0.238 0.003 0.459-0.125 0.571-0.332 0.118-0.229 0.198-0.497 0.223-0.78l0.001-0.008c0.025-0.172 0.051-0.344 0.075-0.516 0.15-0.886 0.251-1.78 0.301-2.677 0.030-0.319 0.081-0.637 0.154-0.949 0.12-0.602 0.285-1.428 0.174-1.678-2.211-3.854-5.002-6.238-7.295-6.238-2.826 0-6.352 3.613-8.564 8.786-0.298 0.66-0.611 1.495-0.876 2.352l-0.045 0.167c-0.128 0.451-0.252 0.888-0.348 1.308h0.005z"></path>
<path fill="#080c20" d="M17.033 21.211l1.416-1.187 1.101 1.272-1.416 1.187z"></path>
<path fill="#093f68" d="M18.133 22.651c-0 0-0 0-0 0-0.053 0-0.1-0.023-0.133-0.060l-0-0-1.101-1.271c-0.026-0.030-0.041-0.069-0.041-0.111 0-0.053 0.024-0.1 0.062-0.131l0-0 1.414-1.187c0.030-0.026 0.070-0.041 0.113-0.041 0.053 0 0.1 0.023 0.133 0.060l0 0 1.101 1.271c0.030 0.035 0.046 0.080 0.042 0.126-0.004 0.047-0.027 0.089-0.061 0.117l-0 0-1.416 1.187c-0.030 0.026-0.070 0.041-0.113 0.041-0 0-0 0-0 0v0zM17.279 21.227l0.874 1.010 1.148-0.964-0.874-1.010-1.148 0.963z"></path>
<path fill="#080c20" d="M19.549 21.292l6.425-5.12c0.245-0.191 0.4-0.486 0.4-0.817 0-0.26-0.096-0.498-0.255-0.679l0.001 0.001c-0.183-0.209-0.444-0.346-0.738-0.364l-0.003-0c-0.020-0.001-0.043-0.002-0.066-0.002-0.275 0-0.526 0.104-0.716 0.274l0.001-0.001-6.15 5.433 1.101 1.275z"></path>
<path fill="#093f68" d="M19.549 21.464c-0 0-0 0-0 0-0.053 0-0.1-0.023-0.133-0.060l-0-0-1.101-1.271c-0.026-0.030-0.043-0.069-0.043-0.113 0-0.051 0.022-0.097 0.058-0.128l0-0 6.15-5.44c0.22-0.198 0.513-0.319 0.835-0.319 0.143 0 0.281 0.024 0.409 0.068l-0.009-0.003c0.422 0.143 0.736 0.5 0.816 0.938l0.001 0.008c0.011 0.061 0.017 0.132 0.017 0.204 0 0.387-0.182 0.732-0.466 0.953l-0.003 0.002-6.423 5.117c-0.030 0.027-0.069 0.043-0.11 0.045zM18.692 20.036l0.874 1.017 6.292-5.012c0.201-0.16 0.329-0.404 0.329-0.678 0-0.094-0.015-0.184-0.042-0.268l0.002 0.006c-0.113-0.339-0.416-0.584-0.78-0.608l-0.003-0c-0.017-0.001-0.038-0.002-0.059-0.002-0.229 0-0.438 0.086-0.596 0.228l0.001-0.001-6.018 5.318z"></path>
<path fill="#080c20" d="M16.455 21.428c0.108-0.091 0.248-0.146 0.401-0.146 0.188 0 0.357 0.083 0.471 0.215l0.001 0.001 0.565 0.653c0.092 0.105 0.148 0.244 0.148 0.396 0 0.186-0.084 0.352-0.215 0.463l-0.001 0.001c-0.108 0.091-0.248 0.146-0.401 0.146-0.188 0-0.357-0.083-0.471-0.215l-0.001-0.001-0.565-0.652c-0.092-0.106-0.148-0.244-0.148-0.396 0-0.186 0.084-0.352 0.215-0.463l0.001-0.001z"></path>
<path fill="#093f68" d="M17.397 23.417c-0.002 0-0.004 0-0.006 0-0.167 0-0.318-0.074-0.42-0.19l-0.001-0.001-0.874-1.001c-0.083-0.095-0.133-0.221-0.133-0.358 0-0.169 0.077-0.32 0.197-0.421l0.001-0.001 0.35-0.296c0.099-0.082 0.228-0.132 0.368-0.132 0.014 0 0.029 0.001 0.043 0.002l-0.002-0c0.149 0.011 0.287 0.081 0.383 0.193l0.874 1.001c0.084 0.095 0.135 0.221 0.135 0.358 0 0.016-0.001 0.031-0.002 0.046l0-0.002c-0.011 0.147-0.081 0.283-0.196 0.377l-0.35 0.296c-0.097 0.080-0.222 0.129-0.36 0.129-0.003 0-0.005-0-0.008-0h0zM16.883 21.352c-0.053 0.001-0.101 0.019-0.138 0.050l0-0-0.35 0.296c-0.041 0.035-0.068 0.085-0.073 0.142l-0 0.001c-0 0.005-0.001 0.011-0.001 0.017 0 0.052 0.020 0.099 0.052 0.134l-0-0 0.874 1.001c0.039 0.046 0.097 0.074 0.162 0.074 0.052 0 0.101-0.019 0.138-0.051l-0 0 0.349-0.296c0.045-0.038 0.074-0.095 0.074-0.158 0-0.052-0.019-0.1-0.051-0.136l0 0-0.874-1.001c-0.035-0.042-0.087-0.069-0.144-0.072l-0.001-0-0.016-0.002z"></path>
<path fill="#080c20" d="M16.158 21.677l1.368 1.579s-0.077 0.65-1.224 1.333c-0.245 0.148-0.532 0.293-0.831 0.416l-0.043 0.016c-1.989 0.81-3.183-0.568-3.183-0.568 1.164 0.457 1.545-0.614 1.922-1.762l0.047-0.141c0.386-1.199 1.942-0.874 1.942-0.874z"></path>
<path fill="#093f68" d="M14.206 25.445c-0.821-0.003-1.562-0.34-2.097-0.881l-0-0c-0.026-0.030-0.042-0.069-0.042-0.112 0-0.038 0.012-0.073 0.033-0.101l-0 0c0.032-0.044 0.084-0.072 0.142-0.072 0.023 0 0.046 0.005 0.066 0.013l-0.001-0c0.23 0.115 0.499 0.127 0.739 0.033 0.468-0.217 0.725-0.998 0.951-1.686l0.047-0.145c0.35-1.061 1.559-1.111 2.15-0.987 0.039 0.007 0.072 0.028 0.096 0.056l0 0 1.368 1.581c0.032 0.036 0.047 0.083 0.042 0.131 0 0.029-0.101 0.741-1.311 1.461-0.251 0.151-0.546 0.299-0.853 0.426l-0.046 0.017c-0.406 0.172-0.843 0.263-1.285 0.267zM12.856 24.728c0.495 0.303 1.353 0.602 2.501 0.132 0.334-0.135 0.615-0.276 0.883-0.434l-0.030 0.017c0.839-0.499 1.066-0.972 1.126-1.142l-1.271-1.466c-0.269-0.043-1.384-0.16-1.688 0.769l-0.047 0.143c-0.246 0.754-0.524 1.611-1.134 1.893-0.099 0.046-0.214 0.078-0.335 0.089l-0.004 0z"></path>
<path fill="#3ee9e5" d="M12.35 23.148c0.080 0.188 0.181 0.367 0.301 0.533 0.154 0.172 0.463 0.122 0.647 0.027 0.188-0.105 0.343-0.25 0.455-0.425l0.003-0.005c0.119-0.172 0.215-0.361 0.332-0.537 0.016-0.029 0.039-0.053 0.067-0.068l0.001-0c0.1-0.050 0.192 0.112 0.219 0.182 0.043 0.123 0.071 0.25 0.084 0.379 0.019 0.136 0.033 0.272 0.047 0.408-0.004 0.073 0.007 0.147 0.033 0.215 0.016 0.030 0.042 0.052 0.074 0.062l0.001 0c0.007 0.001 0.015 0.002 0.024 0.002 0.016 0 0.031-0.003 0.045-0.007l-0.001 0c0.124-0.047 0.232-0.124 0.358-0.16 0.032-0.013 0.068-0.020 0.107-0.020 0.101 0 0.189 0.051 0.242 0.128l0.001 0.001c0.047 0.098 0 0.215 0.016 0.323 0.016 0.119 0.102 0.216 0.219 0.25 0.079 0.015 0.161 0.020 0.242 0.014 0.156 0.005 0.308 0.056 0.435 0.146-0.245 0.148-0.532 0.293-0.831 0.416l-0.043 0.016c-1.139 0.464-2.448 0.231-3.349-0.597-0.207-0.184-0.342-0.444-0.36-0.737l-0-0.003z"></path>
<path fill="#093f68" d="M14.208 25.428c-0.009 0-0.020 0-0.030 0-0.858 0-1.64-0.331-2.223-0.873l0.002 0.002c-0.239-0.214-0.395-0.517-0.414-0.857l-0-0.003c0-0.095 0.078-0.172 0.175-0.172s0.175 0.077 0.175 0.172c0.018 0.247 0.132 0.464 0.305 0.617l0.001 0.001c0.852 0.778 2.088 0.994 3.16 0.551 0.225-0.091 0.402-0.173 0.574-0.262l-0.037 0.018h-0.098c-0.015 0.001-0.032 0.002-0.049 0.002-0.061 0-0.121-0.008-0.178-0.023l0.005 0.001c-0.185-0.050-0.323-0.203-0.349-0.393l-0-0.002c-0.004-0.026-0.006-0.056-0.006-0.086s0.002-0.060 0.006-0.089l-0 0.003c0.003-0.016 0.005-0.034 0.005-0.053s-0.002-0.037-0.005-0.054l0 0.002c-0.024-0.017-0.053-0.027-0.085-0.027-0.019 0-0.037 0.004-0.054 0.010l0.001-0c-0.067 0.022-0.125 0.047-0.18 0.078l0.005-0.003c-0.056 0.030-0.115 0.057-0.175 0.081-0.036 0.015-0.079 0.023-0.123 0.023-0.018 0-0.037-0.001-0.054-0.004l0.002 0c-0.080-0.019-0.145-0.069-0.184-0.136l-0.001-0.001c-0.036-0.066-0.058-0.144-0.058-0.228 0-0.007 0-0.014 0-0.020l-0 0.001v-0.119c-0.012-0.108-0.023-0.217-0.039-0.325-0.014-0.128-0.040-0.245-0.077-0.357l0.004 0.012-0.012-0.026c-0.040 0.062-0.077 0.126-0.116 0.189-0.058 0.098-0.117 0.199-0.185 0.296-0.132 0.204-0.308 0.369-0.517 0.483l-0.007 0.004c-0.273 0.139-0.655 0.16-0.858-0.067-0.096-0.115-0.177-0.246-0.238-0.389l-0.004-0.010c-0.026-0.055-0.052-0.112-0.082-0.172-0.014-0.025-0.023-0.054-0.023-0.086 0-0.065 0.036-0.121 0.088-0.151l0.001-0c0.025-0.014 0.055-0.023 0.087-0.023 0.065 0 0.122 0.035 0.153 0.087l0 0.001c0.033 0.062 0.063 0.124 0.093 0.188 0.047 0.112 0.108 0.218 0.183 0.315 0.079 0.086 0.29 0.063 0.439-0.012 0.16-0.091 0.295-0.219 0.391-0.373 0.061-0.088 0.116-0.172 0.175-0.277s0.103-0.172 0.159-0.258c0.033-0.054 0.080-0.099 0.136-0.129 0.031-0.014 0.068-0.023 0.107-0.023s0.075 0.008 0.108 0.023l-0.002-0.001c0.116 0.061 0.204 0.162 0.248 0.284 0.046 0.135 0.077 0.275 0.093 0.417 0.016 0.112 0.028 0.225 0.040 0.344v0.139c0 0.005 0.001 0.011 0.001 0.016s-0 0.011-0.001 0.017l0-0.001 0.079-0.038c0.075-0.042 0.154-0.076 0.236-0.101 0.046-0.017 0.099-0.026 0.154-0.026 0.168 0 0.315 0.090 0.395 0.224l0.001 0.002c0.038 0.089 0.049 0.187 0.033 0.282-0.001 0.014-0.002 0.030-0.002 0.047s0.001 0.033 0.002 0.049l-0-0.002c0.008 0.050 0.044 0.091 0.093 0.107 0.040 0.005 0.081 0.005 0.121 0h0.079c0.188 0.006 0.37 0.066 0.524 0.172 0.044 0.031 0.073 0.082 0.073 0.14 0 0.062-0.033 0.117-0.083 0.147l-0.001 0c-0.251 0.151-0.546 0.299-0.853 0.426l-0.046 0.017c-0.4 0.169-0.83 0.26-1.265 0.267z"></path>
<path fill="#3ee9e5" d="M12.572 27.672c0.033-0.423-0.042-1.099-0.393-1.406-0.76-0.666-1.293 0.435-1.321 1.032-0.005 0.047-0.008 0.102-0.008 0.157 0 0.32 0.097 0.618 0.263 0.865l-0.004-0.006c0.152 0.212 0.398 0.348 0.675 0.348 0.101 0 0.197-0.018 0.286-0.051l-0.006 0.002c0.344-0.15 0.479-0.571 0.507-0.943z"></path>
<path fill="#093f68" d="M11.797 28.848c-0.339-0.006-0.638-0.17-0.826-0.422l-0.002-0.003c-0.185-0.267-0.296-0.598-0.296-0.954 0-0.061 0.003-0.122 0.010-0.182l-0.001 0.007c0.021-0.427 0.28-1.151 0.771-1.354 0.191-0.081 0.491-0.11 0.841 0.196 0.395 0.344 0.491 1.049 0.453 1.549-0.024 0.315-0.135 0.877-0.608 1.090-0.107 0.048-0.223 0.072-0.341 0.072zM11.71 26.23c-0 0-0 0-0 0-0.045 0-0.087 0.010-0.125 0.028l0.002-0.001c-0.296 0.122-0.537 0.657-0.556 1.055-0.005 0.046-0.009 0.099-0.009 0.153 0 0.28 0.085 0.541 0.23 0.757l-0.003-0.005c0.161 0.213 0.482 0.365 0.741 0.248 0.323-0.146 0.392-0.612 0.407-0.805 0.033-0.439-0.058-1.022-0.336-1.265-0.090-0.094-0.213-0.155-0.35-0.165l-0.002-0z"></path>
<path fill="#080c20" d="M6.519 6.469l3.123-1.537v-2.924l-3.123-1.54c-0.804-0.396-1.8 0.105-1.8 0.908v4.193c0 0.797 0.996 1.296 1.8 0.9z"></path>
<path fill="#093f68" d="M5.92 6.78c-0.001 0-0.002 0-0.003 0-0.29 0-0.561-0.081-0.792-0.222l0.007 0.004c-0.349-0.2-0.582-0.569-0.587-0.992v-4.193c0.005-0.411 0.229-0.788 0.591-0.993 0.226-0.137 0.499-0.218 0.79-0.218 0.246 0 0.479 0.058 0.685 0.16l-0.009-0.004 3.123 1.536c0.059 0.029 0.097 0.089 0.096 0.155v2.925c-0.001 0.067-0.039 0.125-0.095 0.153l-0.001 0-3.127 1.533c-0.197 0.099-0.429 0.156-0.675 0.156-0.001 0-0.002 0-0.003 0h0zM5.92 0.502c-0.224 0.002-0.432 0.065-0.61 0.175l0.005-0.003c-0.249 0.141-0.415 0.401-0.421 0.701v4.193c0.007 0.301 0.175 0.561 0.42 0.698l0.004 0.002c0.173 0.105 0.382 0.167 0.606 0.167 0.189 0 0.368-0.045 0.527-0.124l-0.007 0.003 3.027-1.49v-2.713l-3.027-1.49c-0.151-0.076-0.329-0.12-0.518-0.12-0.002 0-0.005 0-0.007 0h0z"></path>
<path fill="#093f68" d="M6.981 4.645c-0.001 0-0.003 0-0.005 0-0.095 0-0.172-0.077-0.172-0.172 0-0.075 0.048-0.138 0.114-0.162l0.001-0 2.129-0.796-2.821-0.655c-0.063-0.014-0.112-0.060-0.131-0.119l-0-0.001c-0.005-0.015-0.008-0.033-0.008-0.052 0-0.047 0.018-0.089 0.048-0.12l-0 0c0.033-0.035 0.080-0.056 0.131-0.056 0.014 0 0.028 0.002 0.042 0.005l-0.001-0 3.375 0.785c0.075 0.017 0.13 0.080 0.135 0.156 0 0.003 0 0.007 0 0.011 0 0.074-0.046 0.137-0.112 0.161l-0.001 0-2.662 0.998c-0.018 0.010-0.040 0.017-0.062 0.019l-0.001 0z"></path>
<path fill="#080c20" d="M14.819 6.469l-3.123-1.537v-2.924l3.124-1.538c0.804-0.395 1.804 0.105 1.804 0.901v4.198c0 0.797-1 1.296-1.804 0.9z"></path>
<path fill="#093f68" d="M15.419 6.78c-0.001 0-0.001 0-0.002 0-0.246 0-0.479-0.058-0.685-0.161l0.009 0.004-3.123-1.538c-0.057-0.028-0.096-0.086-0.096-0.153v-2.925c0-0 0-0 0-0.001 0-0.067 0.039-0.126 0.095-0.154l0.001-0 3.123-1.537c0.197-0.099 0.43-0.156 0.676-0.156 0.292 0 0.565 0.081 0.797 0.222l-0.007-0.004c0.352 0.2 0.587 0.571 0.591 0.997v4.193c-0.006 0.425-0.24 0.794-0.585 0.99l-0.006 0.003c-0.224 0.137-0.496 0.218-0.786 0.218-0.001 0-0.002 0-0.002 0h0zM11.871 4.826l3.027 1.49c0.152 0.076 0.331 0.121 0.52 0.121 0.224 0 0.433-0.062 0.611-0.17l-0.005 0.003c0.25-0.139 0.418-0.4 0.425-0.699l0-0.001v-4.192c-0.007-0.301-0.175-0.561-0.421-0.698l-0.004-0.002c-0.173-0.105-0.382-0.167-0.605-0.167-0.19 0-0.369 0.045-0.527 0.124l0.007-0.003-3.027 1.489v2.706z"></path>
<path fill="#093f68" d="M14.358 4.645c-0 0-0.001 0-0.001 0-0.022 0-0.043-0.004-0.063-0.012l0.001 0-2.662-1.003c-0.066-0.025-0.113-0.088-0.113-0.162 0-0.004 0-0.008 0-0.012l-0 0.001c0.005-0.075 0.060-0.139 0.135-0.156l3.375-0.784c0.012-0.003 0.026-0.005 0.040-0.005 0.052 0 0.098 0.022 0.131 0.056l0 0c0.044 0.046 0.059 0.112 0.040 0.172s-0.069 0.106-0.13 0.12l-0.001 0-2.821 0.656 2.129 0.784c0.068 0.024 0.115 0.088 0.115 0.162 0 0.095-0.077 0.172-0.172 0.172-0.002 0-0.003-0-0.005-0h0v0.010z"></path>
<path fill="#080c20" d="M10.48 1.772h0.376c0.652 0 1.18 0.528 1.18 1.18v1.032c0 0.652-0.528 1.18-1.18 1.18h-0.376c-0.652 0-1.18-0.528-1.18-1.18v-1.032c0-0.652 0.528-1.18 1.18-1.18z"></path>
<path fill="#093f68" d="M11.361 5.333h-1.372c-0.473-0.002-0.856-0.379-0.858-0.845v-2.044c0.001-0.466 0.385-0.844 0.858-0.845h1.372c0.473 0.001 0.857 0.379 0.858 0.845v2.049c-0.005 0.464-0.387 0.838-0.858 0.839zM9.983 1.944c-0.28 0.001-0.507 0.225-0.508 0.501v2.049c0.004 0.274 0.23 0.495 0.508 0.495h1.377c0.28-0.001 0.507-0.224 0.508-0.501v-2.044c-0.001-0.276-0.228-0.5-0.508-0.501h-1.377z"></path>
</svg>
