<!-- Generated by IcoMoon.io -->
<svg version="1.1" xmlns="http://www.w3.org/2000/svg" width="29" height="32" viewBox="0 0 29 32">
<title>illustration-hero-right</title>
<path fill="#080c20" d="M5.431 28.454l-0.903 2.553h2.55z"></path>
<path fill="#093f68" d="M7.078 31.093h-2.55c-0.029-0-0.054-0.014-0.070-0.036l-0-0c-0.010-0.014-0.016-0.031-0.016-0.050 0-0.010 0.002-0.020 0.005-0.029l-0 0.001 0.903-2.549c0.011-0.031 0.038-0.053 0.070-0.057 0.034-0.005 0.067 0.010 0.086 0.039l1.647 2.553c0.008 0.013 0.014 0.029 0.014 0.047 0 0.015-0.004 0.029-0.011 0.042l0-0c-0.015 0.027-0.043 0.045-0.075 0.045v0l-0.003-0.004zM4.65 30.921h2.27l-1.467-2.273-0.803 2.273zM14.835 19.512c-0.089-0.022-0.192-0.034-0.297-0.034-0.122 0-0.24 0.016-0.351 0.047l0.009-0.002c-0.745 0.229-1.355 0.707-1.747 1.337l-0.008 0.013c-0.013-0.057-0.020-0.122-0.020-0.189 0-0.274 0.122-0.52 0.315-0.686l0.001-0.001c-0.503 0.009-0.941 0.284-1.178 0.69l-0.004 0.007c-0.198 0.351-0.28 0.964-0.015 1.308 0.233 0.302 0.66 0.247 0.9 0.487 0.149 0.15 0.203 0.689 0.281 0.897 0.201 0.542 0.439 1.070 0.658 1.605l4.769-0.891s-0.080-1.19-0.258-2.163c-0.178-0.973-0.851-2.193-1.99-1.705-0.066-0.134-0.159-0.245-0.271-0.332l-0.002-0.002c-0.22-0.184-0.488-0.319-0.782-0.382l-0.012-0.002z"></path>
<path fill="#093f68" d="M13.38 25.076c-0.036-0-0.066-0.022-0.079-0.053l-0-0.001c-0.198-0.506-0.275-0.687-0.354-0.868l0.123 0.318c-0.145-0.345-0.296-0.7-0.429-1.057-0.029-0.086-0.057-0.193-0.078-0.303l-0.002-0.016c-0.043-0.197-0.101-0.467-0.181-0.548-0.105-0.087-0.232-0.151-0.371-0.184l-0.006-0.001c-0.181-0.059-0.387-0.124-0.53-0.309-0.28-0.362-0.214-1.010 0.008-1.403 0.255-0.439 0.721-0.731 1.255-0.739h0.001c0.047 0 0.086 0.039 0.086 0.086 0 0.026-0.012 0.050-0.031 0.066l-0 0c-0.159 0.137-0.265 0.332-0.283 0.552l-0 0.003c0.408-0.554 0.978-0.967 1.64-1.172l0.023-0.006c0.111-0.031 0.238-0.049 0.369-0.049 0.113 0 0.222 0.013 0.327 0.038l-0.010-0.002c0.319 0.070 0.598 0.211 0.83 0.406l-0.003-0.002c0.101 0.082 0.186 0.177 0.255 0.285l0.003 0.005c0.131-0.056 0.284-0.089 0.445-0.089 0.199 0 0.387 0.051 0.551 0.14l-0.006-0.003c0.588 0.316 0.924 1.112 1.043 1.751 0.179 0.967 0.257 2.161 0.262 2.173 0.001 0.042-0.029 0.079-0.070 0.086l-4.785 0.897zM12.521 20.104c-0.384 0.073-0.702 0.306-0.888 0.626l-0.003 0.006c-0.196 0.345-0.251 0.916-0.021 1.213 0.11 0.142 0.274 0.195 0.446 0.25 0.173 0.041 0.323 0.121 0.448 0.23l-0.001-0.001c0.116 0.116 0.172 0.379 0.227 0.634 0.022 0.117 0.048 0.216 0.079 0.313l-0.005-0.018c0.131 0.353 0.281 0.708 0.429 1.050 0.069 0.163 0.137 0.325 0.205 0.488l4.625-0.862c-0.021-0.277-0.102-1.26-0.258-2.077-0.106-0.572-0.42-1.343-0.954-1.631-0.277-0.149-0.585-0.153-0.916-0.010-0.010 0.004-0.021 0.007-0.033 0.007s-0.023-0.002-0.034-0.007l0.001 0c-0.021-0.009-0.038-0.025-0.047-0.046l-0-0.001c-0.062-0.121-0.146-0.222-0.249-0.3l-0.002-0.002c-0.208-0.175-0.461-0.302-0.74-0.363l-0.011-0.002c-0.198-0.047-0.404-0.043-0.601 0.009-0.724 0.222-1.317 0.688-1.697 1.3l-0.007 0.013c-0.015 0.025-0.042 0.041-0.073 0.041-0.005 0-0.009-0-0.013-0.001l0 0c-0.034-0.006-0.062-0.032-0.069-0.065l-0-0.001c-0.059-0.275 0.001-0.563 0.165-0.791z"></path>
<path fill="#080c20" d="M13.517 24.703c0.076 0.41-0.158 0.798-0.524 0.866s-0.724-0.209-0.801-0.62c-0.076-0.41 0.158-0.798 0.524-0.866s0.724 0.209 0.801 0.62z"></path>
<path fill="#093f68" d="M12.882 25.672c-0.366 0-0.698-0.29-0.772-0.7-0.086-0.457 0.182-0.891 0.593-0.968 0.039-0.007 0.083-0.012 0.129-0.012 0.171 0 0.327 0.060 0.45 0.159l-0.001-0.001c0.35 0.281 0.442 0.776 0.216 1.165-0.104 0.177-0.277 0.304-0.481 0.344l-0.005 0.001c-0.037 0.008-0.079 0.012-0.123 0.012-0.002 0-0.004 0-0.005-0h0zM12.277 24.94c0.067 0.363 0.381 0.609 0.7 0.551 0.159-0.032 0.291-0.13 0.369-0.263l0.001-0.003c0.181-0.313 0.108-0.711-0.172-0.939-0.094-0.076-0.215-0.122-0.346-0.122-0.034 0-0.066 0.003-0.098 0.009l0.003-0c-0.318 0.060-0.524 0.404-0.456 0.767h-0.002z"></path>
<path fill="#080c20" d="M15.62 26.817c1.454-0.271 2.422-2.317 2.155-3.754l-0.321 0.195s-1.104-0.934-1.293-2.057c0 0-0.31 0.734-1.594 1.041-1.397 0.333-2.237 0.19-2.237 0.19l0.38 2.238c0.267 1.433 1.459 2.42 2.91 2.148z"></path>
<path fill="#093f68" d="M15.146 26.948c-0.004 0-0.008 0-0.013 0-0.554 0-1.064-0.186-1.471-0.5l0.006 0.004c-0.542-0.431-0.92-1.047-1.041-1.751l-0.002-0.017-0.381-2.241c-0.001-0.004-0.001-0.009-0.001-0.014 0-0.024 0.010-0.045 0.025-0.061v0c0.015-0.016 0.037-0.025 0.061-0.025 0.005 0 0.010 0 0.014 0.001l-0.001-0c0.009 0 0.841 0.135 2.201-0.19 1.221-0.291 1.533-0.983 1.536-0.99 0.013-0.031 0.044-0.053 0.079-0.053 0.042 0 0.078 0.031 0.085 0.071l0 0c0.16 0.948 1.010 1.776 1.218 1.965l0.267-0.164c0.013-0.008 0.028-0.012 0.044-0.012 0.013 0 0.025 0.003 0.036 0.008l-0.001-0c0.026 0.012 0.044 0.035 0.049 0.063 0.134 0.723-0.031 1.609-0.441 2.371-0.438 0.813-1.088 1.354-1.783 1.484-0.145 0.030-0.313 0.048-0.485 0.050l-0.002 0zM12.435 22.533l0.361 2.121c0.115 0.677 0.469 1.255 0.971 1.657l0.005 0.004c0.379 0.289 0.858 0.463 1.379 0.463 0.161 0 0.317-0.017 0.469-0.048l-0.015 0.003c0.644-0.121 1.25-0.629 1.663-1.396 0.369-0.69 0.531-1.472 0.444-2.132l-0.212 0.129c-0.032 0.019-0.072 0.016-0.1-0.008-0.043-0.036-0.997-0.854-1.276-1.896-0.184 0.251-0.621 0.68-1.536 0.898-1.114 0.265-1.876 0.234-2.152 0.206z"></path>
<path fill="#093f68" d="M15.202 23.569c0.025 0.133-0.063 0.261-0.195 0.285s-0.26-0.063-0.284-0.196c-0.025-0.133 0.063-0.261 0.195-0.285s0.26 0.063 0.284 0.196z"></path>
<path fill="#093f68" d="M13.46 23.842c0 0.135-0.109 0.245-0.244 0.245s-0.244-0.11-0.244-0.245c0-0.135 0.109-0.245 0.244-0.245s0.244 0.11 0.244 0.245z"></path>
<path fill="#093f68" d="M14.188 24.675h-0.035c-0.045-0.003-0.084-0.027-0.107-0.062l-0-0c-0.1-0.145 0.015-0.576 0.070-0.755 0.010-0.037 0.043-0.063 0.083-0.063 0.025 0 0.048 0.011 0.064 0.028l0 0c0.014 0.015 0.022 0.036 0.022 0.058 0 0.010-0.002 0.020-0.005 0.029l0-0.001c-0.077 0.254-0.12 0.517-0.099 0.595 0.125-0.005 0.242-0.030 0.351-0.072l-0.007 0.003c0.008-0.002 0.016-0.004 0.025-0.004 0.037 0 0.068 0.023 0.080 0.055l0 0.001c0.003 0.009 0.005 0.019 0.005 0.030 0 0.035-0.021 0.065-0.051 0.079l-0.001 0c-0.117 0.044-0.252 0.073-0.393 0.080l-0.003 0zM14.566 22.841c-0.004 0-0.009 0.001-0.014 0.001-0.058 0-0.11-0.029-0.141-0.074l-0-0.001c-0.019-0.028-0.031-0.062-0.031-0.099 0-0.027 0.006-0.052 0.017-0.075l-0 0.001c0.026-0.055 0.079-0.093 0.141-0.099l0.001-0 1.147-0.199c0.061-0.011 0.122 0.012 0.162 0.059 0.025 0.030 0.040 0.069 0.040 0.111 0 0.021-0.004 0.042-0.011 0.061l0-0.001c-0.021 0.057-0.071 0.1-0.131 0.11l-0.001 0-1.144 0.202c-0.011 0.002-0.022 0.003-0.033 0.003zM12.552 23.145c-0.003 0-0.006 0-0.010 0-0.092 0-0.167-0.072-0.172-0.162l-0-0c-0-0.003-0-0.007-0-0.010 0-0.092 0.071-0.166 0.162-0.172l0.001-0 1.155-0.137c0.061-0.007 0.122 0.019 0.159 0.069s0.045 0.115 0.020 0.172c-0.024 0.056-0.076 0.096-0.138 0.104l-0.001 0-1.155 0.137h-0.021z"></path>
<path fill="#080c20" d="M17.288 23.345s0.551-0.559 0.996-0.056c0.445 0.503 0.296 1.53-0.803 1.445z"></path>
<path fill="#093f68" d="M17.612 24.825c-0.044 0-0.086 0-0.136-0.006-0.045-0.004-0.080-0.041-0.080-0.086 0-0.002 0-0.005 0-0.007l-0 0c0.004-0.048 0.045-0.083 0.092-0.080 0.42 0.033 0.729-0.105 0.869-0.389 0.047-0.103 0.075-0.223 0.075-0.35 0-0.216-0.080-0.413-0.212-0.564l0.001 0.001c-0.083-0.104-0.208-0.173-0.348-0.181l-0.001-0c-0.272-0.009-0.521 0.237-0.523 0.24-0.016 0.016-0.037 0.025-0.061 0.025s-0.045-0.010-0.061-0.025v0c-0.015-0.016-0.025-0.037-0.025-0.061s0.010-0.045 0.025-0.061v0c0.012-0.012 0.304-0.298 0.649-0.29 0.191 0.009 0.36 0.099 0.472 0.238l0.001 0.001c0.159 0.179 0.256 0.416 0.256 0.676 0 0.155-0.034 0.302-0.096 0.433l0.003-0.006c-0.093 0.191-0.331 0.492-0.899 0.492zM14.605 24.238c-0.171-0.001-0.312-0.13-0.333-0.296l-0-0.002-0.086-0.697c-0-0.003-0.001-0.007-0.001-0.011 0-0.044 0.033-0.080 0.075-0.085l0-0 1.625-0.196c0.003-0 0.007-0.001 0.010-0.001 0.044 0 0.080 0.033 0.085 0.076l0 0 0.086 0.697c0.002 0.012 0.002 0.026 0.002 0.040 0 0.079-0.027 0.152-0.073 0.21l0.001-0.001c-0.054 0.069-0.133 0.115-0.223 0.126l-0.002 0-1.12 0.135c-0.013 0.002-0.027 0.003-0.042 0.003-0.002 0-0.004-0-0.006-0h0zM14.369 23.311l0.074 0.611c0.010 0.082 0.079 0.146 0.164 0.146 0.007 0 0.013-0 0.020-0.001l-0.001 0 1.12-0.135c0.082-0.011 0.145-0.080 0.145-0.165 0-0.007-0-0.014-0.001-0.020l0 0.001-0.073-0.611-1.448 0.175zM12.597 24.481c-0.172-0-0.313-0.129-0.334-0.296l-0-0.002-0.086-0.697c-0-0.003-0.001-0.007-0.001-0.011 0-0.044 0.033-0.080 0.075-0.085l0-0 1.618-0.196c0.003-0 0.006-0.001 0.010-0.001 0.044 0 0.080 0.033 0.085 0.075l0 0 0.086 0.697c0.022 0.185-0.109 0.353-0.293 0.376l-1.116 0.135-0.045 0.003zM12.36 23.554l0.074 0.611c0.005 0.044 0.027 0.084 0.061 0.111 0.027 0.022 0.062 0.035 0.1 0.035 0.008 0 0.015-0.001 0.022-0.002l-0.001 0 1.124-0.137c0.082-0.010 0.145-0.080 0.145-0.164 0-0.007-0-0.014-0.001-0.020l0 0.001-0.074-0.611-1.451 0.177z"></path>
<path fill="#093f68" d="M15.924 23.391c-0.002 0-0.003 0-0.005 0-0.046 0-0.083-0.036-0.086-0.081v-0c-0-0.002-0-0.003-0-0.005 0-0.046 0.036-0.083 0.081-0.086h0l1.097-0.133c0.003-0 0.006-0.001 0.010-0.001 0.044 0 0.081 0.033 0.086 0.076l0 0c0 0.003 0.001 0.006 0.001 0.010 0 0.044-0.033 0.081-0.076 0.086l-0 0-1.096 0.133h-0.010zM14.532 25.536c-0.185-0.002-0.362-0.034-0.527-0.090l0.012 0.004c-0.035-0.012-0.060-0.044-0.060-0.082 0-0.025 0.011-0.048 0.028-0.063l0-0c0.023-0.021 0.055-0.028 0.084-0.019 0.134 0.049 0.288 0.078 0.449 0.078 0.363 0 0.693-0.145 0.934-0.38l-0 0c0.184-0.171 0.337-0.374 0.449-0.6l0.005-0.012c0.014-0.030 0.044-0.051 0.079-0.051 0.013 0 0.025 0.003 0.035 0.008l-0.001-0c0.043 0.019 0.063 0.070 0.044 0.114-0.005 0.016-0.493 1.095-1.531 1.095z"></path>
<path fill="#ffc9b0" d="M14.32 23.609l-0.394 0.034z"></path>
<path fill="#093f68" d="M13.926 23.73c-0 0-0 0-0 0-0.045 0-0.082-0.034-0.086-0.078l-0-0c-0-0.002-0-0.005-0-0.008 0-0.021 0.008-0.040 0.020-0.055l-0 0c0.014-0.017 0.035-0.029 0.058-0.031l0-0 0.393-0.034c0.002-0 0.005-0 0.007-0 0.047 0 0.086 0.038 0.086 0.086 0 0.021-0.008 0.040-0.020 0.055l0-0c-0.014 0.017-0.035 0.029-0.058 0.031l-0 0-0.393 0.034h-0.007z"></path>
<path fill="#080c20" d="M11.285 24.93h-6.814c-0 0-0 0-0 0-0.095 0-0.178 0.048-0.228 0.12l-0.001 0.001c-0.030 0.044-0.048 0.098-0.048 0.156 0 0.037 0.007 0.072 0.020 0.104l-0.001-0.002 1.843 4.766h7.41l-1.923-4.97c-0.042-0.103-0.141-0.175-0.257-0.175h-0z"></path>
<path fill="#093f68" d="M13.465 30.162h-7.407c-0.036-0-0.067-0.023-0.080-0.055l-0-0.001-1.843-4.765c-0.016-0.039-0.025-0.085-0.025-0.133 0-0.076 0.023-0.147 0.063-0.206l-0.001 0.001c0.066-0.096 0.174-0.159 0.298-0.16h6.813c0 0 0.001 0 0.001 0 0.152 0 0.282 0.094 0.335 0.228l0.001 0.002 1.923 4.97c0.004 0.009 0.006 0.020 0.006 0.031 0 0.018-0.006 0.035-0.015 0.049l0-0c-0.015 0.023-0.041 0.037-0.069 0.038h-0zM6.117 29.989h7.223l-1.877-4.852c-0.029-0.071-0.097-0.121-0.177-0.121-0 0-0 0-0 0h-6.814c-0.065 0-0.122 0.033-0.156 0.082l-0 0.001c-0.021 0.030-0.034 0.068-0.034 0.109 0 0.024 0.004 0.047 0.013 0.069l-0-0.001 1.824 4.714z"></path>
<path fill="#080c20" d="M11.016 25.391l-6.149-0.007 1.738 4.418 6.128 0.006z"></path>
<path fill="#093f68" d="M12.733 29.895l-6.128-0.006c-0.035 0-0.067-0.022-0.080-0.054l-1.738-4.422c-0.004-0.009-0.006-0.020-0.006-0.032 0-0.018 0.005-0.035 0.015-0.049l-0 0c0.016-0.024 0.043-0.038 0.071-0.038l6.149 0.006c0.035 0 0.067 0.022 0.080 0.055l1.717 4.418c0.004 0.009 0.006 0.020 0.006 0.031 0 0.018-0.006 0.035-0.015 0.049l0-0c-0.015 0.024-0.041 0.040-0.070 0.041h-0zM6.663 29.717l5.944 0.006-1.65-4.246-5.964-0.006 1.67 4.246z"></path>
<path fill="#093f68" d="M10.341 26.666c-0.2-0-0.371-0.122-0.443-0.296l-0.001-0.003c-0.023-0.054-0.036-0.117-0.036-0.183 0-0.134 0.055-0.256 0.143-0.343l0-0c0.087-0.086 0.206-0.14 0.338-0.14 0.068 0 0.132 0.014 0.191 0.039l-0.003-0.001c0.174 0.076 0.293 0.246 0.293 0.444 0 0.002 0 0.004-0 0.006v-0c-0.004 0.264-0.218 0.476-0.481 0.477zM10.341 25.874c-0.17 0-0.308 0.138-0.309 0.309s0.136 0.31 0.306 0.312 0.309-0.135 0.312-0.306c0.001-0.172-0.137-0.313-0.309-0.315zM10.736 27.282c-0.015-0-0.029-0.004-0.041-0.011l0 0-2.216-1.207-1.583 1.196c-0.014 0.011-0.032 0.017-0.052 0.017-0.012 0-0.024-0.003-0.034-0.007l0.001 0c-0.031-0.014-0.053-0.044-0.053-0.080 0-0.028 0.013-0.053 0.034-0.069l0-0 1.631-1.23c0.027-0.020 0.063-0.023 0.093-0.007l2.264 1.23c0.027 0.015 0.045 0.043 0.045 0.076 0 0.048-0.038 0.086-0.086 0.086h-0l-0.003 0.003z"></path>
<path fill="#093f68" d="M4.159 31.007h16.342c0.14 0 0.254 0.114 0.254 0.254v0.294c0 0.14-0.114 0.254-0.254 0.254h-16.342c-0.141 0-0.254-0.114-0.254-0.254v-0.294c0-0.14 0.114-0.254 0.254-0.254z"></path>
<path fill="#093f68" d="M20.452 31.896h-16.239c-0.215 0-0.389-0.175-0.39-0.39v-0.193c0-0.216 0.175-0.391 0.39-0.391h16.239c0.215 0 0.389 0.175 0.39 0.391v0.193c-0 0.216-0.175 0.39-0.39 0.39zM4.213 31.093c-0.12 0-0.218 0.098-0.218 0.218 0 0 0 0 0 0.001v-0 0.193c0 0.12 0.098 0.218 0.218 0.218h16.239c0.12-0 0.218-0.098 0.218-0.218v-0.193c0-0.058-0.023-0.114-0.064-0.155-0.039-0.040-0.094-0.064-0.154-0.064h-16.239z"></path>
<path fill="#093f68" d="M17.019 31.917c-0.047 0-0.086-0.039-0.086-0.086v-3.635c0-0.048 0.038-0.086 0.086-0.086s0.086 0.039 0.086 0.086v3.635c0 0.048-0.038 0.086-0.086 0.086zM9.492 27.267l-0.356 0.551-0.11 0.472 0.045 0.034 0.391-0.3 0.383-0.522z"></path>
<path fill="#093f68" d="M9.072 28.411c-0.019 0-0.037-0.006-0.052-0.017l-0.045-0.034c-0.021-0.016-0.034-0.041-0.034-0.068 0-0.006 0.001-0.012 0.002-0.018l-0 0.001 0.109-0.472c0.003-0.010 0.007-0.019 0.012-0.028l0.356-0.551c0.012-0.019 0.032-0.033 0.054-0.038l0.001-0c0.022-0.004 0.045 0 0.064 0.013l0.353 0.235c0.023 0.016 0.039 0.042 0.039 0.072 0 0.019-0.006 0.037-0.017 0.052l0-0-0.379 0.521-0.017 0.017-0.391 0.3c-0.016 0.012-0.035 0.018-0.054 0.017zM9.216 27.852l-0.071 0.308 0.258-0.196 0.322-0.44-0.205-0.138-0.303 0.465z"></path>
<path fill="#080c20" d="M11.069 27.252s0.033-0.768-0.257-0.849c-0.29-0.081-0.886-0.243-1.047 0s-0.564 0.714-0.451 0.98c0.112 0.266 1.209 0.846 1.209 0.846l1.281 1.552 1.415-1.581-2.148-0.948z"></path>
<path fill="#093f68" d="M11.802 29.863c-0.026-0.001-0.048-0.013-0.063-0.031l-0-0-1.27-1.534c-0.218-0.116-1.116-0.608-1.232-0.881s0.161-0.643 0.36-0.92c0.038-0.053 0.072-0.101 0.099-0.142 0.198-0.298 0.835-0.121 1.142-0.035s0.325 0.659 0.322 0.877l2.094 0.92c0.025 0.011 0.044 0.034 0.050 0.061 0.001 0.006 0.002 0.012 0.002 0.019 0 0.022-0.008 0.042-0.022 0.057l0-0-1.415 1.58c-0.016 0.018-0.039 0.029-0.065 0.029-0.001 0-0.001 0-0.002 0h0zM10.104 26.361c-0.122 0-0.223 0.023-0.268 0.086-0.028 0.043-0.064 0.093-0.103 0.147-0.155 0.215-0.415 0.577-0.343 0.752s0.757 0.584 1.17 0.803c0.010 0.006 0.018 0.013 0.026 0.022l1.217 1.47 1.269-1.418-2.038-0.896c-0.031-0.014-0.052-0.044-0.052-0.079 0-0.003 0-0.005 0-0.007l-0 0c0.012-0.29-0.040-0.72-0.195-0.763-0.201-0.062-0.434-0.105-0.675-0.118l-0.007-0z"></path>
<path fill="#093f68" d="M10.408 25.907l-0.816 1.23s0.13 0.218 0.337 0.206l0.807-1.24s-0.189-0.28-0.328-0.196z"></path>
<path fill="#093f68" d="M9.912 27.426c-0.242 0-0.387-0.238-0.394-0.249-0.008-0.013-0.013-0.029-0.013-0.046s0.005-0.033 0.014-0.046l-0 0 0.816-1.225c0.006-0.011 0.015-0.020 0.026-0.026l0-0c0.203-0.124 0.423 0.188 0.447 0.223 0.009 0.014 0.015 0.030 0.015 0.048s-0.005 0.035-0.015 0.049l0-0-0.811 1.232c-0.014 0.022-0.038 0.037-0.066 0.039h-0l-0.019 0.001zM9.697 27.13c0.046 0.060 0.11 0.103 0.185 0.12l0.002 0 0.751-1.141c-0.057-0.072-0.13-0.132-0.172-0.132l-0.767 1.152zM9.113 28.196l-0.173 0.259zM8.94 28.54c-0.017 0-0.034-0.005-0.048-0.015-0.023-0.016-0.037-0.042-0.037-0.071 0-0.018 0.005-0.034 0.014-0.048l-0 0 0.172-0.259c0.016-0.023 0.042-0.038 0.071-0.038 0.018 0 0.035 0.006 0.048 0.015l-0-0c0.023 0.016 0.038 0.042 0.038 0.072 0 0.018-0.005 0.035-0.015 0.049l0-0-0.172 0.259c-0.016 0.023-0.041 0.037-0.071 0.037-0 0-0 0-0.001 0h0z"></path>
<path fill="#080c20" d="M14.32 27.001s0.136-0.631 0.44-0.816c0.305-0.185 2.158-0.452 2.529-0.133 0.222 0.206 0.37 0.489 0.402 0.806l0 0.005-3.371 0.138z"></path>
<path fill="#093f68" d="M14.32 27.087c-0 0-0.001 0-0.001 0-0.026 0-0.049-0.012-0.065-0.030l-0-0c-0.012-0.015-0.020-0.034-0.020-0.055 0-0.007 0.001-0.013 0.002-0.019l-0 0.001c0.006-0.027 0.148-0.669 0.48-0.872s2.224-0.471 2.629-0.124c0.237 0.221 0.395 0.525 0.429 0.865l0 0.006c0 0.002 0 0.004 0 0.006 0 0.022-0.008 0.042-0.022 0.057l0-0c-0.015 0.018-0.037 0.028-0.061 0.029l-3.371 0.138zM16.53 25.991c-0.651 0-1.52 0.142-1.725 0.267-0.185 0.113-0.314 0.447-0.373 0.653l3.161-0.13c-0.046-0.264-0.175-0.492-0.359-0.662l-0.001-0.001c-0.106-0.091-0.378-0.127-0.703-0.127z"></path>
<path fill="#080c20" d="M19.182 31.83l-0.893-4.866c-0.046-0.054-0.071-0.086-0.071-0.086-0.158-0.153-0.374-0.247-0.612-0.247h-3.426c-0.094 0-0.439-0.045-0.991 0.421-0.798 0.673-1.931 1.519-2.528 2.093l0.51 2.586c0.1 0.024 1.736-0.727 1.736-0.727l0.161 0.823 6.115 0.003z"></path>
<path fill="#093f68" d="M19.182 31.917h-6.115c-0 0-0.001 0-0.002 0-0.041 0-0.076-0.029-0.084-0.068l-0-0.001-0.141-0.716c-1.566 0.716-1.657 0.69-1.692 0.69-0.033-0.008-0.058-0.034-0.064-0.067l-0-0.001-0.51-2.586c-0.001-0.005-0.002-0.011-0.002-0.016 0-0.024 0.010-0.046 0.026-0.062l0-0c0.375-0.361 0.967-0.834 1.539-1.293 0.343-0.272 0.694-0.554 0.993-0.807 0.54-0.454 0.893-0.444 1.026-0.44h3.449c0 0 0.001 0 0.001 0 0.261 0 0.497 0.104 0.671 0.272l-0-0c0.005 0.005 0.032 0.035 0.077 0.086 0.010 0.011 0.016 0.025 0.019 0.040l0.892 4.868c0.001 0.005 0.001 0.010 0.001 0.016 0 0.021-0.008 0.041-0.020 0.056l0-0c-0.016 0.019-0.039 0.030-0.066 0.030-0 0-0.001 0-0.001 0h0.003zM13.138 31.744h5.941l-0.869-4.741-0.055-0.065c-0.142-0.135-0.334-0.218-0.546-0.218-0.001 0-0.001 0-0.002 0h-3.453c-0.115 0-0.421-0.012-0.912 0.401-0.3 0.253-0.654 0.535-0.996 0.808-0.552 0.44-1.122 0.896-1.493 1.247l0.483 2.457c0.234-0.077 0.974-0.4 1.631-0.703 0.010-0.005 0.022-0.008 0.035-0.008 0.014 0 0.028 0.004 0.040 0.010l-0-0c0.023 0.012 0.040 0.034 0.045 0.060l0.15 0.751z"></path>
<path fill="#093f68" d="M16.13 27.11h3.069c0.006-0 0.014-0 0.021-0 0.28 0 0.532 0.122 0.704 0.316l0.001 0.001c0.149 0.167 0.239 0.388 0.239 0.631 0 0.046-0.003 0.091-0.010 0.136l0.001-0.005-0.394 3.642h-5.217l0.397-3.642c0.076-0.605 0.581-1.064 1.188-1.078z"></path>
<path fill="#093f68" d="M19.762 31.917h-5.217c-0.047-0-0.085-0.038-0.085-0.086 0-0.003 0-0.006 0.001-0.009l-0 0 0.396-3.643c0.082-0.649 0.624-1.14 1.275-1.155h3.068c0.006-0 0.014-0 0.021-0 0.305 0 0.58 0.133 0.768 0.345l0.001 0.001c0.162 0.182 0.261 0.424 0.261 0.688 0 0.049-0.003 0.097-0.010 0.144l0.001-0.005-0.394 3.643c-0.005 0.043-0.041 0.077-0.085 0.077h-0zM14.641 31.744h5.043l0.385-3.565c0.005-0.036 0.009-0.078 0.009-0.121 0-0.22-0.082-0.421-0.218-0.574l0.001 0.001c-0.158-0.178-0.387-0.289-0.641-0.289-0.007 0-0.015 0-0.022 0l0.001-0h-3.069c-0.563 0.014-1.031 0.439-1.102 1.001l-0.386 3.547z"></path>
<path fill="#080c20" d="M16.599 27.11h3.070c0.006-0 0.013-0 0.021-0 0.28 0 0.532 0.122 0.705 0.317l0.001 0.001c0.148 0.167 0.239 0.388 0.239 0.63 0 0.046-0.003 0.091-0.010 0.136l0.001-0.005-0.394 3.642h-5.216l0.394-3.642c0.076-0.606 0.582-1.064 1.19-1.078z"></path>
<path fill="#093f68" d="M20.232 31.917h-5.216c-0.047-0-0.085-0.039-0.085-0.086 0-0.003 0-0.006 0.001-0.009l-0 0 0.394-3.643c0.082-0.649 0.624-1.14 1.275-1.155h3.070c0.004-0 0.009-0 0.014-0 0.306 0 0.581 0.133 0.771 0.344l0.001 0.001c0.165 0.186 0.265 0.432 0.265 0.701 0 0.046-0.003 0.091-0.009 0.135l0.001-0.005-0.394 3.643c-0.006 0.042-0.042 0.074-0.085 0.074-0.001 0-0.002 0-0.003-0h0zM15.111 31.744h5.044l0.385-3.565c0.005-0.034 0.007-0.073 0.007-0.112 0-0.225-0.083-0.43-0.221-0.586l0.001 0.001c-0.159-0.176-0.389-0.285-0.643-0.285-0.005 0-0.011 0-0.016 0h-3.069c-0.564 0.013-1.034 0.439-1.105 1.001l-0.384 3.547z"></path>
<path fill="#080c20" d="M10.661 29.145l-3.583 0.424s-0.85-0.833-1.030-0.801c-0.18 0.032 0.012 0.655 0.012 0.655s-0.636-0.431-0.748-0.060c-0.112 0.371-0.086 1.064 0.072 1.274s0.815 0.293 1.888 0.231l3.798 0.303-0.409-2.026z"></path>
<path fill="#093f68" d="M11.069 31.258h-0.007l-3.792-0.303c-1.116 0.064-1.768-0.025-1.952-0.265s-0.204-0.964-0.086-1.352c0.023-0.089 0.087-0.16 0.17-0.192l0.002-0.001c0.156-0.056 0.369 0.024 0.52 0.1-0.037-0.167-0.064-0.38 0-0.485 0.023-0.039 0.061-0.067 0.106-0.076l0.001-0c0.187-0.034 0.74 0.471 1.074 0.795l3.545-0.421c0.003-0 0.006-0 0.009-0 0.042 0 0.076 0.030 0.084 0.069l0 0.001 0.409 2.026c0.001 0.005 0.002 0.011 0.002 0.017 0 0.047-0.038 0.086-0.085 0.086h-0zM7.271 30.782h0.007l3.685 0.294-0.37-1.836-3.505 0.416c-0.026 0.003-0.052-0.006-0.070-0.024-0.367-0.359-0.823-0.749-0.944-0.776-0.030 0.060 0 0.311 0.074 0.543 0.002 0.008 0.004 0.016 0.004 0.025 0 0.028-0.014 0.053-0.035 0.069l-0 0c-0.029 0.022-0.069 0.022-0.099 0.002-0.143-0.097-0.419-0.233-0.55-0.188-0.035 0.013-0.061 0.043-0.069 0.080l-0 0.001c-0.109 0.36-0.076 1.020 0.058 1.196 0.067 0.086 0.377 0.28 1.812 0.197h0.003zM12.906 31.093c-0.047-0.001-0.084-0.039-0.084-0.086 0-0.033 0.019-0.062 0.046-0.076l0-0 1.226-0.604c0.012-0.006 0.026-0.010 0.041-0.010 0.017 0 0.034 0.005 0.047 0.014l-0-0c0.024 0.016 0.039 0.042 0.039 0.072 0 0.035-0.020 0.064-0.050 0.078l-0.001 0-1.226 0.609c-0.012 0.004-0.026 0.006-0.039 0.004zM7.013 28.713c-0.001 0-0.003 0-0.004 0-0.038 0-0.070-0.024-0.081-0.058l-0-0.001-0.87-2.575c-0.004-0.010-0.007-0.021-0.007-0.033 0-0.021 0.008-0.041 0.020-0.056l-0 0c0.016-0.019 0.039-0.031 0.066-0.031 0.040 0 0.073 0.027 0.083 0.064l0 0.001 0.85 2.514 1.754-0.066c0.047 0 0.086 0.039 0.086 0.086s-0.038 0.086-0.086 0.086l-1.81 0.068z"></path>
<path fill="#093f68" d="M7.67 28.411c-0 0-0 0-0.001 0-0.036 0-0.067-0.023-0.080-0.055l-0-0.001-0.398-1.058c-0.004-0.009-0.006-0.020-0.006-0.031 0-0.037 0.023-0.068 0.055-0.080l0.001-0c0.009-0.004 0.020-0.006 0.030-0.006 0.037 0 0.068 0.023 0.080 0.055l0 0.001 0.398 1.058c0.003 0.009 0.006 0.020 0.006 0.030 0 0.037-0.023 0.068-0.055 0.080l-0.001 0c-0.009 0.003-0.019 0.005-0.030 0.005v0zM7.67 30.922h-0.592c-0.047 0-0.086-0.039-0.086-0.086v-1.363c0-0.048 0.038-0.086 0.086-0.086h0.592c0.047 0 0.086 0.039 0.086 0.086v1.363c0 0.048-0.038 0.086-0.086 0.086zM7.164 30.749h0.421v-1.19h-0.421v1.19z"></path>
<path fill="#093f68" d="M7.374 30.55c-0.228 0-0.412-0.185-0.412-0.414s0.184-0.414 0.412-0.414 0.412 0.185 0.412 0.414c0 0.228-0.184 0.414-0.412 0.414zM7.374 29.894c-0.133 0-0.24 0.108-0.24 0.241 0 0 0 0 0 0.001v-0c0 0 0 0 0 0 0 0.133 0.108 0.241 0.24 0.241h0c0.133 0 0.24-0.108 0.24-0.241s-0.108-0.24-0.24-0.241h-0v-0.001zM11.866 28.947c-0.001 0-0.002 0-0.003 0-0.053 0-0.104-0.006-0.154-0.017l0.005 0.001c-0.194-0.047-0.356-0.163-0.463-0.319l-0.002-0.003c-0.008-0.013-0.013-0.029-0.013-0.046 0-0.031 0.016-0.058 0.040-0.073l0-0c0.013-0.008 0.029-0.013 0.046-0.013 0.031 0 0.058 0.016 0.073 0.040l0 0c0.084 0.12 0.208 0.208 0.353 0.244l0.004 0.001c0.172 0.038 0.367-0.014 0.575-0.152 0.15-0.089 0.258-0.234 0.297-0.405l0.001-0.004c0.051-0.284-0.14-0.552-0.143-0.555-0.010-0.014-0.017-0.032-0.017-0.051 0-0.013 0.003-0.025 0.008-0.035l-0 0.001c0.014-0.031 0.044-0.052 0.079-0.052 0.028 0 0.054 0.014 0.069 0.035l0 0c0.009 0.014 0.236 0.328 0.172 0.689-0.047 0.225-0.183 0.411-0.37 0.523l-0.004 0.002c-0.154 0.112-0.346 0.182-0.553 0.189l-0.002 0zM11.802 31.495c-0.037 0-0.070-0.024-0.082-0.059l-0.83-2.547c-0.003-0.008-0.004-0.017-0.004-0.027 0-0.047 0.038-0.086 0.086-0.086 0.038 0 0.070 0.024 0.081 0.058l0 0.001 0.83 2.547c0.003 0.008 0.004 0.017 0.004 0.027 0 0.038-0.024 0.070-0.058 0.081l-0.001 0c-0.008 0.003-0.018 0.004-0.027 0.004h-0zM9.845 23.326h-4.575c-0.047 0-0.086-0.039-0.086-0.086v-3.761c0-0.048 0.038-0.086 0.086-0.086h4.575c0.047 0 0.086 0.039 0.086 0.086v3.761c0 0.048-0.038 0.086-0.086 0.086zM5.356 23.153h4.403v-3.588h-4.403v3.588z"></path>
<path fill="#093f68" d="M8.161 22.196h-1.888c-0.047 0-0.086-0.039-0.086-0.086v-1.896c0-0.048 0.038-0.086 0.086-0.086h1.888c0.047 0 0.086 0.039 0.086 0.086v1.896c0 0.048-0.038 0.086-0.086 0.086zM6.359 22.024h1.717v-1.724h-1.717v1.724z"></path>
<path fill="#093f68" d="M8.133 22.755c-0.622 0-1.127-0.505-1.128-1.13s0.503-1.132 1.125-1.133c0.622-0.001 1.127 0.504 1.129 1.129 0 0.001 0 0.002 0 0.003 0 0.312-0.126 0.594-0.329 0.799l0-0c-0.204 0.205-0.486 0.332-0.797 0.333h-0zM8.133 20.665c-0.397 0-0.737 0.242-0.881 0.586l-0.002 0.006c-0.046 0.108-0.073 0.235-0.073 0.367 0 0.265 0.107 0.505 0.281 0.679l-0-0c0.172 0.173 0.411 0.28 0.674 0.28 0.133 0 0.259-0.027 0.374-0.076l-0.006 0.002c0.357-0.149 0.589-0.5 0.588-0.889-0.002-0.528-0.429-0.955-0.954-0.956zM22.546 25.862h-2.948c-0.047 0-0.086-0.039-0.086-0.086v-3.868c0-0.048 0.038-0.086 0.086-0.086h2.948c0.047 0 0.086 0.039 0.086 0.086v3.868c0 0 0 0 0 0.001 0 0.047-0.038 0.086-0.086 0.086-0 0-0 0-0 0v0zM19.683 25.69h2.777v-3.696h-2.777v3.696z"></path>
<path fill="#093f68" d="M21.96 25.373h-1.798c-0.030-0-0.056-0.015-0.071-0.038l-0-0c-0.009-0.013-0.014-0.030-0.014-0.047 0-0.012 0.002-0.023 0.007-0.033l-0 0.001 0.899-2.207c0.013-0.032 0.044-0.053 0.079-0.053s0.066 0.022 0.079 0.053l0 0.001 0.899 2.207c0.004 0.009 0.006 0.020 0.006 0.032 0 0.018-0.006 0.035-0.015 0.049l0-0c-0.015 0.023-0.042 0.039-0.071 0.039h-0zM20.29 25.2h1.545l-0.772-1.896-0.772 1.896z"></path>
<path fill="#093f68" d="M21.723 23.73h-1.56c-0.047 0-0.086-0.039-0.086-0.086v-1.286c0-0.048 0.038-0.086 0.086-0.086h1.56c0.047 0 0.086 0.039 0.086 0.086v1.286c0 0.048-0.038 0.086-0.086 0.086zM20.251 23.557h1.385v-1.114h-1.389l0.003 1.114zM20.503 20.835h-1.861c-0.047 0-0.086-0.039-0.086-0.086v-1.408c0-0.048 0.038-0.086 0.086-0.086h1.861c0.047 0 0.086 0.039 0.086 0.086v1.408c0 0.048-0.038 0.086-0.086 0.086zM18.728 20.662h1.689v-1.235h-1.689v1.235z"></path>
<path fill="#093f68" d="M19.182 20.3c-0.035-0-0.065-0.021-0.078-0.051l-0-0.001c-0.005-0.010-0.007-0.022-0.007-0.035 0-0.035 0.021-0.065 0.051-0.079l0.001-0 0.39-0.172c0.027-0.011 0.057-0.009 0.082 0.008l0.184 0.123 0.288-0.414c0.015-0.025 0.042-0.041 0.073-0.041 0.035 0 0.065 0.021 0.078 0.050l0 0.001c0.005 0.010 0.008 0.023 0.008 0.035 0 0.020-0.007 0.038-0.018 0.053l0-0-0.337 0.485c-0.027 0.038-0.079 0.048-0.118 0.022l-0.215-0.144-0.343 0.152c-0.010 0.004-0.021 0.007-0.033 0.007-0.002 0-0.004-0-0.005-0h0z"></path>
<path fill="#080c20" d="M9.356 12.379c0.355 0.444-0.617 1.357-1.075 0.855-0.54-0.591 0.733-1.283 1.075-0.855z"></path>
<path fill="#093f68" d="M8.61 13.46c-0.002 0-0.004 0-0.007 0-0.152 0-0.288-0.067-0.381-0.173l-0.001-0.001c-0.094-0.090-0.152-0.217-0.152-0.357 0-0.058 0.010-0.114 0.028-0.166l-0.001 0.003c0.106-0.31 0.485-0.534 0.788-0.586 0.236-0.041 0.423 0.013 0.533 0.15 0.214 0.267 0.037 0.652-0.247 0.895-0.148 0.136-0.343 0.223-0.558 0.235l-0.002 0zM9.030 12.322c-0.040 0-0.080 0.004-0.12 0.011-0.298 0.052-0.589 0.263-0.664 0.482-0.011 0.033-0.018 0.071-0.018 0.11 0 0.099 0.042 0.189 0.109 0.252l0 0c0.194 0.213 0.505 0.116 0.729-0.075s0.376-0.49 0.227-0.677c-0.060-0.064-0.145-0.104-0.239-0.104-0.008 0-0.017 0-0.025 0.001l0.001-0zM4.1 1.076c-0.004 0.001-0.008 0.001-0.013 0.001s-0.009-0-0.013-0.001l0 0c-0.026-0.009-0.045-0.029-0.052-0.055l-0-0.001c-0.061-0.251-0.338-0.328-0.487-0.369-0.042-0.009-0.080-0.023-0.115-0.042l0.002 0.001c-0.068-0.049-0.112-0.128-0.112-0.218 0-0.015 0.001-0.029 0.004-0.044l-0 0.002c0.013-0.071 0.069-0.162 0.255-0.202 0.351-0.074 0.722 0.595 0.764 0.672 0.006 0.011 0.009 0.024 0.009 0.037 0 0.024-0.011 0.046-0.028 0.060l-0 0-0.165 0.141c-0.014 0.011-0.032 0.017-0.050 0.017zM3.627 0.302h-0.023c-0.079 0.017-0.128 0.045-0.134 0.079-0.001 0.036 0.014 0.071 0.043 0.094 0.006 0 0.039 0.013 0.066 0.020 0.147 0.041 0.433 0.12 0.558 0.369l0.028-0.024c-0.144-0.245-0.38-0.538-0.538-0.538h0.001z"></path>
<path fill="#080c20" d="M4.152 9.351h1.737c0.533 0 1.043 0.211 1.42 0.588 0.363 0.363 0.588 0.865 0.588 1.42 0 0 0 0 0 0v0 3.589h-5.753v-3.59c0-1.108 0.899-2.007 2.008-2.007z"></path>
<path fill="#093f68" d="M7.9 15.026h-5.757c-0.044 0-0.079-0.035-0.079-0.079v-3.59c0.001-0.577 0.235-1.098 0.613-1.476l0-0c0.378-0.377 0.899-0.61 1.475-0.61 0.001 0 0.002 0 0.003 0h1.733c1.152 0.001 2.086 0.934 2.087 2.086v3.59c0 0.042-0.033 0.077-0.076 0.079zM2.222 14.869h5.599v-3.511c-0.001-1.066-0.866-1.929-1.933-1.928h-1.733c-1.065 0.001-1.928 0.863-1.929 1.928l-0.004 3.511z"></path>
<path fill="#093f68" d="M6.852 13.393c-0.044 0-0.079-0.035-0.079-0.079v-2.803c0-0.043 0.035-0.079 0.079-0.079s0.079 0.035 0.079 0.079v0 2.801c0 0.001 0 0.002 0 0.002 0 0.043-0.035 0.079-0.079 0.079 0 0-0 0-0 0v0zM3.358 15.026c-0.044 0-0.079-0.035-0.079-0.079v-4.437c0-0.043 0.035-0.079 0.079-0.079s0.079 0.035 0.079 0.079v0 4.434c0 0.001 0 0.002 0 0.002 0 0.043-0.035 0.079-0.079 0.079 0 0-0 0-0 0v0z"></path>
<path fill="#093f68" d="M6.144 11.481h-2.243l-0.542 0.524v2.943h3.327v-2.942z"></path>
<path fill="#093f68" d="M6.686 15.026h-3.327c-0.044 0-0.079-0.035-0.079-0.079v-2.94c-0-0.021 0.008-0.042 0.024-0.057l0.543-0.524c0.015-0.014 0.034-0.022 0.054-0.022h2.243c0.020 0 0.040 0.008 0.054 0.022l0.543 0.524c0.015 0.015 0.024 0.035 0.024 0.057v2.942c-0.001 0.042-0.036 0.076-0.079 0.076-0 0-0 0-0 0v0zM3.437 14.869h3.17v-2.83l-0.496-0.479h-2.178l-0.496 0.479v2.83z"></path>
<path fill="#093f68" d="M3.901 11.699c-0.044 0-0.079-0.035-0.079-0.079v-2.269c0-0.043 0.035-0.079 0.079-0.079s0.079 0.035 0.079 0.079v0 2.269c0 0.043-0.035 0.079-0.079 0.079zM6.156 11.699c-0.044 0-0.079-0.035-0.079-0.079v-2.269c0-0.044 0.035-0.079 0.079-0.079s0.079 0.035 0.079 0.079v0 2.269c0 0.043-0.035 0.079-0.079 0.079z"></path>
<path fill="#080c20" d="M1.713 8.709c0.085 0.188 0.267 0.25 0.584 0.236 0.681-0.031 1.369 0 2.048 0h3.759c0.224 0 0.339-0.11 0.351-0.336 0.056-0.974 0-1.934-0.064-2.905-0.054-0.874-0.173-1.771-0.613-2.545-0.85-1.496-3.127-2.179-4.113-0.899 0 0-0.704-0.236-1.371 0.588-0.547 0.673-0.599 1.568-0.608 2.396l-0.035 3.077c-0.001 0.014-0.001 0.031-0.001 0.048 0 0.122 0.023 0.239 0.065 0.346l-0.002-0.006z"></path>
<path fill="#093f68" d="M2.203 9.026c-0.228 0-0.457-0.048-0.564-0.285-0.043-0.108-0.068-0.233-0.068-0.364 0-0.021 0.001-0.042 0.002-0.062l-0 0.003 0.035-3.078c0.009-0.858 0.066-1.755 0.626-2.442 0.593-0.732 1.216-0.667 1.402-0.63 0.385-0.473 0.975-0.703 1.668-0.656 1.015 0.071 2.037 0.715 2.543 1.605 0.459 0.806 0.573 1.756 0.623 2.579 0.059 0.953 0.12 1.937 0.064 2.914-0.016 0.268-0.164 0.409-0.43 0.41h-3.759c-0.221 0-0.443 0-0.665-0.006-0.455-0.006-0.924-0.013-1.383 0.009-0.032 0.002-0.062 0.004-0.095 0.004zM3.419 2.305c-0.245 0-0.657 0.090-1.064 0.591-0.528 0.65-0.581 1.516-0.59 2.347l-0.035 3.077c-0.008 0.121 0.010 0.243 0.053 0.357 0.049 0.109 0.144 0.206 0.507 0.19 0.463-0.021 0.935-0.015 1.392-0.009 0.221 0 0.442 0.006 0.663 0.006h3.759c0.183 0 0.262-0.079 0.273-0.261 0.056-0.969 0-1.904-0.063-2.894-0.053-0.847-0.162-1.733-0.604-2.512-0.481-0.846-1.453-1.459-2.417-1.526-0.658-0.045-1.213 0.18-1.564 0.636-0.020 0.027-0.055 0.037-0.087 0.027-0.062-0.018-0.134-0.028-0.207-0.028-0.005 0-0.010 0-0.016 0h0.001z"></path>
<path fill="#080c20" d="M4.545 9.351h0.926v0.53c-0 0.217-0.176 0.394-0.394 0.394h-0.139c-0 0-0 0-0 0-0.218 0-0.394-0.176-0.394-0.394v0-0.532l0.002 0.002z"></path>
<path fill="#093f68" d="M5.078 10.354h-0.139c-0 0-0 0-0 0-0.261 0-0.473-0.212-0.473-0.473v0-0.532c0-0.044 0.035-0.079 0.079-0.079h0.926c0.044 0 0.079 0.035 0.079 0.079v0.532c-0 0.26-0.211 0.472-0.471 0.473h-0zM4.624 9.428v0.453c0 0.174 0.141 0.315 0.315 0.315 0 0 0 0 0 0h0.139c0 0 0 0 0 0 0.174 0 0.315-0.141 0.315-0.315v0-0.454l-0.77 0.001z"></path>
<path fill="#080c20" d="M3.262 6.946c0 0.428-0.403 0.775-0.9 0.775s-0.9-0.347-0.9-0.775c0-0.428 0.403-0.775 0.9-0.775s0.9 0.347 0.9 0.775z"></path>
<path fill="#093f68" d="M2.362 7.8c-0.54 0-0.979-0.383-0.979-0.854s0.439-0.854 0.979-0.854c0.54 0 0.979 0.383 0.979 0.854s-0.44 0.854-0.979 0.854zM2.362 6.25c-0.453 0-0.821 0.315-0.821 0.696s0.368 0.696 0.821 0.696 0.821-0.315 0.821-0.696c0-0.381-0.366-0.696-0.821-0.696z"></path>
<path fill="#080c20" d="M8.505 6.946c0 0.428-0.403 0.775-0.9 0.775s-0.9-0.347-0.9-0.775c0-0.428 0.403-0.775 0.9-0.775s0.9 0.347 0.9 0.775z"></path>
<path fill="#093f68" d="M7.606 7.8c-0.539 0-0.978-0.383-0.978-0.854s0.443-0.854 0.978-0.854c0.535 0 0.979 0.383 0.979 0.854s-0.439 0.854-0.979 0.854zM7.606 6.25c-0.452 0-0.82 0.315-0.82 0.696s0.368 0.696 0.82 0.696c0.452 0 0.821-0.315 0.821-0.696s-0.368-0.696-0.821-0.696z"></path>
<path fill="#080c20" d="M6.658 4.647l-0.878-1.128s-0.198 0.695-0.319 1.125l-1.384-0.004-0.326-1.007-0.383 1.005h-1.073v2.127c0 0 0 0 0 0.001 0 0.749 0.304 1.427 0.794 1.917v0c0.491 0.491 1.169 0.795 1.918 0.795 0 0 0 0 0 0v0c1.499 0 2.713-1.214 2.713-2.713v-2.114l-1.063-0.003z"></path>
<path fill="#093f68" d="M5.008 9.551c-1.541-0.002-2.79-1.251-2.791-2.791v-2.126c0-0.044 0.035-0.079 0.079-0.079h1.019l0.365-0.955c0.012-0.030 0.040-0.051 0.074-0.051 0.002 0 0.004 0 0.005 0h-0c0.033 0.001 0.062 0.023 0.072 0.054l0.309 0.953 1.266 0.004c0.119-0.429 0.299-1.059 0.299-1.059 0.009-0.034 0.040-0.058 0.076-0.058 0.026 0 0.048 0.012 0.063 0.031l0 0 0.854 1.098h1.024c0.044 0 0.079 0.035 0.079 0.079v2.109c-0.002 1.541-1.251 2.789-2.792 2.79zM2.374 4.713v2.048c-0 0.013-0 0.029-0 0.045 0 0.965 0.518 1.808 1.292 2.267l0.012 0.007c0.381 0.227 0.84 0.36 1.33 0.36s0.949-0.134 1.343-0.367l-0.012 0.007c0.786-0.465 1.304-1.309 1.304-2.273 0-0.016-0-0.032-0-0.048l0 0.002v-2.032h-0.985c-0.025-0-0.047-0.012-0.061-0.030l-0-0-0.785-1.009c-0.065 0.228-0.19 0.669-0.277 0.975-0.010 0.033-0.040 0.058-0.076 0.058-0.001 0-0.002-0-0.003-0h0l-1.378-0.004c-0.034-0-0.064-0.023-0.074-0.054l-0-0.001-0.258-0.795-0.304 0.796c-0.012 0.030-0.041 0.050-0.073 0.050l-0.994-0.003z"></path>
<path fill="#093f68" d="M3.772 7.529c-0 0-0.001 0-0.001 0-0.4 0-0.743-0.243-0.89-0.589l-0.002-0.006c-0.047-0.109-0.074-0.236-0.074-0.37 0-0.267 0.108-0.508 0.283-0.683v0c0.175-0.175 0.416-0.283 0.683-0.283 0.133 0 0.26 0.027 0.376 0.076l-0.006-0.002c0.353 0.149 0.596 0.492 0.596 0.892v0c-0 0.533-0.432 0.965-0.965 0.966zM3.772 5.756c-0 0-0.001 0-0.001 0-0.335 0-0.622 0.203-0.745 0.493l-0.002 0.005c-0.039 0.091-0.062 0.198-0.062 0.31 0 0.223 0.090 0.425 0.237 0.571v0c0.146 0.146 0.348 0.237 0.572 0.237 0.112 0 0.218-0.023 0.315-0.064l-0.005 0.002c0.295-0.125 0.499-0.412 0.499-0.747 0-0 0-0 0-0.001v0c-0.001-0.445-0.362-0.806-0.808-0.807zM6.244 7.529c-0 0-0.001 0-0.001 0-0.4 0-0.743-0.243-0.89-0.589l-0.002-0.006c-0.047-0.109-0.074-0.236-0.074-0.37 0-0.267 0.108-0.508 0.283-0.683v0c0.175-0.175 0.416-0.283 0.683-0.283 0.133 0 0.26 0.027 0.376 0.076l-0.006-0.002c0.353 0.149 0.596 0.492 0.596 0.892v0c-0 0.533-0.432 0.965-0.965 0.966zM6.244 5.756c-0 0-0 0-0.001 0-0.335 0-0.622 0.203-0.745 0.493l-0.002 0.005c-0.039 0.091-0.062 0.198-0.062 0.31 0 0.223 0.090 0.425 0.237 0.571v0c0.146 0.146 0.348 0.237 0.572 0.237 0.112 0 0.218-0.023 0.315-0.064l-0.005 0.002c0.295-0.125 0.498-0.412 0.498-0.746 0-0.446-0.361-0.808-0.807-0.808h-0z"></path>
<path fill="#093f68" d="M4.107 6.616c0 0.139-0.113 0.251-0.251 0.251s-0.251-0.112-0.251-0.251c0-0.139 0.113-0.251 0.251-0.251s0.251 0.112 0.251 0.251z"></path>
<path fill="#093f68" d="M6.343 6.564c0 0.139-0.113 0.251-0.251 0.251s-0.251-0.112-0.251-0.251c0-0.139 0.113-0.251 0.251-0.251s0.251 0.112 0.251 0.251z"></path>
<path fill="#093f68" d="M4.963 7.475c-0.087-0.001-0.172-0.008-0.254-0.022l0.009 0.001c-0.039-0.005-0.069-0.039-0.069-0.079 0-0.044 0.036-0.080 0.080-0.080 0.006 0 0.012 0.001 0.017 0.002l-0.001-0c0.123 0.021 0.248 0.022 0.372 0.004 0.015-0.072-0.079-0.341-0.212-0.593-0.006-0.011-0.009-0.023-0.009-0.037 0-0.044 0.035-0.079 0.079-0.079 0.030 0 0.057 0.017 0.070 0.042l0 0c0.088 0.169 0.284 0.578 0.213 0.739-0.017 0.039-0.050 0.068-0.090 0.079l-0.001 0c-0.067 0.016-0.135 0.024-0.204 0.023zM3.072 5.674c-0.003 0-0.006 0-0.010 0-0.087 0-0.158-0.071-0.158-0.158 0-0.084 0.065-0.152 0.148-0.158l0-0 1.189-0.148c0.007-0.001 0.016-0.002 0.024-0.002 0.088 0 0.159 0.071 0.159 0.159 0 0.082-0.063 0.15-0.143 0.158l-0.001 0-1.189 0.148h-0.020zM6.793 5.707c-0.009 0.001-0.019 0.001-0.028 0l-1.182-0.215c-0.074-0.014-0.129-0.078-0.129-0.155 0-0.087 0.071-0.158 0.158-0.158 0.010 0 0.020 0.001 0.029 0.003l-0.001-0 1.182 0.216c0.083 0.005 0.148 0.074 0.148 0.158 0 0.087-0.071 0.158-0.158 0.158-0.006 0-0.012-0-0.018-0.001l0.001 0-0.001-0.005zM5.158 8.463c-0.485-0.003-0.922-0.204-1.237-0.526l-0-0c-0.011-0.013-0.017-0.031-0.017-0.049 0-0.043 0.035-0.079 0.079-0.079 0.022 0 0.042 0.009 0.056 0.023v0c0.030 0.033 0.745 0.812 1.852 0.304 0.009-0.004 0.020-0.006 0.031-0.006 0.044 0 0.079 0.035 0.079 0.079 0 0.031-0.017 0.057-0.043 0.070l-0 0c-0.234 0.114-0.508 0.181-0.798 0.184h-0.001zM5.356 6.524c-0.016-0-0.032-0.005-0.045-0.014-0.085-0.063-0.191-0.1-0.306-0.1s-0.221 0.038-0.308 0.101l0.001-0.001c-0.013 0.010-0.030 0.017-0.048 0.017-0.025 0-0.048-0.012-0.062-0.031l-0-0c-0.010-0.013-0.017-0.030-0.017-0.048 0-0.025 0.012-0.047 0.030-0.062l0-0c0.111-0.082 0.25-0.13 0.4-0.13s0.29 0.049 0.402 0.132l-0.002-0.001c0.036 0.025 0.044 0.074 0.020 0.11-0.016 0.020-0.040 0.030-0.065 0.029zM2.88 6.392c-0.007 0.001-0.014 0.001-0.021 0l-0.518-0.142c-0.037-0.007-0.064-0.039-0.064-0.077 0-0.043 0.035-0.079 0.079-0.079 0.010 0 0.019 0.002 0.028 0.005l-0.001-0 0.518 0.141c0.040 0.004 0.071 0.038 0.071 0.079 0 0.044-0.036 0.079-0.079 0.079-0.004 0-0.008-0-0.013-0.001l0 0v-0.005zM7.169 6.392c-0.003 0-0.007 0.001-0.010 0.001-0.044 0-0.079-0.036-0.079-0.079 0-0.040 0.030-0.074 0.069-0.079l0-0 0.518-0.141c0.008-0.003 0.018-0.005 0.029-0.005 0.043 0 0.079 0.035 0.079 0.079 0 0.039-0.029 0.072-0.066 0.078l-0 0-0.518 0.142c-0.006 0.003-0.013 0.004-0.020 0.005l-0 0z"></path>
<path fill="#080c20" d="M2.58 3.142c0.421-0.11 1.339-0.678 2.017-0.752s2.274 0.11 2.75-0.146c0.477-0.257 0.623-1.173-0.073-1.833s-2.679 0.037-3.961 0.788c-1.282 0.751-1.76 0.898-1.742 1.411s0.585 0.642 1.008 0.532z"></path>
<path fill="#093f68" d="M2.293 3.257c-0.008 0-0.017 0-0.026 0-0.198 0-0.382-0.061-0.534-0.165l0.003 0.002c-0.148-0.11-0.243-0.285-0.245-0.481v-0c-0.017-0.464 0.321-0.655 1.139-1.114 0.187-0.106 0.399-0.226 0.641-0.367 1.211-0.709 3.29-1.502 4.054-0.777 0.372 0.351 0.551 0.81 0.491 1.26-0.042 0.315-0.204 0.577-0.434 0.701-0.321 0.173-1.065 0.158-1.784 0.145-0.332-0.014-0.664-0.011-0.995 0.011-0.413 0.045-0.934 0.286-1.352 0.48-0.181 0.094-0.397 0.185-0.621 0.26l-0.033 0.009c-0.088 0.024-0.19 0.037-0.295 0.037-0.003 0-0.007 0-0.011-0h0.001zM6.426 0.225c-0.303 0.006-0.603 0.049-0.896 0.126-0.828 0.226-1.553 0.539-2.22 0.937l0.041-0.022c-0.243 0.143-0.456 0.262-0.644 0.369-0.78 0.441-1.072 0.607-1.059 0.973 0 0.142 0.067 0.276 0.182 0.361 0.173 0.129 0.459 0.168 0.728 0.098 0.216-0.071 0.427-0.158 0.63-0.261 0.429-0.199 0.963-0.446 1.401-0.493 0.338-0.023 0.677-0.027 1.016-0.012 0.666 0.013 1.418 0.028 1.706-0.126 0.186-0.1 0.315-0.315 0.353-0.583 0.053-0.394-0.109-0.806-0.443-1.123-0.193-0.18-0.482-0.243-0.794-0.243z"></path>
<path fill="#080c20" d="M3.229 14.953c-0.277 0.254-0.895 0.44-1.202-0.079s-0.921-2.742-0.921-2.742l0.719-0.647 1.436 2.356c0.198 0.334 0.246 0.86-0.032 1.113z"></path>
<path fill="#093f68" d="M2.595 15.283c-0.042-0-0.083-0.003-0.123-0.009l0.005 0.001c-0.225-0.036-0.412-0.172-0.517-0.359l-0.002-0.004c-0.309-0.525-0.903-2.671-0.928-2.761-0.002-0.006-0.003-0.013-0.003-0.021 0-0.023 0.010-0.044 0.026-0.058l0-0 0.719-0.647c0.014-0.013 0.032-0.020 0.053-0.020 0.028 0 0.053 0.015 0.067 0.037l0 0 1.436 2.356c0.216 0.369 0.259 0.936-0.046 1.215-0.183 0.163-0.423 0.264-0.686 0.271l-0.001 0zM1.195 12.155c0.091 0.323 0.626 2.211 0.9 2.678 0.082 0.152 0.229 0.259 0.403 0.286l0.003 0c0.247 0.023 0.492-0.058 0.676-0.223 0.236-0.219 0.202-0.703 0.017-1.018l-1.386-2.274-0.613 0.551z"></path>
<path fill="#080c20" d="M0.543 10.289l0.617-0.227 0.281 0.763-0.617 0.227z"></path>
<path fill="#093f68" d="M0.825 11.131c-0 0-0 0-0 0-0.034 0-0.062-0.021-0.074-0.051l-0-0.001-0.281-0.764c-0.003-0.008-0.005-0.017-0.005-0.027 0-0.034 0.021-0.063 0.051-0.074l0.001-0 0.617-0.228c0.019-0.008 0.041-0.008 0.060 0s0.034 0.025 0.041 0.044l0.281 0.764c0.003 0.008 0.005 0.017 0.005 0.027 0 0.034-0.021 0.062-0.051 0.074l-0.001 0-0.617 0.228c-0.009 0.004-0.018 0.007-0.028 0.007zM0.645 10.335l0.226 0.616 0.473-0.173-0.227-0.616-0.472 0.173z"></path>
<path fill="#080c20" d="M1.12 10.076c0.013-0.051 0.021-0.109 0.021-0.169 0-0.125-0.034-0.243-0.092-0.344l0.002 0.003c-0.236-0.42-0.461 0.117-0.7-0.709 0 0-0.328 0.489-0.193 0.888 0.147 0.439 0.455 0.52 0.455 0.52l0.507-0.19z"></path>
<path fill="#093f68" d="M0.61 10.342c-0.006 0.001-0.013 0.001-0.020 0-0.015 0-0.352-0.098-0.51-0.571-0.145-0.432 0.188-0.936 0.203-0.958 0.017-0.026 0.048-0.039 0.079-0.034s0.055 0.027 0.063 0.056c0.127 0.437 0.236 0.449 0.347 0.461 0.155 0.005 0.287 0.1 0.345 0.234l0.001 0.002c0.065 0.11 0.103 0.241 0.103 0.382 0 0.067-0.009 0.133-0.025 0.195l0.001-0.005c-0.007 0.023-0.024 0.042-0.047 0.050l-0.507 0.187c-0.005 0.001-0.010 0.001-0.016 0.001s-0.011-0.001-0.016-0.002l0.001 0zM0.33 9.050c-0.079 0.166-0.178 0.438-0.101 0.669 0.11 0.328 0.315 0.434 0.381 0.461l0.441-0.163c0.006-0.032 0.009-0.069 0.009-0.107 0-0.112-0.030-0.217-0.082-0.308l0.002 0.003c-0.033-0.093-0.121-0.158-0.223-0.158-0.001 0-0.002 0-0.003 0h0c-0.158-0.014-0.295-0.058-0.421-0.397h-0.002z"></path>
<path fill="#080c20" d="M0.887 11.029c0.111 0.388 0.259 0.84 0.436 1.319 0.351 0.953 0.719 1.755 0.964 2.127l0.265-0.098c-0.057-0.443-0.296-1.292-0.648-2.245-0.177-0.478-0.357-0.918-0.524-1.286l-0.493 0.184z"></path>
<path fill="#093f68" d="M2.286 14.555c-0 0-0 0-0 0-0.027 0-0.051-0.014-0.066-0.035l-0-0c-0.257-0.394-0.63-1.214-0.971-2.144-0.171-0.463-0.322-0.921-0.437-1.324-0.002-0.007-0.003-0.014-0.003-0.022 0-0.034 0.021-0.062 0.051-0.074l0.001-0 0.493-0.182c0.039-0.014 0.082 0.004 0.099 0.042 0.174 0.382 0.356 0.828 0.526 1.292 0.343 0.929 0.592 1.796 0.652 2.261 0.004 0.035-0.017 0.068-0.050 0.081l-0.266 0.098c-0.009 0.004-0.018 0.007-0.028 0.007zM0.983 11.078c0.111 0.382 0.254 0.81 0.414 1.243 0.324 0.879 0.673 1.654 0.922 2.059l0.147-0.054c-0.071-0.468-0.31-1.286-0.635-2.165-0.193-0.535-0.359-0.936-0.539-1.329l0.047 0.115-0.355 0.131z"></path>
<path fill="#080c20" d="M0.808 11.492l0.577-0.212c0.065-0.024 0.136 0.009 0.16 0.074l0.020 0.055c0.005 0.013 0.008 0.028 0.008 0.043 0 0.053-0.034 0.099-0.081 0.117l-0.001 0s0 0 0 0l-0.577 0.212c-0.065 0.024-0.136-0.009-0.16-0.074l-0.020-0.055c-0.005-0.013-0.008-0.028-0.008-0.043 0-0.053 0.034-0.099 0.081-0.117l0.001-0z"></path>
<path fill="#093f68" d="M0.879 11.863c-0 0-0 0-0.001 0-0.033 0-0.064-0.007-0.091-0.020l0.001 0.001c-0.052-0.024-0.091-0.067-0.111-0.119l-0-0.001-0.013-0.034c-0.008-0.022-0.013-0.047-0.013-0.074 0-0.092 0.058-0.171 0.139-0.201l0.001-0.001 0.552-0.205c0.022-0.008 0.047-0.013 0.074-0.013 0.092 0 0.171 0.058 0.202 0.139l0 0.001 0.012 0.033c0.009 0.022 0.014 0.048 0.014 0.075 0 0.033-0.007 0.063-0.021 0.091l0.001-0.001c-0.024 0.052-0.067 0.091-0.119 0.111l-0.001 0.001-0.552 0.204c-0.021 0.008-0.046 0.013-0.072 0.013-0.001 0-0.001 0-0.002 0h0zM1.422 11.353c-0.007 0-0.014 0.002-0.021 0.004l0-0-0.551 0.204c-0.022 0.008-0.037 0.029-0.037 0.054 0 0.007 0.001 0.014 0.004 0.021l-0-0 0.012 0.034c0.006 0.014 0.016 0.025 0.030 0.032 0.007 0.003 0.014 0.004 0.022 0.004s0.016-0.002 0.022-0.005l-0 0 0.552-0.205c0.015-0.005 0.026-0.016 0.032-0.030l0-0c0.003-0.006 0.004-0.014 0.004-0.022s-0.002-0.015-0.005-0.022l0 0-0.013-0.034c-0.005-0.014-0.016-0.026-0.030-0.032l-0-0c-0.006-0.002-0.014-0.004-0.021-0.004h-0z"></path>
<path fill="#080c20" d="M1.815 11.256l0.231 0.627c0.005 0.013 0.008 0.029 0.008 0.045 0 0.056-0.035 0.104-0.085 0.122l-0.001 0-0.023 0.008c-0.013 0.005-0.029 0.008-0.045 0.008-0.056 0-0.104-0.035-0.123-0.085l-0-0.001-0.231-0.627c-0.005-0.013-0.008-0.029-0.008-0.045 0-0.056 0.035-0.104 0.085-0.122l0.001-0 0.023-0.008c0.013-0.005 0.029-0.008 0.045-0.008 0.056 0 0.104 0.035 0.123 0.085l0 0.001z"></path>
<path fill="#093f68" d="M1.907 12.144c-0.095-0.001-0.175-0.060-0.207-0.143l-0.001-0.002-0.222-0.604c-0.009-0.023-0.014-0.050-0.014-0.077 0-0.095 0.060-0.176 0.144-0.207l0.002-0.001c0.023-0.008 0.049-0.013 0.076-0.013 0.034 0 0.066 0.007 0.095 0.021l-0.001-0.001c0.054 0.025 0.095 0.069 0.115 0.124l0 0.002 0.222 0.603c0.009 0.023 0.014 0.049 0.014 0.077 0 0.095-0.060 0.176-0.144 0.208l-0.002 0.001c-0.023 0.008-0.049 0.013-0.077 0.013h-0zM1.685 11.254c-0.003-0.001-0.007-0.001-0.011-0.001s-0.008 0-0.011 0.001l0-0c-0.016 0.006-0.029 0.018-0.036 0.033l-0 0c-0.003 0.007-0.005 0.016-0.005 0.024s0.002 0.017 0.005 0.025l-0-0 0.222 0.603c0.006 0.016 0.018 0.029 0.033 0.036l0 0c0.008 0.004 0.017 0.006 0.027 0.006 0.035 0 0.064-0.029 0.064-0.064 0-0.008-0.001-0.015-0.004-0.021l0 0-0.224-0.599c-0.006-0.016-0.018-0.029-0.033-0.036l-0-0c-0.008-0.005-0.017-0.008-0.027-0.009h-0z"></path>
<path fill="#080c20" d="M0.915 11.782l0.577-0.212c0.065-0.024 0.136 0.009 0.16 0.074l0.020 0.055c0.005 0.013 0.008 0.028 0.008 0.043 0 0.053-0.034 0.099-0.081 0.117l-0.001 0-0.577 0.212c-0.065 0.024-0.136-0.009-0.16-0.074l-0.020-0.055c-0.005-0.013-0.008-0.028-0.008-0.043 0-0.053 0.033-0.099 0.081-0.117l0.001-0z"></path>
<path fill="#093f68" d="M0.986 12.152c-0 0-0 0-0 0-0.092 0-0.17-0.058-0.201-0.139l-0-0.001-0.013-0.034c-0.008-0.022-0.013-0.047-0.013-0.073 0-0.092 0.058-0.171 0.139-0.202l0.001-0.001 0.551-0.205c0.022-0.008 0.047-0.013 0.074-0.013 0.092 0 0.171 0.058 0.202 0.139l0 0.001 0.013 0.033c0.008 0.022 0.013 0.047 0.013 0.074 0 0.092-0.058 0.171-0.139 0.202l-0.001 0.001-0.555 0.204c-0.021 0.008-0.045 0.013-0.071 0.013h-0zM1.528 11.642c-0.003-0.001-0.006-0.001-0.010-0.001s-0.007 0-0.010 0.001l0-0-0.555 0.208c-0.014 0.006-0.026 0.016-0.032 0.030l-0 0c-0.003 0.007-0.004 0.014-0.004 0.022s0.002 0.016 0.005 0.022l-0-0 0.013 0.033c0.008 0.022 0.028 0.038 0.053 0.038 0.007 0 0.014-0.001 0.021-0.004l-0 0 0.555-0.205c0.022-0.008 0.037-0.029 0.037-0.054 0-0.007-0.001-0.014-0.004-0.020l0 0-0.013-0.034c-0.005-0.015-0.016-0.026-0.030-0.032l-0-0c-0.007-0.003-0.016-0.005-0.025-0.005v0z"></path>
<path fill="#080c20" d="M1.021 12.071l0.577-0.212c0.065-0.024 0.136 0.009 0.16 0.074l0.020 0.055c0.005 0.013 0.008 0.028 0.008 0.043 0 0.053-0.034 0.099-0.081 0.117l-0.001 0-0.577 0.212c-0.065 0.024-0.136-0.009-0.16-0.074l-0.020-0.055c-0.005-0.013-0.008-0.028-0.008-0.043 0-0.053 0.034-0.099 0.081-0.117l0.001-0z"></path>
<path fill="#093f68" d="M1.092 12.441c-0 0-0.001 0-0.001 0-0.032 0-0.063-0.007-0.090-0.020l0.001 0.001c-0.052-0.024-0.092-0.067-0.111-0.119l-0-0.001-0.013-0.034c-0.008-0.022-0.013-0.047-0.013-0.073 0-0.092 0.058-0.171 0.139-0.202l0.001-0.001 0.555-0.205c0.022-0.008 0.047-0.013 0.073-0.013 0.092 0 0.171 0.058 0.202 0.139l0 0.001 0.013 0.034c0.008 0.022 0.013 0.047 0.013 0.073 0 0.092-0.058 0.171-0.139 0.202l-0.001 0.001-0.552 0.204c-0.022 0.009-0.047 0.013-0.073 0.013-0.002 0-0.003-0-0.005-0h0zM1.635 11.929c-0.007 0-0.014 0.002-0.020 0.004l0-0-0.555 0.204c-0.014 0.006-0.025 0.016-0.032 0.030l-0 0c-0.003 0.007-0.004 0.014-0.004 0.022s0.002 0.015 0.005 0.022l-0-0 0.013 0.034c0.006 0.014 0.016 0.026 0.030 0.032l0 0c0.014 0.006 0.029 0.006 0.043 0l0.552-0.205c0.022-0.008 0.038-0.029 0.038-0.053 0-0.007-0.001-0.014-0.004-0.020l0 0-0.013-0.034c-0.008-0.021-0.028-0.036-0.051-0.036h-0z"></path>
<path fill="#080c20" d="M1.128 12.359l0.577-0.212c0.065-0.024 0.136 0.009 0.16 0.074l0.020 0.055c0.005 0.013 0.008 0.028 0.008 0.043 0 0.053-0.034 0.099-0.081 0.117l-0.001 0-0.577 0.212c-0.065 0.024-0.136-0.009-0.16-0.074l-0.020-0.055c-0.005-0.013-0.008-0.028-0.008-0.043 0-0.053 0.034-0.099 0.081-0.117l0.001-0z"></path>
<path fill="#093f68" d="M1.198 12.73c0 0-0 0-0 0-0.092 0-0.17-0.058-0.201-0.139l-0-0.001-0.012-0.034c-0.008-0.022-0.013-0.048-0.013-0.074 0-0.092 0.058-0.17 0.139-0.201l0.001-0.001 0.552-0.205c0.022-0.008 0.047-0.013 0.074-0.013 0.092 0 0.171 0.058 0.201 0.139l0 0.001 0.013 0.034c0.008 0.022 0.013 0.048 0.013 0.074 0 0.092-0.058 0.17-0.139 0.201l-0.001 0-0.551 0.204c-0.022 0.008-0.047 0.013-0.073 0.013-0 0-0.001 0-0.001 0h0zM1.741 12.221c-0.003-0.001-0.006-0.001-0.010-0.001s-0.007 0-0.010 0.001l0-0-0.552 0.204c-0.022 0.008-0.038 0.029-0.038 0.054 0 0.007 0.001 0.014 0.004 0.020l-0-0 0.013 0.034c0.006 0.014 0.016 0.026 0.030 0.032l0 0c0.006 0.003 0.014 0.004 0.022 0.004s0.016-0.002 0.022-0.005l-0 0 0.551-0.205c0.022-0.008 0.038-0.029 0.038-0.053 0-0.007-0.001-0.014-0.004-0.020l0 0-0.012-0.034c-0.010-0.019-0.029-0.032-0.052-0.032-0.001 0-0.002 0-0.002 0h0z"></path>
<path fill="#080c20" d="M8.883 11.191c-0.603-0.228-1.821-0.377-2.872 0.693s-0.693 2.363 0.416 2.873c1.109 0.51 2.058 0.265 2.278-0.428s-0.516-0.747-0.216-1.112c0.3-0.365 0.675 0.045 0.993-0.535s0.006-1.263-0.599-1.491z"></path>
<path fill="#093f68" d="M7.551 15.109c-0.423-0.010-0.819-0.112-1.173-0.287l0.016 0.007c-0.574-0.265-0.961-0.735-1.063-1.288-0.107-0.585 0.115-1.193 0.624-1.712 0.964-0.983 2.159-1.012 2.956-0.709 0.325 0.122 0.578 0.373 0.7 0.688l0.003 0.008c0.044 0.113 0.069 0.244 0.069 0.38 0 0.193-0.051 0.375-0.14 0.532l0.003-0.005c-0.198 0.362-0.436 0.38-0.63 0.394-0.147 0.010-0.262 0.019-0.371 0.153-0.093 0.114-0.061 0.163 0.055 0.303 0.131 0.157 0.309 0.373 0.179 0.788-0.095 0.288-0.307 0.515-0.578 0.628l-0.007 0.002c-0.179 0.076-0.386 0.119-0.604 0.119-0.014 0-0.028-0-0.042-0.001l0.002 0zM7.976 11.108c-0.617 0-1.309 0.221-1.907 0.832-0.473 0.481-0.679 1.040-0.581 1.575 0.092 0.503 0.447 0.931 0.974 1.174 0.63 0.289 1.237 0.345 1.673 0.153 0.236-0.098 0.416-0.29 0.495-0.528l0.002-0.006c0.105-0.33-0.024-0.485-0.15-0.636-0.11-0.132-0.236-0.283-0.056-0.502 0.152-0.187 0.327-0.199 0.482-0.211 0.185-0.013 0.345-0.024 0.502-0.315 0.074-0.13 0.117-0.285 0.117-0.451 0-0.117-0.022-0.228-0.061-0.331l0.002 0.006c-0.109-0.281-0.329-0.498-0.604-0.602l-0.007-0.002c-0.259-0.099-0.559-0.156-0.872-0.156-0.003 0-0.006 0-0.009 0h0z"></path>
<path fill="#080c20" d="M7.12 11.63c0.006 0.031 0.022 0.059 0.028 0.090 0 0.002 0 0.004 0 0.007 0 0.085-0.045 0.16-0.113 0.201l-0.001 0.001c-0.074 0.043-0.136 0.098-0.186 0.162l-0.001 0.001c-0.017 0.034-0.027 0.074-0.027 0.117 0 0.089 0.044 0.169 0.112 0.216l0.001 0.001c0.058 0.038 0.13 0.060 0.206 0.060 0.056 0 0.11-0.012 0.158-0.034l-0.002 0.001c0.123-0.050 0.254-0.152 0.372-0.093 0.043 0.029 0.080 0.061 0.113 0.097l0 0c0.064 0.051 0.146 0.082 0.235 0.082 0.113 0 0.215-0.050 0.285-0.128l0-0c0.058-0.073 0.093-0.167 0.093-0.269s-0.035-0.195-0.094-0.269l0.001 0.001c-0.167-0.206-0.027-0.551-0.388-0.584-0.186-0.018-0.842 0.066-0.792 0.341z"></path>
<path fill="#093f68" d="M8.009 12.619c-0.002 0-0.005 0-0.007 0-0.105 0-0.201-0.039-0.274-0.102l0.001 0c-0.014-0.012-0.026-0.023-0.038-0.036l-0-0c-0.017-0.019-0.036-0.035-0.057-0.048l-0.001-0.001c-0.052-0.026-0.119 0-0.214 0.051-0.032 0.016-0.062 0.031-0.093 0.043-0.055 0.025-0.119 0.039-0.186 0.039-0.093 0-0.18-0.028-0.253-0.076l0.002 0.001c-0.089-0.063-0.147-0.165-0.147-0.281 0-0.058 0.014-0.112 0.040-0.16l-0.001 0.002c0.042-0.062 0.096-0.114 0.159-0.152l0.002-0.001 0.046-0.033c0.046-0.035 0.091-0.087 0.083-0.132-0.002-0.012-0.006-0.022-0.011-0.032l0 0.001c-0.007-0.016-0.012-0.035-0.017-0.055l-0-0.002c-0.003-0.014-0.004-0.029-0.004-0.045 0-0.065 0.026-0.123 0.068-0.166l-0 0c0.179-0.195 0.677-0.236 0.811-0.223 0.284 0.028 0.325 0.225 0.357 0.383 0.011 0.087 0.041 0.165 0.086 0.233l-0.001-0.002c0.069 0.087 0.111 0.198 0.111 0.319s-0.042 0.232-0.112 0.32l0.001-0.001c-0.078 0.089-0.189 0.148-0.314 0.157l-0.002 0-0.036-0.001zM7.591 12.264c0 0 0.001 0 0.001 0 0.040 0 0.079 0.010 0.112 0.027l-0.001-0.001c0.037 0.021 0.071 0.047 0.1 0.079 0.050 0.056 0.123 0.092 0.204 0.092 0.010 0 0.019-0.001 0.028-0.001l-0.001 0c0.083-0.005 0.156-0.042 0.208-0.1l0-0c0.045-0.059 0.073-0.134 0.073-0.216 0-0.084-0.029-0.161-0.077-0.222l0.001 0.001c-0.060-0.084-0.102-0.185-0.116-0.294l-0-0.003c-0.033-0.162-0.056-0.242-0.218-0.258-0.137-0.014-0.558 0.039-0.679 0.172-0.023 0.019-0.033 0.050-0.026 0.079 0.003 0.011 0.006 0.022 0.010 0.032 0.008 0.019 0.014 0.038 0.018 0.057 0.001 0.009 0.002 0.020 0.002 0.030 0 0.108-0.057 0.203-0.143 0.256l-0.001 0.001-0.052 0.037c-0.046 0.027-0.084 0.062-0.114 0.103l-0.001 0.001c-0.011 0.023-0.017 0.049-0.017 0.078 0 0.063 0.031 0.119 0.080 0.152l0.001 0c0.087 0.053 0.194 0.060 0.286 0.018 0.031-0.013 0.057-0.026 0.082-0.040l-0.003 0.002c0.071-0.044 0.154-0.073 0.244-0.082l0.002-0zM8.725 12.137c-0.060 0.062-0.1 0.144-0.109 0.235l-0 0.002c-0.001 0.007-0.001 0.014-0.001 0.022 0 0.056 0.023 0.106 0.061 0.142l0 0c0.034 0.025 0.077 0.040 0.124 0.040 0.003 0 0.007-0 0.010-0l-0 0c0.128-0.005 0.245-0.051 0.338-0.126l-0.001 0.001c0.126-0.097 0.336-0.371 0.141-0.502-0.178-0.114-0.448 0.062-0.561 0.188z"></path>
<path fill="#093f68" d="M8.808 12.658c-0.003 0-0.007 0-0.011 0-0.065 0-0.124-0.021-0.172-0.057l0.001 0.001c-0.056-0.050-0.090-0.122-0.090-0.202 0-0.010 0.001-0.020 0.002-0.029l-0 0.001c0.011-0.112 0.058-0.211 0.13-0.287l-0 0c0.141-0.158 0.445-0.344 0.663-0.198 0.068 0.043 0.113 0.116 0.115 0.201v0c0.005 0.169-0.152 0.353-0.252 0.429-0.104 0.085-0.238 0.137-0.383 0.142l-0.001 0zM8.78 12.191c-0.049 0.050-0.082 0.116-0.089 0.189l-0 0.001c-0.001 0.004-0.001 0.009-0.001 0.014 0 0.033 0.013 0.063 0.035 0.085l-0-0c0.021 0.013 0.048 0.021 0.075 0.021 0.003 0 0.006-0 0.008-0l-0 0c0.11-0.004 0.211-0.044 0.289-0.11l-0.001 0.001c0.079-0.061 0.193-0.202 0.19-0.299-0.001-0.032-0.018-0.059-0.044-0.074l-0-0c-0.12-0.079-0.347 0.051-0.459 0.173l-0.003-0.001z"></path>
<path fill="#080c20" d="M9.237 11.808c-0.031-0.073-0.092-0.157-0.17-0.139s-0.105 0.102-0.117 0.181c-0.036 0.205-0.043 0.413-0.079 0.618-0.002 0.006-0.003 0.013-0.003 0.020 0 0.013 0.004 0.026 0.011 0.036l-0-0c0.010 0.008 0.023 0.013 0.036 0.013 0.003 0 0.007 0 0.011 0 0.162 0 0.302-0.090 0.374-0.223l0.001-0.002c0.069-0.146-0.004-0.362-0.064-0.502z"></path>
<path fill="#093f68" d="M8.937 12.613h-0.031c-0.032-0.001-0.062-0.014-0.085-0.035-0.021-0.024-0.034-0.056-0.034-0.090 0-0.012 0.002-0.025 0.005-0.036l-0 0.001c0.019-0.102 0.030-0.209 0.041-0.311s0.021-0.204 0.039-0.307c0.025-0.143 0.085-0.224 0.18-0.242s0.199 0.050 0.258 0.187c0.106 0.248 0.126 0.433 0.061 0.565-0.085 0.156-0.246 0.262-0.432 0.269l-0.001 0zM9.084 11.747c-0.016 0-0.040 0.035-0.054 0.114-0.017 0.097-0.028 0.198-0.038 0.295s-0.021 0.199-0.039 0.299c0.12-0.012 0.221-0.081 0.277-0.18l0.001-0.002c0.029-0.060 0.042-0.184-0.065-0.434-0.026-0.054-0.061-0.094-0.083-0.094v0.002z"></path>
<path fill="#080c20" d="M6.133 12.484c-0.145 0.052-0.288 0.165-0.284 0.31 0.010 0.070 0.023 0.139 0.040 0.207 0.022 0.168-0.071 0.357 0.023 0.497 0.067 0.080 0.167 0.13 0.279 0.13 0.001 0 0.001 0 0.002 0h-0c0.158 0.013 0.343-0.028 0.422-0.167 0.011-0.030 0.030-0.057 0.054-0.079 0.026-0.013 0.054-0.020 0.084-0.020 0.103-0.017 0.187-0.085 0.225-0.177l0.001-0.002c0.062-0.158-0.047-0.326-0.158-0.437-0.131-0.136-0.334-0.295-0.532-0.294-0.057 0.002-0.11 0.014-0.159 0.033l0.003-0.001z"></path>
<path fill="#093f68" d="M6.253 13.709h-0.066c-0 0-0 0-0 0-0.137 0-0.26-0.064-0.339-0.165l-0.001-0.001c-0.074-0.111-0.058-0.236-0.044-0.352 0.010-0.059 0.013-0.119 0.009-0.178-0.004-0.024-0.010-0.050-0.017-0.079-0.013-0.041-0.021-0.088-0.024-0.136l-0-0.001c-0.005-0.195 0.178-0.329 0.336-0.386 0.055-0.021 0.118-0.034 0.184-0.035l0.001-0c0.243 0 0.473 0.198 0.586 0.315 0.172 0.179 0.232 0.363 0.171 0.521-0.050 0.12-0.156 0.207-0.285 0.227l-0.002 0h-0.020c-0.012 0.001-0.023 0.002-0.033 0.006l0.001-0c-0.007 0.009-0.013 0.019-0.018 0.030 0 0.007-0.007 0.014-0.011 0.021-0.072 0.137-0.23 0.213-0.427 0.213zM6.295 12.528c-0.048 0.002-0.093 0.011-0.135 0.027l0.003-0.001c-0.117 0.043-0.236 0.131-0.232 0.236 0.002 0.035 0.008 0.069 0.018 0.102 0.009 0.032 0.016 0.064 0.021 0.097 0.006 0.072 0.004 0.146-0.008 0.217-0.013 0.098-0.023 0.184 0.019 0.246 0.054 0.059 0.131 0.095 0.216 0.095 0.002 0 0.003 0 0.004-0h-0c0.127 0.011 0.285-0.017 0.347-0.127l0.008-0.016c0.015-0.036 0.040-0.067 0.072-0.090 0.029-0.017 0.063-0.029 0.1-0.031l0.001-0h0.015c0.075-0.012 0.135-0.062 0.163-0.129l0.001-0.001c0.053-0.136-0.079-0.292-0.138-0.354-0.080-0.081-0.284-0.269-0.475-0.269v-0.004z"></path>
<path fill="#080c20" d="M6.856 14.101c0.010 0.104 0.064 0.195 0.143 0.253l0.001 0.001c0.077 0.056 0.169 0.098 0.269 0.118l0.005 0.001c0.257 0.061 0.525 0.051 0.777-0.030 0.049-0.013 0.091-0.036 0.126-0.067l-0 0c0.031-0.038 0.050-0.088 0.050-0.142s-0.019-0.103-0.051-0.142l0 0c-0.066-0.077-0.152-0.136-0.249-0.169l-0.004-0.001c-0.179-0.074-0.199-0.364-0.446-0.372-0.106 0-0.166 0.068-0.236 0.136-0.113 0.11-0.118 0.095-0.271 0.095-0.135 0.001-0.118 0.231-0.113 0.318z"></path>
<path fill="#093f68" d="M7.608 14.591c-0 0-0.001 0-0.001 0-0.125 0-0.246-0.015-0.362-0.042l0.011 0.002c-0.116-0.024-0.218-0.070-0.305-0.135l0.002 0.001c-0.099-0.073-0.165-0.185-0.175-0.313l-0-0.002v-0.011c-0.005-0.087-0.014-0.251 0.067-0.337 0.030-0.033 0.073-0.053 0.121-0.053 0.001 0 0.002 0 0.003 0h0.050c0.090 0 0.090 0 0.167-0.073l0.022-0.022c0.064-0.081 0.161-0.133 0.27-0.136h0.001c0.183 0.005 0.269 0.132 0.338 0.236 0.032 0.060 0.078 0.108 0.134 0.142l0.002 0.001c0.115 0.040 0.212 0.108 0.286 0.195l0.001 0.001c0.041 0.052 0.065 0.117 0.065 0.189 0 0.075-0.027 0.144-0.072 0.197l0-0c-0.043 0.040-0.096 0.071-0.155 0.086l-0.002 0.001c-0.139 0.047-0.299 0.074-0.465 0.074-0 0-0.001 0-0.001 0h0zM6.968 13.861c-0.002-0.001-0.003-0.001-0.005-0.001s-0.004 0-0.005 0.001l0-0c-0.022 0.024-0.031 0.098-0.024 0.221v0.012c0.009 0.081 0.051 0.15 0.113 0.195l0.001 0.001c0.069 0.050 0.151 0.086 0.24 0.104l0.004 0.001c0.243 0.057 0.497 0.048 0.734-0.028 0.036-0.009 0.068-0.026 0.094-0.048l-0 0c0.016-0.024 0.026-0.053 0.026-0.085 0-0.037-0.013-0.071-0.035-0.097l0 0c-0.059-0.065-0.133-0.115-0.217-0.143l-0.004-0.001c-0.087-0.046-0.158-0.114-0.204-0.197l-0.001-0.002c-0.068-0.101-0.115-0.162-0.213-0.165-0.056 0-0.095 0.031-0.158 0.091l-0.024 0.023c-0.113 0.11-0.148 0.118-0.278 0.117l-0.044 0.003z"></path>
<path fill="#080c20" d="M18.889 15.27v-2c0-0.39-0.155-0.763-0.431-1.039-0.266-0.266-0.633-0.43-1.039-0.43-0 0-0.001 0-0.001 0h-2.264c-0 0-0.001 0-0.001 0-0.406 0-0.773 0.164-1.039 0.43l0-0c-0.266 0.266-0.431 0.633-0.431 1.039v0 2h5.206z"></path>
<path fill="#093f68" d="M18.889 15.353h-5.206c-0.046 0-0.083-0.037-0.083-0.083v0-2c0.001-0.857 0.696-1.551 1.554-1.552h2.265c0.857 0.001 1.552 0.695 1.553 1.552v2c0 0.046-0.037 0.083-0.083 0.083zM13.766 15.187h5.040v-1.917c-0.001-0.765-0.621-1.385-1.387-1.386h-2.265c-0.766 0.001-1.387 0.621-1.388 1.386v1.917z"></path>
<path fill="#093f68" d="M14.923 15.353c-0.046 0-0.083-0.037-0.083-0.083v0-1.909c0-0.046 0.037-0.083 0.083-0.083s0.083 0.037 0.083 0.083v0 1.908c0 0.046-0.037 0.083-0.083 0.083zM18.491 15.353c-0.046 0-0.083-0.037-0.083-0.083v0-1.909c0-0.046 0.037-0.083 0.083-0.083s0.083 0.037 0.083 0.083v0 1.908c0 0.046-0.037 0.083-0.083 0.083z"></path>
<path fill="#5dd0e5" d="M16.779 12.449c0.019 0.937 0.019 1.87 0 2.766z"></path>
<path fill="#093f68" d="M16.779 15.298c-0.046 0-0.083-0.037-0.083-0.083v0c0.020-0.896 0.020-1.826 0-2.762 0-0.046 0.037-0.083 0.083-0.083s0.083 0.037 0.083 0.083v0c0.010 0.412 0.015 0.898 0.015 1.385s-0.005 0.973-0.016 1.457l0.001-0.072c-0.004 0.043-0.039 0.076-0.083 0.076-0 0-0 0-0 0h0z"></path>
<path fill="#080c20" d="M16.278 11.47h0.918v0.576c-0 0.223-0.181 0.404-0.404 0.404h-0.11c-0.223 0-0.404-0.181-0.404-0.404v0-0.576h0.001z"></path>
<path fill="#093f68" d="M16.791 12.532h-0.11c-0.268-0-0.486-0.218-0.487-0.486v-0.576c0-0.046 0.037-0.083 0.083-0.083h0.918c0.046 0 0.083 0.037 0.083 0.083v0.576c-0.001 0.269-0.218 0.486-0.487 0.486-0 0-0 0-0 0h0zM16.361 11.553v0.493c0 0.177 0.144 0.32 0.32 0.32 0 0 0 0 0 0h0.11c0 0 0 0 0 0 0.177 0 0.321-0.143 0.321-0.32v-0.493h-0.752zM15.993 5.463c0.193 0.032 0.365 0.090 0.524 0.171l-0.010-0.005c-0.108-0.194-0.254-0.354-0.427-0.477l-0.004-0.003c0.685 0.005 1.397 0.143 1.94 0.561 0.928 0.714 0.664 1.694 0.517 2.679-0.077 0.505-0.188 1.003-0.281 1.504l-4.295 0.1s-0.145-1.041-0.166-1.913c0.004-0.194 0.018-0.388 0.042-0.581 0.018-0.243 0.007-0.216-0.232-0.323-0.037-0.016-0.083-0.037-0.090-0.076-0.034-0.117 0.199-0.11 0.258-0.217-0.157-0.003-0.305-0.039-0.438-0.101l0.007 0.003c0.314-0.455 0.829-0.752 1.415-0.761h0.001l-0.337-0.215c-0.029-0.014-0.052-0.039-0.063-0.069l-0-0.001c-0.011-0.056 0.056-0.094 0.111-0.111 0.492-0.155 1.030-0.251 1.528-0.164z"></path>
<path fill="#093f68" d="M13.956 10.077c-0 0-0.001 0-0.001 0-0.042 0-0.076-0.031-0.082-0.071l-0-0c0-0.010-0.147-1.056-0.166-1.924-0-0.004-0-0.010-0-0.015 0-0.138 0.009-0.273 0.027-0.406l-0.002 0.016c0.007-0.060 0.012-0.12 0.017-0.18 0.004-0.023 0.006-0.049 0.006-0.076s-0.002-0.053-0.006-0.079l0 0.003c-0.032-0.023-0.068-0.043-0.108-0.056l-0.003-0.001-0.072-0.031c-0.063-0.021-0.112-0.068-0.135-0.128l-0.001-0.002c-0.004-0.013-0.006-0.028-0.006-0.043 0-0.065 0.040-0.121 0.097-0.145l0.001-0c-0.084-0.020-0.158-0.046-0.227-0.079l0.007 0.003c-0.022-0.010-0.039-0.029-0.045-0.053l-0-0.001c-0.002-0.007-0.003-0.014-0.003-0.022 0-0.017 0.005-0.033 0.014-0.046l-0 0c0.281-0.41 0.717-0.697 1.221-0.777l0.010-0.001-0.129-0.083c-0.049-0.026-0.085-0.070-0.099-0.122l-0-0.001c-0.017-0.089 0.047-0.166 0.166-0.206 0.595-0.188 1.122-0.244 1.565-0.166 0.092 0.016 0.183 0.039 0.272 0.067-0.073-0.086-0.155-0.161-0.245-0.225l-0.004-0.003c-0.021-0.015-0.035-0.040-0.035-0.068 0-0.009 0.001-0.018 0.004-0.026l-0 0.001c0.013-0.034 0.045-0.058 0.083-0.058 0 0 0 0 0 0h-0c0.83 0.007 1.5 0.201 1.993 0.581 0.884 0.68 0.735 1.603 0.59 2.496-0.002-0.006-0.017 0.083-0.031 0.172l-0.012 0.089c-0.050 0.332-0.116 0.664-0.181 0.99-0.034 0.173-0.068 0.344-0.1 0.517-0.007 0.039-0.041 0.068-0.082 0.068-0 0-0.001 0-0.001 0h0l-4.299 0.091zM13.6 7.085c0.012 0.007 0.023 0.013 0.036 0.018l0.071 0.031c0.208 0.088 0.23 0.127 0.21 0.374-0.007 0.088-0.013 0.152-0.020 0.215l0.003-0.030c-0.015 0.112-0.024 0.241-0.024 0.372 0 0.004 0 0.009 0 0.013v-0.001c0.016 0.726 0.12 1.577 0.154 1.831l4.152-0.090c0.028-0.151 0.058-0.302 0.088-0.453 0.064-0.321 0.13-0.654 0.18-0.982 0.013-0.088 0.027-0.176 0.041-0.263 0.143-0.884 0.278-1.718-0.527-2.338-0.415-0.318-0.968-0.498-1.651-0.536 0.104 0.101 0.193 0.216 0.264 0.342l0.004 0.008c0.007 0.012 0.011 0.026 0.011 0.040 0 0.046-0.037 0.083-0.083 0.083-0.014 0-0.028-0.004-0.039-0.010l0 0c-0.142-0.075-0.306-0.133-0.479-0.164l-0.011-0.002c-0.415-0.074-0.913-0.019-1.487 0.161-0.017 0.005-0.032 0.012-0.046 0.020l0.001-0 0.017 0.012 0.332 0.215c0.031 0.020 0.046 0.058 0.036 0.093-0.011 0.037-0.045 0.061-0.083 0.060-0.522 0.007-0.986 0.255-1.284 0.637l-0.003 0.004c0.098 0.033 0.2 0.051 0.303 0.053 0.045 0.001 0.082 0.038 0.082 0.083 0 0.015-0.004 0.030-0.011 0.042l0-0c-0.044 0.062-0.106 0.109-0.179 0.131l-0.002 0.001c-0.012 0.008-0.037 0.019-0.053 0.028v0.003z"></path>
<path fill="#080c20" d="M19.275 9.648c0.008 0.368-0.253 0.672-0.582 0.679s-0.603-0.285-0.611-0.653c-0.008-0.368 0.253-0.672 0.582-0.679s0.603 0.285 0.611 0.653z"></path>
<path fill="#093f68" d="M18.68 10.409c-0.188-0.001-0.357-0.083-0.474-0.212l-0-0.001c-0.129-0.142-0.208-0.332-0.208-0.54 0-0.196 0.070-0.375 0.186-0.514l-0.001 0.001c0.116-0.138 0.287-0.227 0.478-0.233l0.001-0c0.373-0.008 0.688 0.321 0.697 0.734 0 0.007 0 0.015 0 0.023 0 0.194-0.070 0.372-0.187 0.509l0.001-0.001c-0.116 0.138-0.286 0.227-0.477 0.233l-0.001 0h-0.014zM18.675 9.081h-0.010c-0.144 0.004-0.271 0.071-0.356 0.174l-0.001 0.001c-0.089 0.109-0.144 0.25-0.144 0.404 0 0.164 0.061 0.313 0.162 0.426l-0.001-0.001c0.087 0.098 0.214 0.159 0.355 0.159 0.003 0 0.006-0 0.009-0h-0c0.144-0.005 0.271-0.072 0.356-0.174l0.001-0.001c0.090-0.107 0.145-0.247 0.145-0.399 0-0.005-0-0.011-0-0.016l0 0.001c-0.008-0.325-0.237-0.574-0.517-0.574z"></path>
<path fill="#080c20" d="M16.638 11.879c-1.31 0.028-2.518-1.561-2.545-2.849l0.314 0.112-0.031-0.913s1.632-0.468 1.399-1.226c0 0 0.493 0.561 1.185 0.544 1.271-0.032 1.762-0.378 1.762-0.378l0.051 2.329c0.027 1.289-0.825 2.352-2.135 2.381z"></path>
<path fill="#093f68" d="M16.603 11.962c-1.343 0-2.565-1.626-2.593-2.93-0-0.001-0-0.003-0-0.005 0-0.046 0.037-0.083 0.083-0.083 0.010 0 0.019 0.002 0.028 0.005l-0.001-0 0.199 0.070-0.027-0.789c-0-0.001-0-0.002-0-0.003 0-0.038 0.025-0.069 0.059-0.080l0.001-0c0.011 0 1.042-0.304 1.305-0.788 0.036-0.060 0.057-0.132 0.057-0.209 0-0.044-0.007-0.086-0.019-0.125l0.001 0.003c-0.002-0.007-0.004-0.016-0.004-0.025 0-0.046 0.037-0.083 0.083-0.083 0.025 0 0.047 0.011 0.063 0.029l0 0c0 0.005 0.463 0.516 1.093 0.516h0.032c1.223-0.030 1.711-0.36 1.716-0.363 0.013-0.010 0.030-0.015 0.048-0.015 0.045 0 0.082 0.036 0.083 0.082v0l0.051 2.329c0.001 0.030 0.002 0.064 0.002 0.099 0 0.618-0.222 1.185-0.591 1.623l0.003-0.004c-0.4 0.455-0.981 0.742-1.629 0.747h-0.001l-0.040-0.001zM14.181 9.149c0.1 1.428 1.403 2.647 2.427 2.647h0.028c0.6-0.005 1.138-0.269 1.506-0.687l0.002-0.002c0.341-0.406 0.548-0.934 0.548-1.51 0-0.034-0.001-0.068-0.002-0.101l0 0.005-0.048-2.191c-0.221 0.107-0.743 0.299-1.68 0.321-0.491 0.014-0.877-0.242-1.085-0.415-0.011 0.085-0.037 0.161-0.076 0.23l0.002-0.003c-0.258 0.476-1.104 0.773-1.343 0.85l0.029 0.847c0.001 0.027-0.012 0.054-0.034 0.070s-0.051 0.021-0.077 0.012l-0.198-0.071z"></path>
<path fill="#093f68" d="M16.208 9.262c0.003 0.119-0.092 0.218-0.211 0.22s-0.218-0.092-0.221-0.211c-0.003-0.119 0.092-0.218 0.211-0.22s0.218 0.092 0.221 0.211z"></path>
<path fill="#093f68" d="M18.287 9.222c0 0.119-0.097 0.216-0.216 0.216s-0.216-0.097-0.216-0.216c0-0.119 0.097-0.216 0.216-0.216s0.216 0.097 0.216 0.216z"></path>
<path fill="#093f68" d="M17.128 9.852c-0.063 0-0.125-0.004-0.188-0.013-0.042-0.005-0.074-0.040-0.074-0.083 0-0.046 0.038-0.084 0.084-0.084 0.005 0 0.011 0.001 0.016 0.001l-0.001-0c0.101 0.015 0.203 0.015 0.303 0 0-0.073-0.083-0.289-0.192-0.486-0.006-0.012-0.010-0.025-0.010-0.040 0-0.031 0.017-0.059 0.043-0.073l0-0c0.040-0.022 0.090-0.007 0.112 0.032 0.083 0.145 0.26 0.498 0.198 0.645-0.015 0.037-0.045 0.065-0.082 0.077l-0.001 0c-0.068 0.017-0.138 0.025-0.208 0.024z"></path>
<path fill="#080c20" d="M14.565 9.184s-0.581-0.382-0.874 0.133c-0.293 0.515 0.019 1.373 0.956 1.101z"></path>
<path fill="#093f68" d="M14.305 10.553c-0.008 0-0.018 0.001-0.028 0.001-0.242 0-0.459-0.112-0.599-0.288l-0.001-0.002c-0.111-0.149-0.179-0.336-0.179-0.54 0-0.165 0.044-0.32 0.122-0.454l-0.002 0.004c0.077-0.145 0.209-0.252 0.368-0.294l0.004-0.001c0.303-0.071 0.608 0.126 0.62 0.134 0.023 0.015 0.037 0.040 0.037 0.069 0 0.046-0.037 0.083-0.083 0.083-0.017 0-0.033-0.005-0.046-0.014l0 0s-0.258-0.166-0.492-0.111c-0.117 0.032-0.211 0.11-0.264 0.213l-0.001 0.002c-0.060 0.105-0.096 0.231-0.096 0.366 0 0.164 0.053 0.315 0.142 0.438l-0.002-0.002c0.171 0.217 0.461 0.28 0.816 0.177 0.006-0.002 0.013-0.002 0.020-0.002 0.046 0 0.083 0.037 0.083 0.083 0 0.036-0.023 0.067-0.056 0.079l-0.001 0c-0.108 0.034-0.233 0.055-0.363 0.057l-0.001 0zM16.433 8.654h-0.966c-0.001 0-0.003 0-0.005 0-0.092 0-0.166-0.074-0.166-0.166s0.074-0.166 0.166-0.166c0.002 0 0.003 0 0.005 0h0.965c0.001-0 0.003-0 0.005-0 0.092 0 0.166 0.074 0.166 0.166s-0.074 0.166-0.166 0.166c-0.002 0-0.003-0-0.005-0h0.001zM18.337 8.654h-0.965c-0.001 0-0.003 0-0.005 0-0.092 0-0.166-0.074-0.166-0.166s0.074-0.166 0.166-0.166c0.002 0 0.003 0 0.005 0h0.965c0.001-0 0.003-0 0.005-0 0.092 0 0.166 0.074 0.166 0.166s-0.074 0.166-0.166 0.166c-0.002 0-0.003-0-0.005-0h0zM17.372 10.469h-0.581s-0.033 0.581 0.315 0.602c0.23 0.014 0.267-0.602 0.267-0.602z"></path>
<path fill="#093f68" d="M17.116 11.155h-0.012c-0.34-0.021-0.407-0.442-0.392-0.688 0-0.046 0.037-0.083 0.083-0.083h0.581c0.023 0 0.045 0.010 0.061 0.027s0.024 0.039 0.023 0.061c0 0.049-0.033 0.477-0.199 0.624-0.037 0.036-0.088 0.058-0.144 0.059h-0zM16.879 10.552c0.006 0.141 0.042 0.423 0.236 0.436 0 0 0 0 0.001 0 0.013 0 0.024-0.005 0.033-0.014l0-0c0.072-0.063 0.116-0.265 0.135-0.422h-0.404z"></path>
<path fill="#080c20" d="M25.023 5.596c-0.541-0.062-1.139 0.151-1.566 0.451-0.654 0.458-0.997 1.162-1.070 1.939l-0.194 2.091c-0.096 1.027-0.355 2.182 0.61 2.889 0.498 0.366 1.132 0.498 1.749 0.552 0.175 0.018 0.378 0.029 0.583 0.029 0.607 0 1.192-0.092 1.743-0.262l-0.042 0.011c0.593-0.189 1.464-0.556 1.549-1.269 0.047-0.393-0.187-0.758-0.305-1.138-0.249-0.797 0.022-1.66-0.034-2.494-0.057-0.861-0.793-2.715-1.953-2.413-0.046 0.018-0.099 0.029-0.155 0.029-0.008 0-0.017-0-0.025-0.001l0.001 0c-0.066-0.020-0.122-0.056-0.166-0.103l-0-0c-0.196-0.17-0.446-0.283-0.721-0.311l-0.006-0z"></path>
<path fill="#093f68" d="M25.149 13.622c-0.198 0-0.399-0.009-0.604-0.027-0.783-0.066-1.353-0.249-1.791-0.567-0.895-0.656-0.781-1.695-0.68-2.612 0.012-0.118 0.026-0.236 0.037-0.351l0.194-2.088c0.083-0.857 0.462-1.549 1.105-2 0.386-0.271 1.015-0.534 1.623-0.465 0.297 0.031 0.561 0.151 0.771 0.333l-0.002-0.001 0.014 0.012c0.032 0.033 0.072 0.057 0.115 0.071 0.003 0 0.008 0 0.012 0 0.034 0 0.067-0.006 0.097-0.018l-0.002 0.001 0.037-0.010c0.080-0.022 0.173-0.034 0.268-0.034 0.25 0 0.48 0.086 0.662 0.229l-0.002-0.002c0.664 0.48 1.079 1.642 1.126 2.297 0.014 0.329 0.003 0.659-0.032 0.987-0.044 0.521-0.083 1.014 0.062 1.488 0.034 0.108 0.079 0.217 0.122 0.324 0.109 0.269 0.222 0.548 0.186 0.847-0.067 0.569-0.608 1.019-1.605 1.338-0.494 0.158-1.063 0.248-1.653 0.248-0.021 0-0.041-0-0.062-0l0.003 0zM24.83 5.668c-0.503 0-1.004 0.221-1.329 0.446-0.602 0.422-0.96 1.071-1.036 1.879l-0.189 2.089c-0.011 0.116-0.024 0.234-0.037 0.353-0.1 0.913-0.204 1.862 0.613 2.46 0.415 0.303 0.956 0.473 1.707 0.536 0.174 0.018 0.375 0.029 0.58 0.029 0.596 0 1.172-0.090 1.714-0.257l-0.041 0.011c0.93-0.297 1.432-0.701 1.495-1.199 0.030-0.257-0.070-0.505-0.176-0.766-0.044-0.11-0.091-0.223-0.126-0.338-0.157-0.505-0.112-1.036-0.070-1.55 0.035-0.32 0.046-0.641 0.033-0.963-0.041-0.622-0.433-1.723-1.058-2.172-0.154-0.121-0.35-0.195-0.564-0.195-0.081 0-0.16 0.011-0.234 0.030l0.006-0.001-0.032 0.009c-0.058 0.021-0.12 0.029-0.181 0.022-0.077-0.019-0.143-0.059-0.194-0.112l-0-0-0.013-0.012c-0.184-0.158-0.418-0.263-0.675-0.288l-0.005-0c-0.056-0.007-0.121-0.011-0.187-0.011h-0z"></path>
<path fill="#080c20" d="M27.48 15.27v-1.894c0-0.369-0.147-0.723-0.408-0.984-0.252-0.252-0.6-0.408-0.985-0.408-0 0-0 0-0 0h-2.146c-0.221 0.001-0.439 0.053-0.636 0.154-0.452 0.236-0.756 0.701-0.756 1.237 0 0 0 0 0 0.001v-0 1.894h4.93z"></path>
<path fill="#093f68" d="M27.48 15.353h-4.93c-0 0-0 0-0 0-0.046 0-0.083-0.037-0.083-0.083v0-1.894c-0.001-0.674 0.457-1.262 1.11-1.428 0.109-0.030 0.234-0.046 0.363-0.046 0.001 0 0.001 0 0.002 0h2.146c0.815 0.001 1.475 0.661 1.476 1.475v1.894c0 0.046-0.037 0.083-0.083 0.083zM22.633 15.187h4.764v-1.811c-0.001-0.722-0.587-1.308-1.31-1.309h-2.146c-0.109 0-0.218 0.014-0.324 0.041-0.095 0.025-0.187 0.060-0.275 0.104-0.425 0.22-0.71 0.657-0.71 1.16 0 0.001 0 0.001 0 0.002v-0 1.812z"></path>
<path fill="#080c20" d="M25.853 11.985c-0.103 0.619-0.571 1.088-1.132 1.088-0.547 0-1.006-0.446-1.124-1.044 0.103-0.028 0.221-0.044 0.343-0.044 0.001 0 0.001 0 0.002 0h1.911z"></path>
<path fill="#093f68" d="M24.721 13.156c-0.581 0-1.079-0.457-1.206-1.111-0.001-0.005-0.002-0.010-0.002-0.016 0-0.038 0.026-0.071 0.062-0.080l0.001-0c0.109-0.030 0.235-0.046 0.364-0.046 0 0 0.001 0 0.001 0h1.91c0.024 0 0.047 0.011 0.063 0.030s0.023 0.043 0.019 0.067c-0.11 0.67-0.621 1.157-1.212 1.157zM23.697 12.091c0.135 0.533 0.547 0.899 1.025 0.899s0.903-0.383 1.030-0.922h-1.81c-0.082 0-0.164 0.008-0.245 0.023z"></path>
<path fill="#5dd0e5" d="M26.305 15.209v-1.743z"></path>
<path fill="#093f68" d="M26.305 15.292c-0.046 0-0.083-0.037-0.083-0.083v0-1.743c0-0.046 0.037-0.083 0.083-0.083s0.083 0.037 0.083 0.083v0 1.743c0 0.046-0.037 0.083-0.083 0.083zM25.16 12.3c-0.046 0-0.083-0.037-0.083-0.083v0-0.463h-0.703v0.463c0 0.046-0.037 0.083-0.083 0.083s-0.083-0.037-0.083-0.083v0-0.546c0-0.046 0.037-0.083 0.083-0.083h0.869c0.046 0 0.083 0.037 0.083 0.083v0.546c0 0.046-0.037 0.083-0.083 0.083z"></path>
<path fill="#080c20" d="M22.153 9.764c-0.016 0.339 0.28 0.806 0.672 0.824s0.722-0.24 0.739-0.581c0.017-0.341-0.288-0.628-0.68-0.646s-0.714 0.065-0.731 0.403z"></path>
<path fill="#093f68" d="M22.864 10.672h-0.044c-0.23-0.021-0.428-0.144-0.55-0.323l-0.002-0.003c-0.124-0.158-0.198-0.36-0.198-0.58 0-0.002 0-0.004 0-0.007v0c0.002-0.182 0.112-0.337 0.269-0.405l0.003-0.001c0.127-0.050 0.273-0.080 0.427-0.080 0.041 0 0.082 0.002 0.123 0.006l-0.005-0c0.212 0.008 0.403 0.093 0.547 0.227l-0-0c0.131 0.12 0.213 0.291 0.213 0.482 0 0.009-0 0.018-0.001 0.027l0-0.001c-0.018 0.369-0.365 0.657-0.782 0.657zM22.781 9.444c-0.011-0.001-0.025-0.001-0.038-0.001-0.12 0-0.234 0.023-0.339 0.064l0.006-0.002c-0.104 0.043-0.176 0.143-0.176 0.26 0 0.001 0 0.002 0 0.003v-0c0.001 0.173 0.060 0.341 0.166 0.478 0.097 0.141 0.249 0.238 0.424 0.259l0.003 0c0.348 0.017 0.638-0.207 0.652-0.498 0-0.005 0-0.010 0-0.016 0-0.144-0.062-0.273-0.161-0.363l-0-0c-0.116-0.108-0.269-0.175-0.439-0.181l-0.001-0-0.097-0.004z"></path>
<path fill="#080c20" d="M24.675 11.956c0.030 0.002 0.065 0.002 0.1 0.002 0.557 0 1.064-0.212 1.445-0.56l-0.002 0.002c0.407-0.371 0.67-0.895 0.698-1.479l0-0.005 0.048-0.996c0.025-0.515-0.713-1.516-1.227-1.54 0 0-0.107 0.483-0.937 0.87-0.581 0.271-1.378 0.249-2.076-0.289l-0.083 1.743c-0.002 0.033-0.003 0.072-0.003 0.112 0 0.553 0.21 1.057 0.554 1.437l-0.002-0.002c0.37 0.409 0.893 0.674 1.478 0.705l0.005 0z"></path>
<path fill="#093f68" d="M24.779 12.042h-0.108c-1.229-0.062-2.175-1.107-2.115-2.334l0.083-1.743c0.002-0.031 0.020-0.058 0.048-0.071s0.059-0.009 0.083 0.009c0.721 0.556 1.502 0.509 1.993 0.279 0.775-0.362 0.889-0.809 0.89-0.814 0.009-0.037 0.042-0.064 0.081-0.064 0.001 0 0.002 0 0.002 0h-0c0.26 0.012 0.588 0.243 0.878 0.618 0.218 0.28 0.444 0.694 0.429 1.009l-0.048 0.996c-0.061 1.181-1.033 2.109-2.216 2.115zM22.798 8.122l-0.076 1.591c-0.054 1.135 0.821 2.1 1.956 2.157 1.138 0.054 2.104-0.824 2.159-1.962l0.047-0.996c0.011-0.222-0.144-0.576-0.394-0.899-0.233-0.3-0.492-0.503-0.693-0.546-0.065 0.158-0.282 0.539-0.957 0.855-0.248 0.113-0.539 0.179-0.844 0.179-0.448 0-0.864-0.142-1.203-0.384l0.006 0.004z"></path>
<path fill="#093f68" d="M25.994 9.116h-0.010l-0.944-0.057c-0.089-0.004-0.159-0.077-0.159-0.166 0-0.092 0.074-0.166 0.166-0.166 0.005 0 0.009 0 0.014 0.001l-0.001-0 0.944 0.058c0.091 0.001 0.164 0.075 0.164 0.166s-0.074 0.166-0.166 0.166c-0.003 0-0.006-0-0.009-0l0 0v-0.001zM23.854 8.99l-0.946-0.040c-0.090-0.002-0.162-0.076-0.162-0.166 0-0.092 0.074-0.166 0.166-0.166 0.004 0 0.007 0 0.011 0l-0-0 0.945 0.039c0 0 0 0 0 0 0.092 0 0.166 0.074 0.166 0.166s-0.074 0.166-0.166 0.166c-0.002 0-0.005-0-0.007-0h0l-0.007 0.001z"></path>
<path fill="#080c20" d="M26.529 10.728c0.392 0.018 0.955-0.408 0.94-0.747-0.025-0.566-0.645-0.498-0.889-0.299z"></path>
<path fill="#093f68" d="M26.556 10.811h-0.030c-0.046-0-0.082-0.037-0.082-0.083s0.037-0.083 0.083-0.083c0.001 0 0.002 0 0.004 0h-0c0.203 0.010 0.475-0.119 0.668-0.31 0.122-0.121 0.189-0.249 0.184-0.35-0.007-0.166-0.071-0.274-0.188-0.327-0.059-0.021-0.127-0.033-0.198-0.033-0.139 0-0.266 0.046-0.369 0.124l0.002-0.001c-0.014 0.010-0.031 0.016-0.049 0.016-0.046 0-0.083-0.037-0.083-0.083 0-0.025 0.011-0.047 0.028-0.062l0-0c0.174-0.14 0.498-0.221 0.739-0.112 0.123 0.056 0.273 0.183 0.286 0.472 0.007 0.149-0.076 0.318-0.233 0.474-0.179 0.182-0.482 0.359-0.76 0.359zM27.010 9.395s0.325-1.086-0.287-2.062-2.284-1.128-2.959-0.739c-1.055 0.607-1.044 1.37-1.044 1.37s-0.147-2.119 2.325-1.992c2.226 0.115 2.695 1.976 1.964 3.422z"></path>
<path fill="#093f68" d="M27.010 9.477c-0.011-0-0.022-0.002-0.031-0.006l0.001 0c-0.031-0.012-0.053-0.042-0.053-0.077 0-0.009 0.001-0.017 0.004-0.025l-0 0.001c0-0.011 0.306-1.063-0.277-1.992s-2.182-1.095-2.847-0.711c-0.996 0.573-1.002 1.269-1.002 1.298 0 0.001 0 0.002 0 0.002 0 0.046-0.037 0.083-0.083 0.083-0.044 0-0.081-0.035-0.083-0.079v-0c0-0.036-0.055-0.89 0.546-1.501 0.415-0.426 1.045-0.621 1.863-0.581 1.228 0.063 1.806 0.628 2.076 1.090 0.395 0.68 0.38 1.619-0.039 2.451-0.014 0.027-0.042 0.046-0.074 0.046h-0zM24.696 6.308c0.771 0 1.674 0.304 2.098 0.981 0.242 0.39 0.386 0.863 0.386 1.37 0 0.005 0 0.010-0 0.015v-0.001c0.128-0.581 0.062-1.157-0.201-1.608-0.356-0.613-1.026-0.962-1.94-1.009-0.767-0.039-1.352 0.139-1.736 0.529-0.171 0.177-0.304 0.391-0.384 0.631l-0.003 0.012c0.215-0.29 0.484-0.526 0.794-0.698l0.013-0.006c0.244-0.14 0.594-0.214 0.975-0.214h-0.002zM24.539 10.424c-0.074 0.002-0.148-0.007-0.219-0.027-0.038-0.012-0.068-0.040-0.083-0.075l-0-0.001c-0.052-0.134 0.101-0.43 0.197-0.594 0.015-0.023 0.041-0.038 0.070-0.038 0.046 0 0.083 0.037 0.083 0.083 0 0.014-0.003 0.027-0.009 0.038l0-0c-0.080 0.125-0.144 0.269-0.185 0.423l-0.002 0.011c0.089 0.015 0.181 0.018 0.271 0.007 0.004-0.001 0.008-0.001 0.013-0.001 0.046 0 0.084 0.037 0.084 0.084 0 0.043-0.033 0.079-0.075 0.083l-0 0c-0.004 0-0.065 0.008-0.143 0.008z"></path>
<path fill="#093f68" d="M25.152 9.478c0.104 0.005 0.185 0.094 0.18 0.198s-0.094 0.185-0.198 0.18c-0.104-0.005-0.185-0.094-0.18-0.198s0.094-0.185 0.198-0.18z"></path>
<path fill="#093f68" d="M23.368 9.392c0.104 0.005 0.185 0.094 0.18 0.198s-0.094 0.185-0.198 0.18c-0.104-0.005-0.185-0.094-0.18-0.198s0.094-0.185 0.198-0.18z"></path>
<path fill="#093f68" d="M23.57 10.279h-0.034c-0.401-0.009-0.72-0.339-0.715-0.74s0.331-0.723 0.732-0.723c0.401 0 0.728 0.323 0.732 0.723s-0.314 0.731-0.715 0.74zM23.57 9.067c-0.286 0.007-0.515 0.241-0.515 0.528 0 0.002 0 0.004 0 0.007v-0c0.004 0.289 0.239 0.521 0.528 0.521 0 0 0 0 0 0v0c0 0 0 0 0 0 0.289 0 0.524-0.233 0.528-0.521v-0c0-0.002 0-0.004 0-0.006 0-0.287-0.229-0.521-0.515-0.528h-0.026zM25.373 10.366h-0.034c-0.252-0.012-0.468-0.159-0.578-0.369l-0.002-0.004c-0.048-0.092-0.076-0.2-0.076-0.315 0-0.139 0.041-0.268 0.111-0.376l-0.002 0.003c0.125-0.191 0.338-0.316 0.58-0.316 0.012 0 0.023 0 0.035 0.001l-0.002-0c0.38 0.019 0.674 0.342 0.656 0.722-0.018 0.367-0.321 0.655-0.688 0.655v-0.001zM25.373 9.154c-0.289 0-0.523 0.235-0.523 0.523 0 0.136 0.052 0.259 0.136 0.352l-0-0c0.091 0.1 0.219 0.164 0.362 0.171l0.001 0c0.008 0.001 0.018 0.001 0.028 0.001 0.135 0 0.258-0.052 0.35-0.136l-0 0c0.107-0.096 0.174-0.235 0.174-0.39 0-0.063-0.011-0.124-0.032-0.18l0.001 0.004c-0.072-0.197-0.254-0.337-0.469-0.347l-0.001-0-0.027 0.002z"></path>
<path fill="#093f68" d="M24.768 9.731l-0.59-0.028c-0.046-0-0.082-0.037-0.082-0.083s0.037-0.083 0.083-0.083c0.001 0 0.002 0 0.004 0h-0l0.59 0.028c0.044 0.003 0.078 0.039 0.078 0.083 0 0.046-0.037 0.083-0.082 0.083h-0zM22.976 9.551c-0.020 0-0.040-0.007-0.055-0.021l-0.32-0.283c-0.017-0.015-0.028-0.037-0.028-0.062 0-0.046 0.037-0.083 0.083-0.083 0.021 0 0.041 0.008 0.055 0.021l-0-0 0.32 0.283c0.017 0.015 0.028 0.038 0.028 0.062 0 0.046-0.037 0.083-0.083 0.083-0 0-0.001 0-0.001 0h0v-0.001zM25.978 9.79c-0.001 0-0.002 0-0.003 0-0.046 0-0.083-0.037-0.083-0.083 0-0.038 0.025-0.070 0.060-0.080l0.001-0 0.909-0.259c0.007-0.002 0.015-0.003 0.023-0.003 0.038 0 0.069 0.025 0.080 0.059l0 0.001c0.002 0.007 0.003 0.015 0.003 0.023 0 0.038-0.025 0.070-0.060 0.080l-0.001 0-0.909 0.259c-0.006 0.002-0.013 0.003-0.020 0.003h-0zM24.896 10.704l-0.61 0.030s0.047 0.493 0.274 0.622c0.139 0.079 0.379-0.179 0.335-0.652z"></path>
<path fill="#093f68" d="M24.614 11.453c-0 0-0 0-0 0-0.035 0-0.068-0.009-0.096-0.025l0.001 0.001c-0.257-0.146-0.311-0.632-0.316-0.686-0-0.002-0-0.005-0-0.008 0-0.021 0.008-0.040 0.020-0.054l-0 0c0.015-0.017 0.036-0.028 0.059-0.029l0.61-0.030c0 0 0 0 0 0 0.043 0 0.079 0.033 0.083 0.075l0 0c0.035 0.368-0.093 0.624-0.235 0.715-0.035 0.024-0.078 0.040-0.125 0.041h-0zM24.38 10.813c0.027 0.154 0.094 0.399 0.221 0.471 0.017 0.009 0.040 0 0.052-0.012 0.073-0.047 0.166-0.212 0.166-0.481l-0.439 0.022z"></path>
<path fill="#080c20" d="M26.305 14.635h1.175v0.636h-1.175z"></path>
<path fill="#093f68" d="M27.48 15.353h-1.175c-0.046 0-0.083-0.037-0.083-0.083v0-0.636c0-0.046 0.037-0.083 0.083-0.083h1.175c0.046 0 0.083 0.037 0.083 0.083v0.636c0 0.046-0.037 0.083-0.083 0.083zM26.388 15.187h1.009v-0.47h-1.009v0.47z"></path>
<path fill="#080c20" d="M22.551 14.635h0.754v0.636h-0.754z"></path>
<path fill="#093f68" d="M23.305 15.353h-0.754c-0 0-0 0-0 0-0.046 0-0.083-0.037-0.083-0.083v0-0.636c0-0.046 0.037-0.083 0.083-0.083h0.754c0.046 0 0.083 0.037 0.083 0.083v0.636c0 0.046-0.037 0.083-0.083 0.083zM22.634 15.187h0.588v-0.47h-0.588v0.47z"></path>
<path fill="#093f68" d="M23.305 14.718c-0.046 0-0.083-0.037-0.083-0.083v0-1.377c0-0.046 0.037-0.083 0.083-0.083s0.083 0.037 0.083 0.083v0 1.377c0 0.046-0.037 0.083-0.083 0.083z"></path>
<path fill="#080c20" d="M20.329 0.714h5.884c0.408 0 0.739 0.331 0.739 0.739v1.791c0 0.408-0.331 0.739-0.739 0.739h-0.805v1.042l-0.919-1.042h-4.16c-0 0-0.001 0-0.001 0-0.204 0-0.388-0.083-0.522-0.216v0c-0.134-0.133-0.216-0.318-0.216-0.522 0-0 0-0.001 0-0.001v0-1.791c0-0.408 0.331-0.739 0.739-0.739z"></path>
<path fill="#093f68" d="M25.409 5.107c-0.024 0-0.047-0.010-0.062-0.028l-0.894-1.014h-4.123c-0.454-0-0.822-0.368-0.822-0.821v-1.791c0-0.454 0.368-0.821 0.822-0.822h5.884c0.454 0 0.822 0.368 0.822 0.822v1.791c-0 0.453-0.368 0.821-0.822 0.821h-0.722v0.959c0 0.035-0.021 0.066-0.054 0.078-0.009 0.003-0.019 0.005-0.029 0.005zM20.329 0.797c-0.362 0-0.655 0.294-0.656 0.656v1.791c0 0.362 0.294 0.655 0.656 0.655h4.16c0.024 0 0.047 0.010 0.062 0.028l0.774 0.878v-0.823c0-0.046 0.037-0.083 0.083-0.083h0.805c0.362 0 0.656-0.293 0.656-0.655v-1.791c-0-0.362-0.294-0.655-0.656-0.656h-5.884z"></path>
<path fill="#093f68" d="M25.923 1.875h-4.707c-0.001 0-0.002 0-0.002 0-0.046 0-0.083-0.037-0.083-0.083s0.037-0.083 0.083-0.083c0.001 0 0.002 0 0.003 0h4.707c0.001-0 0.002-0 0.002-0 0.046 0 0.083 0.037 0.083 0.083s-0.037 0.083-0.083 0.083c-0.001 0-0.002 0-0.003-0h0zM24.528 2.872h-0.963c-0.001 0-0.002 0-0.002 0-0.046 0-0.083-0.037-0.083-0.083s0.037-0.083 0.083-0.083c0.001 0 0.002 0 0.003 0h0.963c0.001-0 0.002-0 0.002-0 0.046 0 0.083 0.037 0.083 0.083s-0.037 0.083-0.083 0.083c-0.001 0-0.002 0-0.003-0h0zM22.816 2.872h-1.6c-0.001 0-0.002 0-0.002 0-0.046 0-0.083-0.037-0.083-0.083s0.037-0.083 0.083-0.083c0.001 0 0.002 0 0.003 0h1.6c0.001-0 0.002-0 0.002-0 0.046 0 0.083 0.037 0.083 0.083s-0.037 0.083-0.083 0.083c-0.001 0-0.002 0-0.003-0h0z"></path>
<path fill="#080c20" d="M21.229 0.135h-5.884c-0.409 0-0.74 0.331-0.74 0.739v1.791c0 0.408 0.332 0.739 0.74 0.739h0.805v1.042l0.918-1.042h4.161c0.408-0.001 0.739-0.331 0.739-0.739v-1.791c0-0.408-0.331-0.739-0.739-0.739z"></path>
<path fill="#093f68" d="M16.15 4.529c-0 0-0.001 0-0.001 0-0.010 0-0.020-0.002-0.029-0.006l0 0c-0.032-0.012-0.054-0.042-0.054-0.077v-0.959h-0.722c-0.454-0-0.822-0.368-0.823-0.821v-1.791c0.001-0.454 0.369-0.822 0.823-0.822h5.884c0.454 0.001 0.822 0.369 0.822 0.822v1.791c-0 0.453-0.368 0.821-0.822 0.821h-4.123l-0.892 1.014c-0.015 0.017-0.038 0.028-0.063 0.028-0.001 0-0.002 0-0.002-0h0zM15.345 0.218c-0.363 0.001-0.656 0.294-0.657 0.656v1.791c0.001 0.362 0.295 0.655 0.657 0.655h0.805c0.046 0 0.083 0.037 0.083 0.083v0.822l0.773-0.877c0.016-0.018 0.038-0.028 0.062-0.028h4.161c0.362-0.001 0.655-0.294 0.656-0.655v-1.791c-0-0.362-0.294-0.655-0.656-0.656h-5.884z"></path>
<path fill="#093f68" d="M20.641 1.218h-4.708c-0.001 0-0.002 0-0.003 0-0.046 0-0.083-0.037-0.083-0.083s0.037-0.083 0.083-0.083c0.001 0 0.002 0 0.004 0h4.707c0.001-0 0.002-0 0.003-0 0.046 0 0.083 0.037 0.083 0.083s-0.037 0.083-0.083 0.083c-0.001 0-0.002-0-0.004-0h0zM19.246 2.214h-3.312c-0.001 0-0.002 0-0.002 0-0.046 0-0.083-0.037-0.083-0.083s0.037-0.083 0.083-0.083c0.001 0 0.002 0 0.003 0h3.312c0.001-0 0.002-0 0.002-0 0.046 0 0.083 0.037 0.083 0.083s-0.037 0.083-0.083 0.083c-0.001 0-0.002 0-0.003-0h0z"></path>
</svg>
