<!-- Generated by IcoMoon.io -->
<svg version="1.1" xmlns="http://www.w3.org/2000/svg" width="45" height="32" viewBox="0 0 45 32">
<title>illustration-work-anywhere</title>
<path fill="#080c20" d="M9.92 3.299h12.532v5.659h-12.532z"></path>
<path fill="#093f68" d="M22.454 9.143h-12.534c-0.104-0.001-0.189-0.085-0.189-0.19 0-0 0-0 0-0v0-5.654c0-0.105 0.085-0.19 0.189-0.19h12.534c0.104 0 0.189 0.085 0.189 0.19v5.653c0 0.105-0.085 0.19-0.189 0.19zM10.109 8.762h12.156v-5.272h-12.156v5.272z"></path>
<path fill="#3ee9e5" d="M43.767 26.505h-42.229v-7.047c0-0.698 0.084-1.394 0.25-2.073 0.103-0.407 0.234-0.806 0.391-1.194l2.36-5.814c0.343-0.837 1.149-1.417 2.091-1.423h19.239c0.61 0 1.193 0.249 1.617 0.689l1.457 1.507 4.979 5.155c0.846 0.875 2.029 1.419 3.34 1.421h3.78c1.018 0.002 1.872 0.776 1.981 1.796l0.249 2.246 0.495 4.739z"></path>
<path fill="#093f68" d="M43.767 26.695h-42.229c-0.104-0-0.189-0.085-0.189-0.19 0-0 0-0 0-0v0-7.048c0.001-0.713 0.087-1.425 0.255-2.118 0.104-0.419 0.238-0.829 0.399-1.229l2.362-5.817c0.372-0.901 1.244-1.524 2.261-1.524 0.002 0 0.005 0 0.007 0h19.236c0.688 0.002 1.309 0.288 1.753 0.746l0.001 0.001 6.436 6.667c0.813 0.841 1.951 1.364 3.211 1.364 0.001 0 0.001 0 0.002 0h3.779c0.867 0.003 1.614 0.511 1.963 1.246l0.006 0.013c0.107 0.222 0.174 0.461 0.199 0.707l0.737 6.964c0.001 0.006 0.001 0.014 0.001 0.021 0 0.049-0.019 0.094-0.049 0.128l0-0c-0.033 0.041-0.083 0.068-0.139 0.070h-0zM1.727 26.314h41.831l-0.716-6.77c-0.023-0.216-0.081-0.413-0.169-0.593l0.005 0.011c-0.294-0.618-0.912-1.039-1.629-1.042h-3.78c-1.365-0.001-2.597-0.567-3.475-1.477l-0.001-0.001-6.434-6.667c-0.377-0.39-0.905-0.632-1.489-0.632h-19.238c-0.861 0.005-1.597 0.536-1.902 1.289l-0.005 0.014-2.37 5.815c-0.392 0.948-0.621 2.049-0.622 3.203v0.001l-0.005 6.85z"></path>
<path fill="#3ee9e5" d="M0.945 25.236h3.116v2.002h-3.116c-0.192 0-0.376-0.077-0.512-0.214-0.131-0.132-0.212-0.314-0.212-0.515 0-0 0-0 0-0.001v0-0.543c0-0.403 0.324-0.73 0.724-0.73z"></path>
<path fill="#093f68" d="M4.053 27.429h-3.108c-0.504-0.003-0.911-0.413-0.911-0.917 0-0.001 0-0.003 0-0.004v0-0.543c0-0.001 0-0.002 0-0.003 0-0.504 0.407-0.913 0.91-0.917h3.116c0.104 0 0.189 0.085 0.189 0.19v2.002c0 0.052-0.021 0.102-0.058 0.137-0.034 0.033-0.080 0.053-0.131 0.053-0.003 0-0.005-0-0.008-0h0zM0.945 25.427c-0.295 0.002-0.533 0.242-0.533 0.537 0 0.001 0 0.002 0 0.002v-0 0.542c0 0.297 0.238 0.538 0.533 0.539h2.927v-1.621h-2.928z"></path>
<path fill="#3ee9e5" d="M40.92 25.236h3.108c0.4 0.001 0.724 0.326 0.724 0.726 0 0.001 0 0.002 0 0.003v-0 0.542c0 0.193-0.077 0.379-0.212 0.516s-0.32 0.214-0.512 0.214h-3.108v-2.002z"></path>
<path fill="#093f68" d="M44.028 27.429h-3.108c-0.104-0-0.189-0.085-0.189-0.19 0-0 0-0 0-0v0-2.002c0-0.105 0.085-0.19 0.189-0.19h3.108c0.504 0.003 0.911 0.413 0.911 0.917 0 0.001 0 0.002 0 0.003v-0 0.542c0 0.001 0 0.002 0 0.003 0 0.504-0.407 0.913-0.91 0.917h-0zM41.101 27.048h2.928c0.295-0.003 0.532-0.242 0.532-0.537 0-0.001 0-0.002 0-0.002v0-0.543c0-0.297-0.238-0.538-0.533-0.539h-2.919l-0.008 1.621z"></path>
<path fill="#080c20" d="M41.685 26.947c0 2.678-2.154 4.85-4.811 4.85s-4.811-2.171-4.811-4.85c0-2.678 2.154-4.85 4.811-4.85s4.811 2.171 4.811 4.85z"></path>
<path fill="#093f68" d="M36.874 31.985c-2.023 0-3.846-1.228-4.619-3.112s-0.346-4.052 1.085-5.493c0.901-0.911 2.152-1.475 3.534-1.475 0.691 0 1.35 0.141 1.948 0.396l-0.032-0.012c1.868 0.781 3.086 2.619 3.085 4.658-0.004 2.781-2.241 5.035-5 5.038zM36.874 22.288c-1.869 0-3.555 1.135-4.27 2.876-0.223 0.527-0.352 1.14-0.352 1.782 0 1.285 0.517 2.449 1.355 3.296l-0-0c0.833 0.843 1.989 1.364 3.267 1.364 0.639 0 1.247-0.13 1.8-0.366l-0.030 0.011c1.727-0.721 2.853-2.42 2.853-4.304-0.001-2.573-2.070-4.659-4.622-4.661v0.002z"></path>
<path fill="#093f68" d="M39.206 26.947c0 1.298-1.044 2.35-2.332 2.35s-2.332-1.052-2.332-2.35c0-1.298 1.044-2.35 2.332-2.35s2.332 1.052 2.332 2.35z"></path>
<path fill="#093f68" d="M36.874 29.488c-1.047-0.002-1.943-0.642-2.322-1.552l-0.006-0.017c-0.122-0.287-0.192-0.622-0.192-0.972 0-0.701 0.282-1.335 0.739-1.797l-0 0c0.454-0.46 1.085-0.744 1.782-0.744 0.348 0 0.68 0.071 0.981 0.2l-0.016-0.006c0.922 0.395 1.556 1.295 1.556 2.343 0 0.002 0 0.004 0 0.006v-0c-0.002 1.402-1.13 2.538-2.521 2.541zM36.874 24.787c-1.183 0-2.143 0.967-2.143 2.16s0.96 2.16 2.143 2.16c1.184 0 2.143-0.967 2.143-2.16-0.001-1.192-0.96-2.159-2.143-2.16z"></path>
<path fill="#080c20" d="M12.4 26.947c0 2.678-2.154 4.85-4.811 4.85s-4.811-2.171-4.811-4.85c0-2.678 2.154-4.85 4.811-4.85s4.811 2.171 4.811 4.85z"></path>
<path fill="#093f68" d="M7.589 31.985c-2.022 0-3.846-1.228-4.62-3.112s-0.346-4.052 1.085-5.493c0.901-0.911 2.152-1.475 3.534-1.475 0.691 0 1.35 0.141 1.948 0.396l-0.032-0.012c1.868 0.781 3.086 2.619 3.085 4.658-0.003 2.782-2.24 5.036-5 5.038zM7.589 22.288c-2.553 0-4.622 2.086-4.622 4.659s2.069 4.659 4.622 4.659c2.553 0 4.622-2.086 4.622-4.659s-2.069-4.659-4.622-4.661v0.002z"></path>
<path fill="#093f68" d="M9.92 26.947c0 1.298-1.044 2.35-2.332 2.35s-2.332-1.052-2.332-2.35c0-1.298 1.044-2.35 2.332-2.35s2.332 1.052 2.332 2.35z"></path>
<path fill="#093f68" d="M7.589 29.488c-1.392 0-2.521-1.137-2.521-2.541s1.129-2.541 2.521-2.541 2.521 1.138 2.521 2.541c-0.003 1.402-1.13 2.539-2.521 2.541zM7.589 24.787c-1.184 0-2.143 0.967-2.143 2.16s0.959 2.16 2.143 2.16 2.143-0.967 2.143-2.16c-0.001-1.192-0.96-2.159-2.143-2.16z"></path>
<path fill="#080c20" d="M15.835 11.154v6.238h-14.049c0.104-0.409 0.235-0.811 0.393-1.202l2.042-5.034 11.613-0.002z"></path>
<path fill="#093f68" d="M15.835 17.583h-14.047c-0.002 0-0.004 0-0.006 0-0.060 0-0.113-0.028-0.147-0.071l-0-0c-0.026-0.032-0.041-0.074-0.041-0.119 0-0.017 0.002-0.033 0.006-0.049l-0 0.001c0.105-0.418 0.238-0.829 0.399-1.229l2.043-5.034c0.029-0.070 0.096-0.118 0.175-0.118 0 0 0 0 0 0h11.619c0.104 0 0.189 0.085 0.189 0.19v6.238c0 0.105-0.084 0.19-0.189 0.19zM2.041 17.202h13.606v-5.858h-11.301l-1.994 4.916c-0.103 0.244-0.212 0.557-0.304 0.877l-0.016 0.064h0.007z"></path>
<path fill="#080c20" d="M35.525 17.392h-17.384v-6.238h10.791l4.979 5.155c0.444 0.461 0.982 0.828 1.583 1.073l0.031 0.011z"></path>
<path fill="#093f68" d="M35.525 17.583h-17.384c-0.104-0-0.189-0.085-0.189-0.19 0-0 0-0 0-0v0-6.238c0-0.105 0.084-0.19 0.189-0.19h10.791c0.051 0 0.099 0.021 0.134 0.057l4.979 5.155c0.425 0.441 0.938 0.793 1.512 1.029l0.030 0.011c0.071 0.029 0.119 0.097 0.119 0.177 0 0.105-0.084 0.19-0.189 0.191h0.007zM18.329 17.202h16.402c-0.358-0.223-0.668-0.475-0.943-0.761l-0.001-0.002-4.922-5.095h-10.523l-0.011 5.857zM30.727 25.427h-16.556c-0.104-0-0.189-0.085-0.189-0.19 0-0 0-0.001 0-0.001v0c0-0.105 0.085-0.19 0.189-0.19h16.548c0.104 0 0.189 0.085 0.189 0.19s-0.085 0.19-0.189 0.19h0.007zM16.872 24.627c-0.104-0.001-0.189-0.085-0.189-0.19 0-0 0-0.001 0-0.001v0-6.038c0-0.105 0.084-0.19 0.189-0.19s0.189 0.085 0.189 0.19v6.038c0 0.105-0.084 0.19-0.189 0.19zM21.353 19.589h-2.043c-0.104-0-0.189-0.085-0.189-0.19 0-0 0-0 0-0v0c0-0.105 0.085-0.191 0.189-0.191h2.043c0.104 0 0.189 0.085 0.189 0.19s-0.085 0.19-0.189 0.19zM14.435 19.589h-2.035c-0.104-0-0.189-0.085-0.189-0.19 0-0 0-0 0-0v0c0-0.105 0.085-0.191 0.189-0.191h2.035c0.104 0 0.189 0.085 0.189 0.19s-0.084 0.19-0.189 0.19z"></path>
<path fill="#080c20" d="M0.446 18.897h1.092v3.202h-1.092z"></path>
<path fill="#093f68" d="M1.538 22.286h-1.092c-0.104-0-0.189-0.085-0.189-0.19 0-0 0-0 0-0v0-3.198c0-0.105 0.085-0.19 0.189-0.19h1.092c0.104 0 0.189 0.085 0.189 0.19v3.198c0 0.105-0.085 0.19-0.189 0.19zM0.635 21.905h0.714v-2.817h-0.714v2.817z"></path>
<path fill="#080c20" d="M43.272 21.766h-1.587c-0.434-0.001-0.784-0.353-0.784-0.787 0-0.001 0-0.002 0-0.004v0-1.306c0-0.001 0-0.002 0-0.003 0-0.434 0.351-0.786 0.784-0.787h1.162c0.099 0.203 0.163 0.422 0.189 0.647l0.236 2.24z"></path>
<path fill="#093f68" d="M43.272 21.956h-1.587c-0.538-0.003-0.973-0.44-0.973-0.979 0-0.001 0-0.002 0-0.002v0-1.306c0-0.001 0-0.001 0-0.002 0-0.539 0.435-0.976 0.973-0.979h1.162c0.073 0 0.139 0.042 0.17 0.109 0.107 0.223 0.174 0.463 0.199 0.709l0.245 2.242c0.001 0.006 0.001 0.014 0.001 0.022 0 0.104-0.084 0.188-0.188 0.188-0.001 0-0.002 0-0.002 0h0zM41.691 19.069c-0.329 0-0.595 0.269-0.595 0.6v1.306c0 0.332 0.267 0.6 0.595 0.6h1.372l-0.215-2.031c-0.020-0.176-0.061-0.337-0.121-0.489l0.005 0.013h-1.040zM5.533 16.232c0 0 0 0 0 0-0.062 0-0.117-0.030-0.151-0.076l-0-0c-0.024-0.031-0.038-0.071-0.038-0.114 0-0.062 0.029-0.117 0.075-0.152l0-0 4.765-3.602c0.031-0.024 0.071-0.038 0.114-0.038 0.062 0 0.117 0.030 0.151 0.076l0 0.001c0.024 0.031 0.038 0.071 0.038 0.114 0 0.062-0.030 0.117-0.075 0.152l-0 0-4.765 3.598c-0.031 0.025-0.070 0.041-0.113 0.042h-0zM11.043 15.65c-0.104-0.002-0.188-0.087-0.188-0.192 0-0.059 0.027-0.112 0.069-0.147l0-0 3.392-2.802c0.032-0.027 0.074-0.043 0.12-0.043 0.059 0 0.112 0.027 0.146 0.070l0 0c0.027 0.033 0.043 0.075 0.043 0.121 0 0.059-0.027 0.112-0.069 0.147l-0 0-3.392 2.802c-0.032 0.027-0.075 0.044-0.121 0.044-0 0-0 0-0 0v0zM20.326 16.232c-0 0-0.001 0-0.001 0-0.104 0-0.188-0.084-0.188-0.188 0-0.004 0-0.008 0-0.011l-0 0.001c0.003-0.053 0.026-0.099 0.063-0.132l0-0 4.365-4.036c0.033-0.031 0.078-0.050 0.127-0.050 0.055 0 0.105 0.024 0.14 0.062l0 0c0.070 0.078 0.065 0.198-0.012 0.269l-4.365 4.044c-0.032 0.026-0.074 0.042-0.119 0.042-0.004 0-0.007-0-0.011-0l0 0zM26.134 15.65c-0.104-0.002-0.187-0.087-0.187-0.191 0-0.052 0.021-0.1 0.055-0.134l-0 0 2.078-2.096c0.073-0.073 0.193-0.073 0.267 0s0.073 0.195 0 0.269l-2.079 2.095c-0.034 0.035-0.081 0.057-0.134 0.057h-0zM24.694 9.143h-17.135c-0.003 0-0.006 0-0.009 0-0.061 0-0.116-0.029-0.15-0.075l-0-0c-0.024-0.032-0.038-0.072-0.038-0.115 0-0.021 0.003-0.042 0.010-0.061l-0 0.001 0.816-2.524c0.026-0.082 0.104-0.136 0.189-0.131h15.495c0.082 0 0.154 0.053 0.179 0.131l0.816 2.524c0.006 0.018 0.009 0.038 0.009 0.059 0 0.042-0.014 0.081-0.037 0.113l0-0.001c-0.033 0.046-0.086 0.075-0.145 0.078h-0zM7.823 8.762h16.611l-0.693-2.143h-15.225l-0.693 2.143z"></path>
<path fill="#080c20" d="M12.368 0.206h8.216v3.093h-8.216z"></path>
<path fill="#093f68" d="M20.582 3.49h-8.214c-0.104-0.001-0.189-0.085-0.189-0.19 0-0 0-0.001 0-0.001v0-3.093c0-0.105 0.085-0.19 0.189-0.19h8.214c0.105 0 0.189 0.085 0.189 0.19v3.093c0 0.105-0.084 0.19-0.189 0.19zM12.557 3.109h7.836v-2.713h-7.836v2.713z"></path>
<path fill="#093f68" d="M12.632 9.143c-0.008 0.001-0.018 0.002-0.027 0.002s-0.019-0.001-0.028-0.002l0.001 0c-0.079-0.025-0.134-0.097-0.134-0.182 0-0.019 0.003-0.038 0.008-0.055l-0 0.001 2.582-8.762c0.024-0.079 0.096-0.135 0.181-0.135 0.019 0 0.037 0.003 0.054 0.008l-0.001-0c0.079 0.024 0.136 0.097 0.136 0.183 0 0.019-0.003 0.037-0.008 0.055l0-0.001-2.581 8.762c-0.026 0.075-0.096 0.128-0.179 0.128-0.001 0-0.002 0-0.003-0h0zM20.436 9.143c-0.002 0-0.005 0-0.007 0-0.086 0-0.158-0.057-0.181-0.136l-0-0.001-2.517-8.762c-0.005-0.016-0.007-0.033-0.007-0.052 0-0.086 0.056-0.158 0.134-0.182l0.001-0c0.016-0.005 0.034-0.008 0.054-0.008 0.086 0 0.158 0.058 0.181 0.136l0 0.001 2.517 8.761c0.005 0.016 0.008 0.035 0.008 0.054 0 0.086-0.057 0.158-0.134 0.182l-0.001 0c-0.013 0.004-0.027 0.006-0.042 0.006-0.001 0-0.002 0-0.003-0h0zM11.821 4.257h-0.96c-0.104-0-0.189-0.085-0.189-0.19 0-0 0-0 0-0v0c0-0.106 0.085-0.191 0.189-0.191h0.96c0.104 0 0.189 0.085 0.189 0.19s-0.085 0.19-0.189 0.19zM13.605 1.122h-0.595c-0.104-0-0.189-0.085-0.189-0.19 0-0 0-0.001 0-0.001v0c0-0.105 0.084-0.19 0.189-0.19h0.595c0.105 0 0.189 0.085 0.189 0.19s-0.084 0.19-0.189 0.19z"></path>
</svg>
