<!-- Generated by IcoMoon.io -->
<svg version="1.1" xmlns="http://www.w3.org/2000/svg" width="27" height="32" viewBox="0 0 27 32">
<title>illustration-lifestyle</title>
<path fill="#3ee9e5" d="M20.523 31.615l-5.063-3.324v-9.627c0-0.337-0.272-0.611-0.607-0.611s-0.607 0.273-0.607 0.611v9.636l-5.063 3.325 11.339-0.008z"></path>
<path fill="#093f68" d="M20.523 31.823h-11.347c-0.113-0.002-0.204-0.095-0.204-0.209 0-0.072 0.037-0.136 0.092-0.173l0.001-0 4.968-3.254v-9.523c0-0.001 0-0.002 0-0.003 0-0.45 0.364-0.814 0.813-0.816h0c0.449 0.002 0.813 0.366 0.813 0.816 0 0.001 0 0.002 0 0.003v-0 9.523l4.974 3.254c0.056 0.038 0.092 0.101 0.092 0.173 0 0.114-0.091 0.206-0.204 0.209h0.002zM9.881 31.408h9.946l-4.481-2.941c-0.056-0.038-0.093-0.101-0.093-0.173 0-0 0-0.001 0-0.001v0-9.629c0-0 0-0.001 0-0.001 0-0.221-0.179-0.401-0.4-0.402h-0c-0.221 0-0.4 0.18-0.4 0.403v9.636c0 0 0 0.001 0 0.001 0 0.072-0.037 0.136-0.092 0.173l-0.001 0-4.48 2.933z"></path>
<path fill="#080c20" d="M7.725 6.483c0 2.087-1.68 3.78-3.753 3.78s-3.753-1.692-3.753-3.78c0-2.088 1.68-3.78 3.753-3.78s3.753 1.692 3.753 3.78z"></path>
<path fill="#093f68" d="M3.972 10.471c-1.601 0-3.045-0.972-3.658-2.462-0.191-0.451-0.302-0.975-0.302-1.526 0-1.1 0.443-2.096 1.16-2.82l-0 0c0.714-0.721 1.705-1.168 2.799-1.168 0.547 0 1.068 0.111 1.541 0.313l-0.026-0.010c1.479 0.617 2.444 2.072 2.444 3.684-0.002 2.201-1.774 3.985-3.959 3.988zM3.972 2.913c-1.435 0-2.728 0.87-3.277 2.205-0.171 0.404-0.27 0.873-0.27 1.366 0 0.986 0.397 1.878 1.040 2.527l-0-0c1.014 1.021 2.541 1.326 3.866 0.773s2.189-1.856 2.188-3.301c-0.001-1.972-1.588-3.572-3.547-3.574v0.004z"></path>
<path fill="#080c20" d="M14.853 19.786l-12.162-14.242h24.325z"></path>
<path fill="#093f68" d="M14.855 19.994c-0.063-0-0.119-0.028-0.156-0.073l-0-0-12.163-14.242c-0.031-0.036-0.050-0.084-0.050-0.135 0-0.032 0.007-0.062 0.020-0.088l-0.001 0.001c0.033-0.072 0.105-0.12 0.188-0.12h24.323c0.080 0 0.154 0.047 0.188 0.12s0.022 0.161-0.031 0.222l-12.163 14.242c-0.037 0.044-0.093 0.072-0.155 0.073h-0zM3.14 5.752l11.713 13.714 11.713-13.714h-23.425z"></path>
<path fill="#3ee9e5" d="M5.618 8.971l9.235 10.815 9.235-10.815z"></path>
<path fill="#093f68" d="M14.855 19.994c-0.063-0-0.119-0.028-0.156-0.073l-0-0-9.235-10.815c-0.031-0.036-0.050-0.084-0.050-0.135 0-0.032 0.007-0.062 0.020-0.089l-0.001 0.001c0.033-0.072 0.105-0.12 0.188-0.12h18.47c0.080 0 0.154 0.047 0.188 0.12s0.022 0.161-0.031 0.222l-9.235 10.816c-0.038 0.045-0.094 0.073-0.157 0.073h-0zM6.070 9.189l8.785 10.277 8.787-10.288-17.572 0.010z"></path>
<path fill="#093f68" d="M15.199 18.221c-0.114-0.001-0.207-0.093-0.207-0.208 0-0.042 0.012-0.081 0.034-0.113l-0.001 0.001 11.121-17.797c0.037-0.059 0.102-0.098 0.175-0.098 0.041 0 0.079 0.012 0.111 0.033l-0.001-0.001c0.097 0.061 0.126 0.19 0.065 0.288l-11.122 17.797c-0.037 0.059-0.102 0.098-0.175 0.098-0 0-0 0-0 0v0z"></path>
<path fill="#080c20" d="M27.015 2.705c0 1.188-0.956 2.151-2.136 2.151s-2.136-0.963-2.136-2.151c0-1.188 0.956-2.151 2.136-2.151s2.136 0.963 2.136 2.151z"></path>
<path fill="#093f68" d="M24.88 5.064c-1.295 0.001-2.345-1.055-2.346-2.358s1.047-2.361 2.342-2.363c1.294-0.001 2.345 1.055 2.346 2.358 0 1.303-1.047 2.36-2.341 2.363zM24.88 0.76c-0.803 0-1.491 0.49-1.782 1.188l-0.005 0.013c-0.093 0.22-0.147 0.476-0.147 0.744 0 0.537 0.216 1.023 0.567 1.377l-0-0c0.348 0.351 0.831 0.569 1.364 0.569 0.268 0 0.523-0.055 0.754-0.154l-0.013 0.005c0.705-0.303 1.19-0.991 1.19-1.793 0-0.003 0-0.005-0-0.008v0c-0.003-1.071-0.866-1.938-1.929-1.941z"></path>
<path fill="#093f68" d="M23.702 2.589c-0.009 0.002-0.020 0.002-0.031 0.002s-0.022-0.001-0.032-0.002l0.001 0c-0.085-0.027-0.145-0.106-0.145-0.198 0-0.022 0.003-0.043 0.010-0.063l-0 0.001c0.293-0.887 1.232-1.381 2.123-1.116 0.093 0.025 0.16 0.108 0.16 0.206 0 0.118-0.095 0.213-0.213 0.213-0.015 0-0.029-0.002-0.043-0.004l0.001 0c-1.261-0.301-1.62 0.788-1.634 0.831-0.032 0.076-0.105 0.129-0.191 0.129-0.002 0-0.003-0-0.005-0h0zM13.848 11.975c-0.032-0-0.062-0.007-0.090-0.019l0.001 0.001-3.561-1.723c-0.050-0.023-0.088-0.064-0.105-0.115l-0-0.001c-0.010-0.024-0.016-0.051-0.016-0.080s0.006-0.056 0.016-0.081l-0.001 0.001 1.709-3.586c0.034-0.070 0.104-0.118 0.186-0.118 0.032 0 0.063 0.007 0.090 0.021l-0.001-0.001 3.561 1.721c0.102 0.049 0.146 0.173 0.097 0.276l-1.704 3.588c-0.024 0.049-0.065 0.087-0.116 0.106l-0.001 0c-0.018 0.007-0.039 0.010-0.061 0.010-0.001 0-0.002 0-0.003-0h0zM10.562 9.949l3.19 1.542 1.531-3.213-3.19-1.542-1.531 3.213zM13.265 16.511c-0.087-0-0.161-0.054-0.191-0.13l-0.001-0.001-1.081-2.762c-0.009-0.023-0.015-0.049-0.015-0.077 0-0.087 0.053-0.162 0.129-0.193l0.001-0.001 2.748-1.089c0.023-0.009 0.049-0.015 0.077-0.015 0.087 0 0.161 0.054 0.191 0.13l0 0.001 1.083 2.762c0.009 0.022 0.014 0.048 0.014 0.074 0 0.087-0.054 0.162-0.13 0.193l-0.001 0.001-2.74 1.091c-0.023 0.009-0.049 0.015-0.076 0.015-0.003 0-0.006-0-0.008-0h0zM12.45 13.66l0.93 2.373 2.358-0.937-0.93-2.373-2.358 0.937z"></path>
</svg>
