<!-- Generated by IcoMoon.io -->
<svg version="1.1" xmlns="http://www.w3.org/2000/svg" width="27" height="32" viewBox="0 0 27 32">
<title>illustration-financial-freedom</title>
<path fill="#080c20" d="M25.263 8.895c-1.16-1.433-3.608-1.512-4.269-3.648s-0.47-3.041-0.47-3.041h-14.442s0.196 0.903-0.47 3.041-3.109 2.212-4.269 3.648c-1.027 1.272-1.027 3.151-1.027 5.142v13.21c0 2.138 0.99 4.386 3.342 4.386h19.29c2.348 0 3.342-2.248 3.342-4.386v-13.21c0-1.991 0-3.869-1.027-5.142z"></path>
<path fill="#093f68" d="M22.948 31.829h-19.29c-2.443 0-3.537-2.303-3.537-4.582v-13.21c0-2.026 0-3.94 1.070-5.265 0.495-0.611 1.207-0.982 1.896-1.349 1.014-0.534 1.97-1.039 2.348-2.234 0.632-2.044 0.466-2.933 0.464-2.945s-0.004-0.025-0.004-0.039c0-0.109 0.088-0.197 0.197-0.197 0.001 0 0.002 0 0.003 0h14.442c0.061 0 0.115 0.029 0.15 0.072l0 0c0.028 0.034 0.045 0.077 0.045 0.125 0 0.014-0.001 0.028-0.004 0.041l0-0.001s-0.168 0.897 0.464 2.945c0.37 1.196 1.326 1.7 2.348 2.234 0.689 0.363 1.4 0.738 1.896 1.349 1.070 1.325 1.070 3.24 1.070 5.265v13.211c-0.019 2.277-1.113 4.58-3.557 4.58zM6.3 2.403c0.022 0.403-0.012 1.327-0.499 2.902-0.419 1.353-1.493 1.918-2.531 2.466-0.683 0.36-1.33 0.701-1.773 1.249-0.978 1.217-0.978 3.063-0.978 5.018v13.21c0 2.085 0.978 4.189 3.146 4.189h19.29c2.173 0 3.146-2.104 3.146-4.189v-13.21c0-1.963 0-3.8-0.978-5.018-0.442-0.548-1.090-0.89-1.773-1.249-1.039-0.548-2.113-1.113-2.532-2.466-0.487-1.571-0.521-2.499-0.499-2.902h-14.019z"></path>
<path fill="#093f68" d="M22.948 30.651h-19.29c-2.299 0-2.363-3.057-2.363-3.404v-13.21c0-1.812 0-3.522 0.808-4.515 0.342-0.422 0.92-0.726 1.53-1.048 1.070-0.563 2.401-1.264 2.915-2.927 0.219-0.737 0.393-1.612 0.489-2.511l0.006-0.067c0.012-0.098 0.095-0.173 0.195-0.173 0 0 0.001 0 0.001 0h12.149c0 0 0.001 0 0.001 0 0.1 0 0.182 0.075 0.194 0.172l0 0.001c0.088 0.869 0.252 1.729 0.487 2.57 0.515 1.663 1.845 2.356 2.913 2.927 0.612 0.322 1.189 0.626 1.532 1.048 0.808 1.001 0.808 2.711 0.808 4.515v13.21c-0.012 0.355-0.077 3.412-2.375 3.412zM7.403 3.188c-0.103 0.927-0.272 1.764-0.508 2.572l0.027-0.106c-0.563 1.818-1.972 2.552-3.105 3.159-0.575 0.302-1.117 0.589-1.409 0.948-0.722 0.893-0.722 2.536-0.722 4.276v13.21c0 0.308 0.055 3.012 1.972 3.012h19.29c1.917 0 1.972-2.703 1.972-3.012v-13.21c0-1.739 0-3.383-0.722-4.276-0.291-0.36-0.833-0.646-1.407-0.948-1.135-0.589-2.543-1.341-3.107-3.159-0.209-0.702-0.378-1.539-0.475-2.397l-0.006-0.069h-11.8z"></path>
<path fill="#080c20" d="M4.819 0.291h16.969c0.837 0.001 1.514 0.68 1.514 1.517 0 0.001 0 0.002 0 0.003v-0 0.982c0 0.224-0.089 0.44-0.247 0.598s-0.372 0.248-0.596 0.248h-18.312c-0.233-0-0.444-0.095-0.596-0.248l-0-0c-0.153-0.153-0.247-0.365-0.247-0.598 0-0 0-0 0-0v0-0.982c0-0.001 0-0.002 0-0.003 0-0.837 0.678-1.516 1.514-1.517h0z"></path>
<path fill="#093f68" d="M22.459 3.84h-18.312c-0.574-0.001-1.039-0.466-1.039-1.041 0-0.001 0-0.002 0-0.002v0-0.982c0.001-0.947 0.766-1.715 1.71-1.716h16.969c0.944 0.001 1.709 0.769 1.71 1.716v0.982c0 0.575-0.465 1.042-1.039 1.042zM4.819 0.487c-0.364 0-0.694 0.148-0.933 0.388l-0 0c-0.239 0.24-0.386 0.57-0.386 0.935 0 0 0 0 0 0v0 0.982c0 0.359 0.29 0.65 0.648 0.65h18.312c0.357 0 0.647-0.291 0.647-0.65v-0.982c0-0.001 0-0.001 0-0.002 0-0.729-0.59-1.32-1.318-1.321h-16.969z"></path>
<path fill="#3ee9e5" d="M5.809 16.538h8.927c0.752 0 1.362 0.61 1.362 1.362v-0c0 0.752-0.61 1.362-1.362 1.362h-8.927c-0.752 0-1.362-0.61-1.362-1.362v0c0-0.752 0.61-1.362 1.362-1.362z"></path>
<path fill="#093f68" d="M15.315 19.457h-10.085c-0.54-0.001-0.978-0.439-0.978-0.98 0-0.001 0-0.001 0-0.002v0-1.152c0-0.001 0-0.001 0-0.002 0-0.54 0.438-0.979 0.978-0.98h10.085c0.54 0.001 0.978 0.439 0.978 0.98 0 0.001 0 0.001 0 0.002v-0 1.152c0 0.001 0 0.001 0 0.002 0 0.54-0.438 0.979-0.978 0.98h-0zM5.229 16.734c-0.324 0-0.587 0.264-0.587 0.589v1.152c0 0.325 0.262 0.589 0.587 0.589h10.085c0.324 0 0.587-0.264 0.587-0.589v-1.152c0-0.325-0.262-0.589-0.587-0.589h-10.085z"></path>
<path fill="#3ee9e5" d="M7.004 19.261h8.927c0.752 0 1.362 0.61 1.362 1.362v-0c0 0.752-0.61 1.362-1.362 1.362h-8.927c-0.752 0-1.362-0.61-1.362-1.362v0c0-0.752 0.61-1.362 1.362-1.362z"></path>
<path fill="#093f68" d="M16.51 22.184h-10.085c-0.54-0.001-0.978-0.439-0.978-0.98 0-0.001 0-0.001 0-0.002v0-1.155c0-0.001 0-0.001 0-0.002 0-0.54 0.438-0.979 0.978-0.98h10.085c0.54 0.001 0.978 0.439 0.978 0.98 0 0.001 0 0.001 0 0.002v-0 1.154c0 0.26-0.103 0.51-0.286 0.694s-0.432 0.288-0.692 0.288zM6.424 19.459c-0.324 0-0.587 0.264-0.587 0.589v1.154c0 0.325 0.263 0.589 0.587 0.589h10.085c0.324 0 0.586-0.264 0.586-0.589v-1.154c0-0.325-0.262-0.589-0.587-0.589h-10.085z"></path>
<path fill="#3ee9e5" d="M14.373 24.714h-8.927c-0.752 0-1.362-0.61-1.362-1.362v0c0-0.752 0.61-1.362 1.362-1.362h8.927c0.752 0 1.362 0.61 1.362 1.362v-0c0 0.752-0.61 1.362-1.362 1.362z"></path>
<path fill="#093f68" d="M14.953 24.911h-10.085c-0.54-0.001-0.978-0.439-0.978-0.98 0-0.001 0-0.001 0-0.002v0-1.156c0-0.001 0-0.001 0-0.002 0-0.54 0.438-0.979 0.978-0.98h10.085c0.54 0.001 0.978 0.439 0.978 0.98 0 0.001 0 0.001 0 0.002v-0 1.153c0 0.001 0 0.003 0 0.004 0 0.27-0.109 0.514-0.285 0.692l0-0c-0.177 0.178-0.422 0.289-0.693 0.289 0 0 0 0 0 0v0zM4.867 22.184c-0.324 0-0.587 0.264-0.587 0.589v1.153c0 0.325 0.263 0.589 0.587 0.589h10.085c0.324 0 0.587-0.264 0.587-0.589v-1.153c0-0.325-0.262-0.589-0.587-0.589h-10.085z"></path>
<path fill="#3ee9e5" d="M12.732 27.438h-8.927c-0.752 0-1.362-0.61-1.362-1.362v0c0-0.752 0.61-1.362 1.362-1.362h8.927c0.752 0 1.362 0.61 1.362 1.362v-0c0 0.752-0.61 1.362-1.362 1.362z"></path>
<path fill="#093f68" d="M13.303 27.634h-10.077c-0.54-0.001-0.978-0.439-0.978-0.98 0-0.001 0-0.001 0-0.002v0-1.152c0-0.001 0-0.001 0-0.002 0-0.54 0.438-0.979 0.978-0.98h10.078c0.54 0.001 0.978 0.439 0.978 0.98 0 0.001 0 0.001 0 0.002v-0 1.152c0 0.001 0 0.001 0 0.002 0 0.54-0.438 0.979-0.978 0.98h-0zM3.218 24.911c-0.324 0-0.587 0.264-0.587 0.589v1.152c0 0.325 0.263 0.589 0.587 0.589h10.085c0.324 0 0.587-0.264 0.587-0.589v-1.152c0-0.325-0.262-0.589-0.587-0.589h-10.085z"></path>
<path fill="#3ee9e5" d="M14.373 30.163h-8.927c-0.752 0-1.362-0.61-1.362-1.362v0c0-0.752 0.61-1.362 1.362-1.362h8.927c0.752 0 1.362 0.61 1.362 1.362v-0c0 0.752-0.61 1.362-1.362 1.362z"></path>
<path fill="#093f68" d="M14.953 30.359h-10.085c-0.54-0.001-0.978-0.439-0.978-0.98 0-0.001 0-0.001 0-0.002v0-1.154c0-0.001 0-0.001 0-0.002 0-0.54 0.438-0.979 0.978-0.98h10.085c0.54 0.001 0.978 0.439 0.978 0.98 0 0.001 0 0.001 0 0.002v-0 1.154c0 0.001 0 0.001 0 0.002 0 0.54-0.438 0.979-0.978 0.98h-0zM4.867 27.634c-0.324 0-0.587 0.264-0.587 0.589v1.154c0 0.325 0.263 0.589 0.587 0.589h10.085c0.324 0 0.587-0.264 0.587-0.589v-1.154c0-0.325-0.262-0.589-0.587-0.589h-10.085z"></path>
<path fill="#3ee9e5" d="M24.781 20.767l-3.752 8.146c-0.22 0.469-0.688 0.787-1.23 0.787-0.207 0-0.403-0.046-0.578-0.129l0.008 0.003c-0.469-0.221-0.788-0.691-0.788-1.235 0-0.207 0.046-0.402 0.128-0.578l-0.003 0.008 3.753-8.146c0.22-0.469 0.688-0.787 1.23-0.787 0.207 0 0.403 0.046 0.578 0.129l-0.008-0.003c0.469 0.222 0.788 0.691 0.788 1.235 0 0.207-0.046 0.402-0.128 0.578l0.003-0.008z"></path>
<path fill="#093f68" d="M20.076 30.084c-0.141 0-0.28-0.031-0.409-0.090l-1.044-0.485c-0.338-0.16-0.567-0.499-0.567-0.891 0-0.149 0.033-0.29 0.092-0.417l-0.003 0.006 4.232-9.186c0.11-0.236 0.305-0.417 0.543-0.507l0.007-0.002c0.1-0.038 0.216-0.060 0.338-0.060 0.149 0 0.291 0.034 0.417 0.093l-0.006-0.003 1.043 0.483c0.236 0.111 0.416 0.306 0.506 0.546l0.002 0.007c0.090 0.244 0.078 0.515-0.031 0.751l-4.232 9.185c-0.158 0.339-0.496 0.569-0.888 0.57h-0zM23.265 18.847c-0.067 0-0.133 0.013-0.196 0.037-0.146 0.054-0.265 0.164-0.331 0.306l-4.231 9.185c-0.035 0.072-0.055 0.157-0.055 0.246 0 0.073 0.014 0.143 0.038 0.207l-0.001-0.004c0.051 0.143 0.156 0.26 0.292 0.328l1.043 0.483c0.073 0.035 0.159 0.056 0.25 0.056 0.235 0 0.438-0.139 0.531-0.339l0.002-0.004 4.239-9.186c0.035-0.073 0.055-0.159 0.055-0.249 0-0.236-0.139-0.44-0.339-0.535l-0.004-0.002-1.043-0.485c-0.069-0.030-0.149-0.047-0.233-0.047-0.006 0-0.012 0-0.019 0l0.001-0z"></path>
<path fill="#3ee9e5" d="M22.751 18.616l-4.542 7.729c-0.24 0.402-0.672 0.668-1.167 0.668-0.254 0-0.492-0.070-0.696-0.192l0.006 0.003c-0.403-0.241-0.669-0.676-0.669-1.172 0-0.255 0.070-0.493 0.191-0.696l-0.003 0.006 4.542-7.728c0.24-0.403 0.672-0.668 1.167-0.668 0.254 0 0.492 0.070 0.696 0.192l-0.006-0.003c0.403 0.241 0.668 0.676 0.668 1.172 0 0.255-0.070 0.493-0.191 0.697l0.003-0.006z"></path>
<path fill="#093f68" d="M17.244 27.422c-0.174 0-0.345-0.047-0.495-0.136l-0.99-0.589c-0.29-0.175-0.482-0.488-0.482-0.846 0-0.184 0.050-0.356 0.138-0.503l-0.002 0.005 5.129-8.714c0.172-0.291 0.485-0.483 0.842-0.483 0.184 0 0.356 0.051 0.503 0.14l-0.004-0.002 0.99 0.589c0.29 0.175 0.48 0.488 0.48 0.846 0 0.184-0.050 0.356-0.138 0.504l0.003-0.005-5.123 8.717c-0.174 0.289-0.485 0.479-0.841 0.479-0.003 0-0.007-0-0.010-0h0zM21.379 16.548c-0.050 0-0.099 0.006-0.147 0.020-0.151 0.039-0.28 0.136-0.36 0.271l-5.121 8.717c-0.051 0.086-0.081 0.189-0.081 0.299 0 0.215 0.115 0.403 0.286 0.506l0.003 0.002 0.988 0.589c0.085 0.052 0.189 0.082 0.299 0.082 0.215 0 0.402-0.116 0.504-0.288l0.002-0.003 5.124-8.716c0.051-0.086 0.081-0.189 0.081-0.299 0-0.215-0.115-0.403-0.286-0.506l-0.003-0.002-0.99-0.589c-0.085-0.052-0.188-0.082-0.297-0.083h-0z"></path>
<path fill="#3ee9e5" d="M15.911 25.254c0 2.706-2.186 4.9-4.883 4.9s-4.883-2.194-4.883-4.9c0-2.706 2.186-4.9 4.883-4.9s4.883 2.194 4.883 4.9z"></path>
<path fill="#093f68" d="M11.034 30.351c-2.624 0.003-4.82-1.998-5.070-4.619s1.529-5.003 4.106-5.499c2.578-0.496 5.107 1.057 5.841 3.586s-0.57 5.202-3.009 6.172c-0.594 0.238-1.228 0.36-1.868 0.36zM11.034 20.547c-2.349-0.005-4.341 1.734-4.661 4.069s1.129 4.549 3.393 5.181c2.264 0.632 4.644-0.512 5.572-2.678 0.241-0.549 0.382-1.188 0.382-1.861 0-0.963-0.288-1.858-0.782-2.605l0.011 0.018c-0.867-1.323-2.337-2.121-3.914-2.124z"></path>
<path fill="#3ee9e5" d="M14.753 25.254c0 2.064-1.668 3.738-3.725 3.738s-3.725-1.674-3.725-3.738c0-2.064 1.668-3.738 3.725-3.738s3.725 1.674 3.725 3.738z"></path>
<path fill="#093f68" d="M11.028 29.191c-1.968-0.006-3.624-1.478-3.869-3.437s0.998-3.796 2.903-4.291c1.905-0.494 3.88 0.508 4.612 2.341 0.478 1.212 0.327 2.583-0.403 3.661-0.713 1.045-1.898 1.723-3.242 1.726h-0zM11.028 21.713c-1.576 0.004-2.909 1.042-3.355 2.472l-0.007 0.025c-0.098 0.31-0.155 0.667-0.155 1.037 0 1.209 0.606 2.276 1.53 2.915l0.012 0.008c0.554 0.383 1.24 0.611 1.98 0.611 0.836 0 1.603-0.292 2.206-0.779l-0.007 0.005c0.809-0.654 1.322-1.647 1.322-2.76 0-0.466-0.090-0.912-0.254-1.32l0.008 0.024c-0.532-1.32-1.801-2.236-3.285-2.238h0.003z"></path>
<path fill="#093f68" d="M11.738 28.229l-0.176-0.446c-0.18 0.020-0.35 0.049-0.52 0.057-0.031 0.002-0.067 0.004-0.103 0.004-0.312 0-0.601-0.097-0.839-0.262l0.005 0.003c-0.229-0.168-0.404-0.396-0.504-0.661l-0.003-0.010 0.867-0.346c0.116 0.262 0.374 0.442 0.674 0.442 0.038 0 0.076-0.003 0.113-0.009l-0.004 0.001-0.467-1.178c-0.196 0.018-0.391 0.040-0.587 0.053-0.040 0.004-0.086 0.007-0.133 0.007-0.174 0-0.341-0.035-0.492-0.099l0.008 0.003c-0.211-0.091-0.381-0.242-0.495-0.431l-0.003-0.005c-0.147-0.222-0.237-0.492-0.244-0.783l-0-0.002c-0-0.012-0.001-0.025-0.001-0.039 0-0.406 0.178-0.77 0.461-1.018l0.002-0.001c0.124-0.104 0.255-0.201 0.392-0.289l0.047-0.031-0.233-0.589 0.81-0.324 0.024 0.059c0.067 0.169 0.135 0.335 0.196 0.504 0.015 0.043 0.033 0.051 0.076 0.043 0.103-0.021 0.222-0.033 0.343-0.033 0.197 0 0.388 0.031 0.566 0.089l-0.013-0.004c0.312 0.104 0.565 0.312 0.724 0.583l0.003 0.006c0.047 0.074 0.084 0.153 0.129 0.235l-0.881 0.349c-0.102-0.239-0.333-0.404-0.603-0.408h-0.001l0.436 1.101 0.104-0.015c0.188-0.036 0.403-0.057 0.624-0.057 0.056 0 0.111 0.001 0.167 0.004l-0.008-0c0.405 0.011 0.753 0.245 0.926 0.583l0.003 0.006c0.12 0.204 0.191 0.45 0.191 0.712 0 0.434-0.194 0.822-0.5 1.082l-0.002 0.002c-0.139 0.122-0.293 0.226-0.45 0.346l0.17 0.43-0.798 0.334zM11.666 25.665l0.405 1.025c0.125-0.073 0.225-0.174 0.293-0.297l0.002-0.004c0.037-0.067 0.059-0.148 0.059-0.233 0-0.224-0.151-0.413-0.357-0.469l-0.003-0.001c-0.134-0.014-0.269-0.022-0.403-0.022h0.004zM10.431 24.933l-0.391-0.982c-0.085 0.086-0.166 0.178-0.241 0.274l-0.005 0.007c-0.046 0.071-0.073 0.157-0.073 0.25 0 0.067 0.014 0.131 0.040 0.189l-0.001-0.003c0.062 0.142 0.191 0.243 0.343 0.269 0.106 0.008 0.213-0.004 0.329-0.004z"></path>
</svg>
