<!-- Generated by IcoMoon.io -->
<svg version="1.1" xmlns="http://www.w3.org/2000/svg" width="110" height="32" viewBox="0 0 110 32">
<title>logo</title>
<path fill="#fff" d="M47.035 22.857v-7.175c0-0.68 0.188-1.234 0.565-1.662s0.876-0.642 1.498-0.642c0.651 0 1.161 0.218 1.53 0.653s0.554 1.044 0.554 1.827v7h2.984v-7.175c0-0.454 0.086-0.854 0.258-1.201s0.411-0.618 0.719-0.812c0.307-0.194 0.669-0.291 1.086-0.291 0.651 0 1.161 0.218 1.53 0.653s0.554 1.044 0.554 1.827v7h2.984v-7.79c0-1.295-0.346-2.342-1.037-3.143s-1.713-1.201-3.066-1.201c-0.79 0-1.509 0.174-2.156 0.521-0.643 0.345-1.166 0.839-1.537 1.437l-0.010 0.017 0.084-0.128-0.050-0.094c-0.242-0.405-0.547-0.745-0.907-1.018l-0.009-0.006-0.193-0.136c-0.596-0.395-1.359-0.592-2.288-0.592-0.812 0-1.545 0.179-2.2 0.538-0.436 0.239-0.814 0.535-1.131 0.887l-0.136 0.16v-1.299h-2.633v11.849h3.006zM67.441 23.186c1.024 0 1.871-0.177 2.54-0.532 0.521-0.276 1.013-0.686 1.478-1.23l0.019-0.023v1.456h2.611v-7.241c0-0.541-0.022-1.031-0.066-1.47s-0.183-0.878-0.417-1.317c-0.417-0.79-1.031-1.346-1.843-1.668s-1.741-0.483-2.787-0.483c-1.426 0-2.553 0.307-3.379 0.922-0.797 0.586-1.39 1.407-1.681 2.359l-0.009 0.032 2.699 0.856c0.19-0.541 0.523-0.918 0.998-1.13s0.933-0.318 1.371-0.318c0.79 0 1.353 0.165 1.69 0.494 0.236 0.23 0.389 0.552 0.459 0.966l0.021 0.155-1.434 0.213c-0.915 0.131-1.616 0.256-2.309 0.399l0.247-0.043c-0.607 0.124-1.13 0.267-1.569 0.428-0.636 0.234-1.143 0.525-1.52 0.872s-0.649 0.748-0.817 1.201c-0.16 0.432-0.253 0.931-0.253 1.451 0 0.018 0 0.037 0 0.055l-0-0.003c0 0.658 0.152 1.26 0.455 1.805s0.75 0.98 1.338 1.306c0.589 0.326 1.307 0.488 2.156 0.488zM68.078 20.838c-0.344 0-0.64-0.051-0.889-0.154-0.236-0.092-0.432-0.246-0.573-0.441l-0.003-0.004c-0.127-0.186-0.203-0.416-0.203-0.664 0-0.011 0-0.023 0.001-0.034l-0 0.002c0-0.198 0.042-0.377 0.126-0.538s0.216-0.309 0.395-0.444c0.179-0.135 0.415-0.262 0.708-0.378 0.256-0.095 0.552-0.183 0.889-0.263s0.779-0.17 1.328-0.269c0.343-0.062 0.752-0.133 1.225-0.213l0.041-0.006v0.009c-0.004 0.137-0.009 0.285-0.018 0.445l-0.014 0.248c-0.017 0.411-0.115 0.795-0.277 1.143l0.008-0.019c-0.080 0.168-0.232 0.377-0.455 0.625s-0.523 0.47-0.9 0.664c-0.377 0.194-0.839 0.291-1.388 0.291zM79.971 22.857v-5.705l4.103 5.705h3.884l-4.564-5.925 4.279-5.925h-3.686l-4.016 5.705v-9.655h-3.028l-0.022 15.799h3.050zM99.928 17.766c0.124-1.434-0.022-2.681-0.439-3.741s-1.061-1.883-1.931-2.469c-0.87-0.585-1.927-0.878-3.171-0.878-1.17 0-2.205 0.265-3.105 0.795s-1.606 1.274-2.118 2.233c-0.512 0.958-0.768 2.085-0.768 3.379 0 1.185 0.261 2.236 0.784 3.154 0.521 0.911 1.258 1.645 2.144 2.147l0.028 0.015c0.925 0.523 1.995 0.784 3.209 0.784 0.011 0 0.025 0 0.038 0 1.156 0 2.233-0.335 3.14-0.914l-0.024 0.014c0.962-0.6 1.666-1.441 2.112-2.523l-2.984-0.856c-0.219 0.483-0.538 0.852-0.954 1.108s-0.918 0.384-1.503 0.384c-0.929 0-1.633-0.302-2.112-0.905-0.332-0.418-0.549-0.955-0.651-1.614l-0.016-0.114h8.319zM96.908 15.55h-5.22l0.021-0.101c0.102-0.432 0.256-0.8 0.46-1.106l0.106-0.148c0.479-0.618 1.227-0.927 2.244-0.927 0.87 0 1.498 0.265 1.882 0.795 0.236 0.326 0.4 0.781 0.491 1.363l0.016 0.123zM105.403 22.857v-6.056c0-0.454 0.062-0.861 0.186-1.223s0.307-0.677 0.549-0.944c0.241-0.267 0.538-0.481 0.889-0.642 0.345-0.165 0.746-0.273 1.17-0.301l0.010-0.001c0.435-0.033 0.817 0.002 1.147 0.104v-2.787c-0.204-0.026-0.44-0.042-0.679-0.042-0.139 0-0.278 0.005-0.415 0.015l0.018-0.001c-0.382 0.027-0.737 0.094-1.077 0.196l0.035-0.009c-0.355 0.104-0.664 0.244-0.949 0.421l0.016-0.009c-0.373 0.219-0.688 0.497-0.944 0.834-0.102 0.134-0.197 0.274-0.283 0.421l-0.046 0.084v-1.909h-2.633v11.849h3.006z"></path>
<path fill="#3ee9e5" d="M14.629 0c7.288 0 13.331 5.33 14.446 12.304 1.815 2.068 2.924 4.796 2.926 7.783v0c0 0.008 0 0.018 0 0.027 0 6.561-5.316 11.881-11.876 11.886h-0c-0.008 0-0.018 0-0.027 0-2.99 0-5.722-1.109-7.806-2.937l0.013 0.012c-6.974-1.115-12.304-7.159-12.304-14.446 0-8.080 6.549-14.629 14.629-14.629zM20.093 8.229c-6.562 0.012-11.874 5.339-11.865 11.9 0.001 3.563 1.573 6.759 4.061 8.933l0.014 0.012c0.699 0.117 1.504 0.184 2.325 0.184 0.419 0 0.835-0.017 1.245-0.052l-0.054 0.004c-3.435-1.649-5.765-5.1-5.765-9.095 0-5.554 4.503-10.057 10.057-10.057 0.004 0 0.008 0 0.012 0h-0.001c3.991 0.007 7.436 2.334 9.059 5.704l0.026 0.060c-0.574 7.127-6.26 12.813-13.389 13.388 1.256 0.606 2.732 0.961 4.29 0.961 5.555 0 10.059-4.504 10.059-10.059 0-1.558-0.354-3.034-0.987-4.35l0.026 0.060c0.031-0.358 0.049-0.775 0.049-1.196 0-0.819-0.067-1.623-0.196-2.406l0.012 0.085c-2.186-2.503-5.383-4.076-8.947-4.076-0.012 0-0.023 0-0.035 0h0.002z"></path>
</svg>
